Veleka-Italic.ufo
<glyph name="quotedbl" format="1">
  <advance width="331"/>
  <unicode hex="0022"/>
  <outline>
    <contour>
      <point x="376" y="676" type="curve" smooth="yes"/>
      <point x="376" y="655"/>
      <point x="302" y="449"/>
      <point x="292" y="422" type="curve"/>
      <point x="260" y="422" type="line"/>
      <point x="272" y="645" type="line" smooth="yes"/>
      <point x="275" y="685"/>
      <point x="289" y="714"/>
      <point x="334" y="714" type="curve" smooth="yes"/>
      <point x="358" y="714"/>
      <point x="376" y="700"/>
    </contour>
    <contour>
      <point x="215" y="676" type="curve" smooth="yes"/>
      <point x="215" y="655"/>
      <point x="142" y="449"/>
      <point x="132" y="422" type="curve"/>
      <point x="100" y="422" type="line"/>
      <point x="113" y="645" type="line" smooth="yes"/>
      <point x="115" y="685"/>
      <point x="129" y="714"/>
      <point x="174" y="714" type="curve" smooth="yes"/>
      <point x="197" y="714"/>
      <point x="215" y="700"/>
    </contour>
  </outline>
</glyph>
<glyph name="parenright" format="1">
  <advance width="417"/>
  <unicode hex="0029"/>
  <outline>
    <contour>
      <point x="347" y="444" type="curve" smooth="yes"/>
      <point x="347" y="113"/>
      <point x="175" y="-117"/>
      <point x="-48" y="-144" type="curve"/>
      <point x="-39" y="-96" type="line"/>
      <point x="193" y="-65"/>
      <point x="249" y="332"/>
      <point x="249" y="460" type="curve" smooth="yes"/>
      <point x="249" y="520"/>
      <point x="232" y="652"/>
      <point x="108" y="672" type="curve"/>
      <point x="117" y="718" type="line"/>
      <point x="331" y="694"/>
      <point x="347" y="497"/>
    </contour>
  </outline>
</glyph>
<glyph name="three" format="1">
  <advance width="556"/>
  <unicode hex="0033"/>
  <outline>
    <contour>
      <point x="535" y="545" type="curve" smooth="yes"/>
      <point x="535" y="474"/>
      <point x="478" y="397"/>
      <point x="351" y="358" type="curve"/>
      <point x="438" y="345"/>
      <point x="494" y="308"/>
      <point x="494" y="229" type="curve" smooth="yes"/>
      <point x="494" y="102"/>
      <point x="364" y="-16"/>
      <point x="193" y="-16" type="curve" smooth="yes"/>
      <point x="57" y="-16"/>
      <point x="8" y="50"/>
      <point x="8" y="94" type="curve" smooth="yes"/>
      <point x="8" y="113"/>
      <point x="23" y="152"/>
      <point x="70" y="152" type="curve" smooth="yes"/>
      <point x="87" y="152"/>
      <point x="102" y="148"/>
      <point x="114" y="143" type="curve"/>
      <point x="129" y="58" type="line"/>
      <point x="138" y="52"/>
      <point x="167" y="35"/>
      <point x="204" y="35" type="curve" smooth="yes"/>
      <point x="301" y="35"/>
      <point x="383" y="114"/>
      <point x="383" y="214" type="curve" smooth="yes"/>
      <point x="383" y="308"/>
      <point x="307" y="322"/>
      <point x="271" y="322" type="curve" smooth="yes"/>
      <point x="246" y="322"/>
      <point x="224" y="319"/>
      <point x="201" y="315" type="curve"/>
      <point x="210" y="377" type="line"/>
      <point x="338" y="371"/>
      <point x="422" y="440"/>
      <point x="422" y="532" type="curve" smooth="yes"/>
      <point x="422" y="610"/>
      <point x="360" y="636"/>
      <point x="321" y="636" type="curve" smooth="yes"/>
      <point x="278" y="636"/>
      <point x="245" y="615"/>
      <point x="232" y="605" type="curve"/>
      <point x="217" y="510" type="line"/>
      <point x="208" y="507"/>
      <point x="180" y="497"/>
      <point x="162" y="497" type="curve" smooth="yes"/>
      <point x="137" y="497"/>
      <point x="110" y="513"/>
      <point x="110" y="546" type="curve" smooth="yes"/>
      <point x="110" y="626"/>
      <point x="234" y="687"/>
      <point x="354" y="687" type="curve" smooth="yes"/>
      <point x="469" y="687"/>
      <point x="535" y="637"/>
    </contour>
  </outline>
</glyph>
<glyph name="four" format="1">
  <advance width="556"/>
  <unicode hex="0034"/>
  <outline>
    <contour>
      <point x="522" y="271" type="line"/>
      <point x="509" y="202" type="line"/>
      <point x="416" y="202" type="line"/>
      <point x="372" y="-27" type="line"/>
      <point x="278" y="-27" type="line"/>
      <point x="323" y="202" type="line"/>
      <point x="21" y="202" type="line"/>
      <point x="34" y="269" type="line"/>
      <point x="437" y="687" type="line"/>
      <point x="511" y="687" type="line"/>
      <point x="431" y="271" type="line"/>
    </contour>
    <contour>
      <point x="390" y="536" type="line"/>
      <point x="133" y="271" type="line"/>
      <point x="337" y="271" type="line"/>
    </contour>
  </outline>
</glyph>
<glyph name="five" format="1">
  <advance width="556"/>
  <unicode hex="0035"/>
  <outline>
    <contour>
      <point x="542" y="671" type="line"/>
      <point x="527" y="590" type="line"/>
      <point x="236" y="590" type="line"/>
      <point x="197" y="396" type="line"/>
      <point x="221" y="403"/>
      <point x="256" y="411"/>
      <point x="300" y="411" type="curve" smooth="yes"/>
      <point x="391" y="411"/>
      <point x="489" y="371"/>
      <point x="489" y="250" type="curve" smooth="yes"/>
      <point x="489" y="106"/>
      <point x="349" y="-16"/>
      <point x="177" y="-16" type="curve" smooth="yes"/>
      <point x="71" y="-16"/>
      <point x="10" y="20"/>
      <point x="10" y="77" type="curve" smooth="yes"/>
      <point x="10" y="109"/>
      <point x="33" y="138"/>
      <point x="77" y="138" type="curve" smooth="yes"/>
      <point x="88" y="138"/>
      <point x="100" y="136"/>
      <point x="108" y="134" type="curve"/>
      <point x="135" y="49" type="line"/>
      <point x="156" y="42"/>
      <point x="176" y="35"/>
      <point x="200" y="35" type="curve" smooth="yes"/>
      <point x="301" y="35"/>
      <point x="383" y="125"/>
      <point x="383" y="224" type="curve" smooth="yes"/>
      <point x="383" y="324"/>
      <point x="300" y="351"/>
      <point x="217" y="351" type="curve" smooth="yes"/>
      <point x="189" y="351"/>
      <point x="136" y="345"/>
      <point x="109" y="342" type="curve"/>
      <point x="176" y="671" type="line"/>
    </contour>
  </outline>
</glyph>
<glyph name="semicolon" format="1">
  <advance width="279"/>
  <unicode hex="003B"/>
  <outline>
    <contour>
      <point x="225" y="427" type="curve" smooth="yes"/>
      <point x="225" y="390"/>
      <point x="194" y="360"/>
      <point x="157" y="360" type="curve" smooth="yes"/>
      <point x="120" y="360"/>
      <point x="90" y="390"/>
      <point x="90" y="427" type="curve" smooth="yes"/>
      <point x="90" y="464"/>
      <point x="120" y="494"/>
      <point x="157" y="494" type="curve" smooth="yes"/>
      <point x="194" y="494"/>
      <point x="225" y="464"/>
    </contour>
    <contour>
      <point x="159" y="48" type="curve" smooth="yes"/>
      <point x="159" y="-66"/>
      <point x="54" y="-160"/>
      <point x="-55" y="-170" type="curve"/>
      <point x="-48" y="-134" type="line"/>
      <point x="34" y="-116"/>
      <point x="75" y="-76"/>
      <point x="90" y="7" type="curve"/>
      <point x="27" y="7" type="line"/>
      <point x="20" y="16"/>
      <point x="17" y="30"/>
      <point x="17" y="41" type="curve" smooth="yes"/>
      <point x="17" y="80"/>
      <point x="54" y="122"/>
      <point x="94" y="122" type="curve" smooth="yes"/>
      <point x="140" y="122"/>
      <point x="159" y="90"/>
    </contour>
  </outline>
</glyph>
<glyph name="Q" format="1">
  <advance width="709"/>
  <unicode hex="0051"/>
  <outline>
    <contour>
      <point x="722" y="-111" type="line"/>
      <point x="707" y="-119"/>
      <point x="623" y="-160"/>
      <point x="553" y="-160" type="curve" smooth="yes"/>
      <point x="450" y="-160"/>
      <point x="404" y="-96"/>
      <point x="367" y="-12" type="curve"/>
      <point x="352" y="-13"/>
      <point x="333" y="-16"/>
      <point x="317" y="-16" type="curve" smooth="yes"/>
      <point x="170" y="-16"/>
      <point x="46" y="84"/>
      <point x="46" y="259" type="curve" smooth="yes"/>
      <point x="46" y="466"/>
      <point x="199" y="687"/>
      <point x="421" y="687" type="curve" smooth="yes"/>
      <point x="584" y="687"/>
      <point x="690" y="571"/>
      <point x="690" y="418" type="curve" smooth="yes"/>
      <point x="690" y="310"/>
      <point x="656" y="126"/>
      <point x="471" y="20" type="curve"/>
      <point x="511" y="-54"/>
      <point x="541" y="-102"/>
      <point x="607" y="-102" type="curve" smooth="yes"/>
      <point x="646" y="-102"/>
      <point x="691" y="-83"/>
      <point x="722" y="-69" type="curve"/>
    </contour>
    <contour>
      <point x="577" y="418" type="curve" smooth="yes"/>
      <point x="577" y="544"/>
      <point x="512" y="636"/>
      <point x="416" y="636" type="curve" smooth="yes"/>
      <point x="267" y="636"/>
      <point x="158" y="441"/>
      <point x="158" y="254" type="curve" smooth="yes"/>
      <point x="158" y="129"/>
      <point x="222" y="37"/>
      <point x="326" y="37" type="curve" smooth="yes"/>
      <point x="469" y="37"/>
      <point x="577" y="244"/>
    </contour>
  </outline>
</glyph>
<glyph name="backslash" format="1">
  <advance width="488"/>
  <unicode hex="005C"/>
  <outline>
    <contour>
      <point x="489" y="-93" type="line"/>
      <point x="425" y="-93" type="line"/>
      <point x="0" y="671" type="line"/>
      <point x="64" y="671" type="line"/>
    </contour>
  </outline>
</glyph>
<glyph name="bracketright" format="1">
  <advance width="420"/>
  <unicode hex="005D"/>
  <outline>
    <contour>
      <point x="376" y="708" type="line"/>
      <point x="208" y="-132" type="line"/>
      <point x="-41" y="-132" type="line"/>
      <point x="-41" y="-84" type="line"/>
      <point x="123" y="-84" type="line"/>
      <point x="271" y="662" type="line"/>
      <point x="118" y="662" type="line"/>
      <point x="118" y="708" type="line"/>
    </contour>
  </outline>
</glyph>
<glyph name="copyright" format="1">
  <advance width="836"/>
  <unicode hex="00A9"/>
  <outline>
    <contour>
      <point x="823" y="351" type="curve" smooth="yes"/>
      <point x="823" y="138"/>
      <point x="651" y="-36"/>
      <point x="438" y="-36" type="curve" smooth="yes"/>
      <point x="227" y="-36"/>
      <point x="54" y="138"/>
      <point x="54" y="350" type="curve" smooth="yes"/>
      <point x="54" y="563"/>
      <point x="226" y="737"/>
      <point x="439" y="737" type="curve" smooth="yes"/>
      <point x="654" y="737"/>
      <point x="823" y="560"/>
    </contour>
    <contour>
      <point x="780" y="350" type="curve" smooth="yes"/>
      <point x="780" y="539"/>
      <point x="628" y="695"/>
      <point x="439" y="695" type="curve" smooth="yes"/>
      <point x="250" y="695"/>
      <point x="97" y="540"/>
      <point x="97" y="350" type="curve" smooth="yes"/>
      <point x="97" y="161"/>
      <point x="250" y="6"/>
      <point x="438" y="6" type="curve" smooth="yes"/>
      <point x="626" y="6"/>
      <point x="780" y="161"/>
    </contour>
    <contour>
      <point x="596" y="138" type="line" smooth="yes"/>
      <point x="593" y="137"/>
      <point x="528" y="114"/>
      <point x="454" y="114" type="curve" smooth="yes"/>
      <point x="297" y="114"/>
      <point x="209" y="224"/>
      <point x="209" y="350" type="curve" smooth="yes"/>
      <point x="209" y="488"/>
      <point x="306" y="585"/>
      <point x="455" y="585" type="curve" smooth="yes"/>
      <point x="507" y="585"/>
      <point x="552" y="573"/>
      <point x="596" y="560" type="curve"/>
      <point x="596" y="441" type="line"/>
      <point x="551" y="441" type="line"/>
      <point x="536" y="517" type="line"/>
      <point x="521" y="527"/>
      <point x="493" y="538"/>
      <point x="465" y="538" type="curve" smooth="yes"/>
      <point x="380" y="538"/>
      <point x="301" y="470"/>
      <point x="301" y="352" type="curve" smooth="yes"/>
      <point x="301" y="230"/>
      <point x="377" y="160"/>
      <point x="455" y="160" type="curve" smooth="yes"/>
      <point x="488" y="160"/>
      <point x="521" y="171"/>
      <point x="538" y="179" type="curve"/>
      <point x="552" y="264" type="line"/>
      <point x="596" y="264" type="line"/>
    </contour>
  </outline>
</glyph>
<glyph name="macron" format="1">
  <advance width="305"/>
  <unicode hex="00AF"/>
  <outline>
    <contour>
      <point x="384" y="652" type="line"/>
      <point x="371" y="586" type="line"/>
      <point x="68" y="586" type="line"/>
      <point x="83" y="652" type="line"/>
    </contour>
  </outline>
</glyph>
<glyph name="paragraph" format="1">
  <advance width="485"/>
  <unicode hex="00B6"/>
  <outline>
    <contour>
      <point x="483" y="635" type="line"/>
      <point x="421" y="625" type="line"/>
      <point x="421" y="-79" type="line"/>
      <point x="373" y="-79" type="line"/>
      <point x="373" y="630" type="line"/>
      <point x="296" y="630" type="line"/>
      <point x="296" y="281" type="line"/>
      <point x="152" y="281"/>
      <point x="51" y="320"/>
      <point x="51" y="475" type="curve" smooth="yes"/>
      <point x="51" y="622"/>
      <point x="137" y="671"/>
      <point x="286" y="671" type="curve" smooth="yes"/>
      <point x="483" y="671" type="line"/>
    </contour>
  </outline>
</glyph>
<glyph name="guillemotright" format="1">
  <advance width="406"/>
  <unicode hex="00BB"/>
  <outline>
    <contour>
      <point x="282" y="482" type="line"/>
      <point x="387" y="267" type="line"/>
      <point x="377" y="216" type="line"/>
      <point x="185" y="0" type="line"/>
      <point x="140" y="0" type="line"/>
      <point x="303" y="241" type="line"/>
      <point x="237" y="482" type="line"/>
    </contour>
    <contour>
      <point x="112" y="482" type="line"/>
      <point x="216" y="267" type="line"/>
      <point x="206" y="216" type="line"/>
      <point x="14" y="0" type="line"/>
      <point x="-31" y="0" type="line"/>
      <point x="132" y="241" type="line"/>
      <point x="67" y="482" type="line"/>
    </contour>
  </outline>
</glyph>
<glyph name="onehalf" format="1">
  <advance width="878"/>
  <unicode hex="00BD"/>
  <outline>
    <contour>
      <point x="815" y="321" type="curve" smooth="yes"/>
      <point x="815" y="209"/>
      <point x="634" y="109"/>
      <point x="552" y="56" type="curve"/>
      <point x="728" y="56" type="line"/>
      <point x="750" y="105" type="line"/>
      <point x="787" y="105" type="line"/>
      <point x="765" y="0" type="line"/>
      <point x="458" y="0" type="line"/>
      <point x="468" y="44" type="line"/>
      <point x="554" y="100"/>
      <point x="744" y="196"/>
      <point x="744" y="314" type="curve" smooth="yes"/>
      <point x="744" y="356"/>
      <point x="717" y="374"/>
      <point x="676" y="374" type="curve" smooth="yes"/>
      <point x="649" y="374"/>
      <point x="627" y="364"/>
      <point x="621" y="361" type="curve"/>
      <point x="608" y="299" type="line"/>
      <point x="608" y="299"/>
      <point x="595" y="288"/>
      <point x="573" y="288" type="curve" smooth="yes"/>
      <point x="563" y="288"/>
      <point x="539" y="291"/>
      <point x="539" y="316" type="curve" smooth="yes"/>
      <point x="539" y="365"/>
      <point x="616" y="413"/>
      <point x="696" y="413" type="curve" smooth="yes"/>
      <point x="758" y="413"/>
      <point x="815" y="389"/>
    </contour>
    <contour>
      <point x="752" y="698" type="line"/>
      <point x="171" y="0" type="line"/>
      <point x="100" y="0" type="line"/>
      <point x="681" y="698" type="line"/>
    </contour>
    <contour>
      <point x="279" y="701" type="line"/>
      <point x="206" y="346" type="line" smooth="yes"/>
      <point x="204" y="335"/>
      <point x="209" y="329"/>
      <point x="220" y="329" type="curve" smooth="yes"/>
      <point x="263" y="325" type="line"/>
      <point x="263" y="292" type="line"/>
      <point x="68" y="292" type="line"/>
      <point x="68" y="326" type="line"/>
      <point x="123" y="329" type="line" smooth="yes"/>
      <point x="137" y="329"/>
      <point x="143" y="335"/>
      <point x="146" y="346" type="curve" smooth="yes"/>
      <point x="205" y="641" type="line"/>
      <point x="109" y="630" type="line"/>
      <point x="109" y="662" type="line"/>
      <point x="258" y="701" type="line"/>
    </contour>
  </outline>
</glyph>
<glyph name="threequarters" format="1">
  <advance width="878"/>
  <unicode hex="00BE"/>
  <outline>
    <contour>
      <point x="822" y="162" type="line"/>
      <point x="812" y="116" type="line"/>
      <point x="740" y="116" type="line"/>
      <point x="712" y="-21" type="line"/>
      <point x="654" y="-21" type="line"/>
      <point x="682" y="116" type="line"/>
      <point x="475" y="116" type="line"/>
      <point x="484" y="160" type="line"/>
      <point x="757" y="410" type="line"/>
      <point x="802" y="410" type="line"/>
      <point x="750" y="162" type="line"/>
    </contour>
    <contour>
      <point x="798" y="698" type="line"/>
      <point x="217" y="0" type="line"/>
      <point x="146" y="0" type="line"/>
      <point x="727" y="698" type="line"/>
    </contour>
    <contour>
      <point x="383" y="618" type="curve" smooth="yes"/>
      <point x="383" y="574"/>
      <point x="346" y="531"/>
      <point x="278" y="510" type="curve"/>
      <point x="320" y="503"/>
      <point x="357" y="481"/>
      <point x="357" y="432" type="curve" smooth="yes"/>
      <point x="357" y="352"/>
      <point x="269" y="286"/>
      <point x="164" y="286" type="curve" smooth="yes"/>
      <point x="81" y="286"/>
      <point x="45" y="323"/>
      <point x="45" y="354" type="curve" smooth="yes"/>
      <point x="45" y="366"/>
      <point x="51" y="392"/>
      <point x="84" y="392" type="curve" smooth="yes"/>
      <point x="98" y="392"/>
      <point x="111" y="386"/>
      <point x="111" y="386" type="curve"/>
      <point x="121" y="335" type="line"/>
      <point x="127" y="332"/>
      <point x="147" y="322"/>
      <point x="171" y="322" type="curve" smooth="yes"/>
      <point x="238" y="322"/>
      <point x="287" y="367"/>
      <point x="287" y="423" type="curve" smooth="yes"/>
      <point x="287" y="490"/>
      <point x="216" y="487"/>
      <point x="169" y="481" type="curve"/>
      <point x="176" y="524" type="line"/>
      <point x="262" y="519"/>
      <point x="312" y="559"/>
      <point x="312" y="610" type="curve" smooth="yes"/>
      <point x="312" y="653"/>
      <point x="276" y="669"/>
      <point x="246" y="669" type="curve" smooth="yes"/>
      <point x="214" y="669"/>
      <point x="192" y="656"/>
      <point x="187" y="652" type="curve"/>
      <point x="178" y="595" type="line"/>
      <point x="178" y="595"/>
      <point x="156" y="586"/>
      <point x="143" y="586" type="curve" smooth="yes"/>
      <point x="131" y="586"/>
      <point x="111" y="595"/>
      <point x="111" y="619" type="curve" smooth="yes"/>
      <point x="111" y="671"/>
      <point x="195" y="706"/>
      <point x="267" y="706" type="curve" smooth="yes"/>
      <point x="336" y="706"/>
      <point x="383" y="677"/>
    </contour>
    <contour>
      <point x="727" y="329" type="line"/>
      <point x="547" y="162" type="line"/>
      <point x="692" y="162" type="line"/>
    </contour>
  </outline>
</glyph>
<glyph name="Agrave" format="1">
  <advance width="672"/>
  <unicode hex="00C0"/>
  <outline>
    <contour>
      <point x="626" y="0" type="line"/>
      <point x="391" y="0" type="line"/>
      <point x="391" y="42" type="line"/>
      <point x="437" y="47" type="line" smooth="yes"/>
      <point x="452" y="49"/>
      <point x="458" y="55"/>
      <point x="456" y="66" type="curve" smooth="yes"/>
      <point x="426" y="257" type="line"/>
      <point x="199" y="257" type="line"/>
      <point x="97" y="66" type="line" smooth="yes"/>
      <point x="90" y="53"/>
      <point x="97" y="49"/>
      <point x="116" y="47" type="curve" smooth="yes"/>
      <point x="162" y="42" type="line"/>
      <point x="162" y="0" type="line"/>
      <point x="-53" y="0" type="line"/>
      <point x="-53" y="42" type="line"/>
      <point x="3" y="48" type="line"/>
      <point x="372" y="687" type="line"/>
      <point x="452" y="687" type="line"/>
      <point x="560" y="66" type="line" smooth="yes"/>
      <point x="562" y="53"/>
      <point x="566" y="48"/>
      <point x="580" y="47" type="curve" smooth="yes"/>
      <point x="626" y="42" type="line"/>
    </contour>
    <contour>
      <point x="417" y="304" type="line"/>
      <point x="374" y="564" type="line"/>
      <point x="226" y="304" type="line"/>
    </contour>
    <contour>
      <point x="511" y="746" type="line"/>
      <point x="449" y="746" type="line"/>
      <point x="304" y="841" type="line" smooth="yes"/>
      <point x="290" y="850"/>
      <point x="281" y="863"/>
      <point x="281" y="883" type="curve" smooth="yes"/>
      <point x="281" y="903"/>
      <point x="291" y="927"/>
      <point x="326" y="927" type="curve" smooth="yes"/>
      <point x="354" y="927"/>
      <point x="365" y="916"/>
      <point x="377" y="902" type="curve" smooth="yes"/>
    </contour>
  </outline>
</glyph>
<glyph name="Aacute" format="1">
  <advance width="672"/>
  <unicode hex="00C1"/>
  <outline>
    <contour>
      <point x="626" y="0" type="line"/>
      <point x="391" y="0" type="line"/>
      <point x="391" y="42" type="line"/>
      <point x="437" y="47" type="line" smooth="yes"/>
      <point x="452" y="49"/>
      <point x="458" y="55"/>
      <point x="456" y="66" type="curve" smooth="yes"/>
      <point x="426" y="257" type="line"/>
      <point x="199" y="257" type="line"/>
      <point x="97" y="66" type="line" smooth="yes"/>
      <point x="90" y="53"/>
      <point x="97" y="49"/>
      <point x="116" y="47" type="curve" smooth="yes"/>
      <point x="162" y="42" type="line"/>
      <point x="162" y="0" type="line"/>
      <point x="-53" y="0" type="line"/>
      <point x="-53" y="42" type="line"/>
      <point x="3" y="48" type="line"/>
      <point x="372" y="687" type="line"/>
      <point x="452" y="687" type="line"/>
      <point x="560" y="66" type="line" smooth="yes"/>
      <point x="562" y="53"/>
      <point x="566" y="48"/>
      <point x="580" y="47" type="curve" smooth="yes"/>
      <point x="626" y="42" type="line"/>
    </contour>
    <contour>
      <point x="417" y="304" type="line"/>
      <point x="374" y="564" type="line"/>
      <point x="226" y="304" type="line"/>
    </contour>
    <contour>
      <point x="575" y="884" type="curve" smooth="yes"/>
      <point x="575" y="865"/>
      <point x="566" y="853"/>
      <point x="551" y="843" type="curve" smooth="yes"/>
      <point x="401" y="746" type="line"/>
      <point x="331" y="746" type="line"/>
      <point x="467" y="902" type="line" smooth="yes"/>
      <point x="480" y="917"/>
      <point x="494" y="927"/>
      <point x="524" y="927" type="curve" smooth="yes"/>
      <point x="559" y="927"/>
      <point x="575" y="904"/>
    </contour>
  </outline>
</glyph>
<glyph name="Oslash" format="1">
  <advance width="709"/>
  <unicode hex="00D8"/>
  <outline>
    <contour>
      <point x="691" y="417" type="curve" smooth="yes"/>
      <point x="691" y="206"/>
      <point x="555" y="-16"/>
      <point x="320" y="-16" type="curve" smooth="yes"/>
      <point x="267" y="-16"/>
      <point x="219" y="-4"/>
      <point x="179" y="19" type="curve"/>
      <point x="114" y="-80" type="line"/>
      <point x="71" y="-48" type="line"/>
      <point x="134" y="50" type="line"/>
      <point x="80" y="99"/>
      <point x="48" y="172"/>
      <point x="48" y="262" type="curve" smooth="yes"/>
      <point x="48" y="477"/>
      <point x="200" y="687"/>
      <point x="420" y="687" type="curve" smooth="yes"/>
      <point x="462" y="687"/>
      <point x="500" y="679"/>
      <point x="533" y="666" type="curve"/>
      <point x="587" y="749" type="line"/>
      <point x="638" y="718" type="line"/>
      <point x="584" y="637" type="line"/>
      <point x="652" y="588"/>
      <point x="691" y="508"/>
    </contour>
    <contour>
      <point x="497" y="609" type="line"/>
      <point x="472" y="627"/>
      <point x="443" y="637"/>
      <point x="411" y="637" type="curve" smooth="yes"/>
      <point x="265" y="637"/>
      <point x="161" y="431"/>
      <point x="161" y="254" type="curve" smooth="yes"/>
      <point x="161" y="206"/>
      <point x="170" y="164"/>
      <point x="187" y="130" type="curve"/>
    </contour>
    <contour>
      <point x="577" y="417" type="curve" smooth="yes"/>
      <point x="577" y="478"/>
      <point x="563" y="528"/>
      <point x="538" y="566" type="curve"/>
      <point x="220" y="82" type="line"/>
      <point x="249" y="52"/>
      <point x="286" y="36"/>
      <point x="327" y="36" type="curve" smooth="yes"/>
      <point x="473" y="36"/>
      <point x="577" y="246"/>
    </contour>
  </outline>
</glyph>
<glyph name="germandbls" format="1">
  <advance width="556"/>
  <unicode hex="00DF"/>
  <outline>
    <contour>
      <point x="530" y="605" type="curve" smooth="yes"/>
      <point x="530" y="547"/>
      <point x="512" y="489"/>
      <point x="496" y="434" type="curve"/>
      <point x="472" y="436"/>
      <point x="459" y="437"/>
      <point x="446" y="437" type="curve" smooth="yes"/>
      <point x="413" y="437"/>
      <point x="342" y="426"/>
      <point x="342" y="369" type="curve" smooth="yes"/>
      <point x="342" y="332"/>
      <point x="386" y="301"/>
      <point x="430" y="266" type="curve" smooth="yes"/>
      <point x="474" y="232"/>
      <point x="517" y="195"/>
      <point x="517" y="146" type="curve" smooth="yes"/>
      <point x="517" y="47"/>
      <point x="430" y="-12"/>
      <point x="327" y="-12" type="curve" smooth="yes"/>
      <point x="259" y="-12"/>
      <point x="185" y="13"/>
      <point x="185" y="81" type="curve" smooth="yes"/>
      <point x="185" y="109"/>
      <point x="205" y="132"/>
      <point x="245" y="132" type="curve" smooth="yes"/>
      <point x="267" y="132"/>
      <point x="279" y="125"/>
      <point x="297" y="113" type="curve"/>
      <point x="279" y="63" type="line"/>
      <point x="300" y="37"/>
      <point x="320" y="29"/>
      <point x="343" y="29" type="curve" smooth="yes"/>
      <point x="385" y="29"/>
      <point x="426" y="58"/>
      <point x="426" y="113" type="curve" smooth="yes"/>
      <point x="426" y="153"/>
      <point x="389" y="180"/>
      <point x="343" y="215" type="curve" smooth="yes"/>
      <point x="302" y="247"/>
      <point x="262" y="281"/>
      <point x="262" y="333" type="curve" smooth="yes"/>
      <point x="262" y="416"/>
      <point x="336" y="473"/>
      <point x="424" y="481" type="curve"/>
      <point x="436" y="523"/>
      <point x="446" y="566"/>
      <point x="446" y="607" type="curve" smooth="yes"/>
      <point x="446" y="662"/>
      <point x="413" y="688"/>
      <point x="369" y="688" type="curve" smooth="yes"/>
      <point x="279" y="688"/>
      <point x="227" y="601"/>
      <point x="198" y="493" type="curve" smooth="yes"/>
      <point x="151" y="317"/>
      <point x="165" y="132"/>
      <point x="102" y="-41" type="curve" smooth="yes"/>
      <point x="78" y="-106"/>
      <point x="-14" y="-229"/>
      <point x="-98" y="-229" type="curve" smooth="yes"/>
      <point x="-140" y="-229"/>
      <point x="-160" y="-207"/>
      <point x="-160" y="-175" type="curve" smooth="yes"/>
      <point x="-160" y="-159"/>
      <point x="-151" y="-144"/>
      <point x="-134" y="-131" type="curve"/>
      <point x="-31" y="-158" type="line"/>
      <point x="10" y="-118"/>
      <point x="34" y="17"/>
      <point x="41" y="63" type="curve" smooth="yes"/>
      <point x="99" y="455" type="line" smooth="yes"/>
      <point x="121" y="599"/>
      <point x="203" y="737"/>
      <point x="375" y="737" type="curve" smooth="yes"/>
      <point x="469" y="737"/>
      <point x="530" y="692"/>
    </contour>
  </outline>
</glyph>
<glyph name="atilde" format="1">
  <advance width="520"/>
  <unicode hex="00E3"/>
  <outline>
    <contour>
      <point x="518" y="27" type="line"/>
      <point x="502" y="20"/>
      <point x="427" y="-12"/>
      <point x="388" y="-12" type="curve" smooth="yes"/>
      <point x="340" y="-12"/>
      <point x="323" y="12"/>
      <point x="319" y="56" type="curve"/>
      <point x="289" y="28"/>
      <point x="237" y="-12"/>
      <point x="177" y="-12" type="curve" smooth="yes"/>
      <point x="59" y="-12"/>
      <point x="32" y="95"/>
      <point x="32" y="167" type="curve" smooth="yes"/>
      <point x="32" y="322"/>
      <point x="133" y="494"/>
      <point x="320" y="494" type="curve" smooth="yes"/>
      <point x="357" y="494"/>
      <point x="392" y="476"/>
      <point x="410" y="458" type="curve"/>
      <point x="425" y="482" type="line"/>
      <point x="493" y="482" type="line"/>
      <point x="487" y="467"/>
      <point x="476" y="435"/>
      <point x="474" y="425" type="curve" smooth="yes"/>
      <point x="460" y="372"/>
      <point x="409" y="137"/>
      <point x="409" y="93" type="curve" smooth="yes"/>
      <point x="409" y="58"/>
      <point x="425" y="47"/>
      <point x="452" y="47" type="curve" smooth="yes"/>
      <point x="466" y="47"/>
      <point x="508" y="61"/>
      <point x="518" y="63" type="curve"/>
    </contour>
    <contour>
      <point x="371" y="392" type="line" smooth="yes"/>
      <point x="372" y="399"/>
      <point x="346" y="446"/>
      <point x="334" y="446" type="curve" smooth="yes"/>
      <point x="181" y="446"/>
      <point x="131" y="283"/>
      <point x="131" y="173" type="curve" smooth="yes"/>
      <point x="131" y="117"/>
      <point x="146" y="54"/>
      <point x="208" y="54" type="curve" smooth="yes"/>
      <point x="255" y="54"/>
      <point x="305" y="102"/>
      <point x="319" y="116" type="curve"/>
    </contour>
    <contour>
      <point x="556" y="691" type="line"/>
      <point x="528" y="633"/>
      <point x="483" y="585"/>
      <point x="411" y="585" type="curve" smooth="yes"/>
      <point x="384" y="585"/>
      <point x="366" y="595"/>
      <point x="345" y="608" type="curve" smooth="yes"/>
      <point x="328" y="619"/>
      <point x="312" y="631"/>
      <point x="281" y="631" type="curve" smooth="yes"/>
      <point x="264" y="631"/>
      <point x="236" y="612"/>
      <point x="225" y="585" type="curve"/>
      <point x="172" y="585" type="line"/>
      <point x="200" y="643"/>
      <point x="244" y="691"/>
      <point x="316" y="691" type="curve" smooth="yes"/>
      <point x="343" y="691"/>
      <point x="362" y="681"/>
      <point x="383" y="667" type="curve" smooth="yes"/>
      <point x="400" y="657"/>
      <point x="416" y="645"/>
      <point x="447" y="645" type="curve" smooth="yes"/>
      <point x="465" y="645"/>
      <point x="492" y="664"/>
      <point x="503" y="691" type="curve"/>
    </contour>
  </outline>
</glyph>
<glyph name="igrave" format="1">
  <advance width="266"/>
  <unicode hex="00EC"/>
  <outline>
    <contour>
      <point x="263" y="29" type="line"/>
      <point x="248" y="22"/>
      <point x="172" y="-12"/>
      <point x="117" y="-12" type="curve" smooth="yes"/>
      <point x="49" y="-12"/>
      <point x="39" y="40"/>
      <point x="48" y="86" type="curve" smooth="yes"/>
      <point x="112" y="425" type="line"/>
      <point x="26" y="434" type="line"/>
      <point x="26" y="463" type="line"/>
      <point x="177" y="494" type="line"/>
      <point x="218" y="494" type="line"/>
      <point x="142" y="94" type="line" smooth="yes"/>
      <point x="137" y="67"/>
      <point x="154" y="43"/>
      <point x="181" y="43" type="curve" smooth="yes"/>
      <point x="204" y="43"/>
      <point x="250" y="63"/>
      <point x="263" y="67" type="curve"/>
    </contour>
    <contour>
      <point x="287" y="551" type="line"/>
      <point x="225" y="551" type="line"/>
      <point x="80" y="646" type="line" smooth="yes"/>
      <point x="66" y="655"/>
      <point x="57" y="668"/>
      <point x="57" y="688" type="curve" smooth="yes"/>
      <point x="57" y="708"/>
      <point x="67" y="732"/>
      <point x="102" y="732" type="curve" smooth="yes"/>
      <point x="130" y="732"/>
      <point x="141" y="721"/>
      <point x="153" y="707" type="curve" smooth="yes"/>
    </contour>
  </outline>
</glyph>
<glyph name="iacute" format="1">
  <advance width="266"/>
  <unicode hex="00ED"/>
  <outline>
    <contour>
      <point x="263" y="29" type="line"/>
      <point x="248" y="22"/>
      <point x="172" y="-12"/>
      <point x="117" y="-12" type="curve" smooth="yes"/>
      <point x="49" y="-12"/>
      <point x="39" y="40"/>
      <point x="48" y="86" type="curve" smooth="yes"/>
      <point x="112" y="425" type="line"/>
      <point x="26" y="434" type="line"/>
      <point x="26" y="463" type="line"/>
      <point x="177" y="494" type="line"/>
      <point x="218" y="494" type="line"/>
      <point x="142" y="94" type="line" smooth="yes"/>
      <point x="137" y="67"/>
      <point x="154" y="43"/>
      <point x="181" y="43" type="curve" smooth="yes"/>
      <point x="204" y="43"/>
      <point x="250" y="63"/>
      <point x="263" y="67" type="curve"/>
    </contour>
    <contour>
      <point x="351" y="689" type="curve" smooth="yes"/>
      <point x="351" y="670"/>
      <point x="342" y="658"/>
      <point x="327" y="648" type="curve" smooth="yes"/>
      <point x="177" y="551" type="line"/>
      <point x="106" y="551" type="line"/>
      <point x="243" y="707" type="line" smooth="yes"/>
      <point x="256" y="722"/>
      <point x="270" y="732"/>
      <point x="300" y="732" type="curve" smooth="yes"/>
      <point x="335" y="732"/>
      <point x="351" y="709"/>
    </contour>
  </outline>
</glyph>
<glyph name="aogonek" format="1">
  <advance width="520"/>
  <unicode hex="0105"/>
  <outline>
    <contour>
      <point x="518" y="27" type="line"/>
      <point x="502" y="20"/>
      <point x="427" y="-12"/>
      <point x="388" y="-12" type="curve" smooth="yes"/>
      <point x="340" y="-12"/>
      <point x="323" y="12"/>
      <point x="319" y="56" type="curve"/>
      <point x="289" y="28"/>
      <point x="237" y="-12"/>
      <point x="177" y="-12" type="curve" smooth="yes"/>
      <point x="59" y="-12"/>
      <point x="32" y="95"/>
      <point x="32" y="167" type="curve" smooth="yes"/>
      <point x="32" y="322"/>
      <point x="133" y="494"/>
      <point x="320" y="494" type="curve" smooth="yes"/>
      <point x="357" y="494"/>
      <point x="392" y="476"/>
      <point x="410" y="458" type="curve"/>
      <point x="425" y="482" type="line"/>
      <point x="493" y="482" type="line"/>
      <point x="487" y="467"/>
      <point x="476" y="435"/>
      <point x="474" y="425" type="curve" smooth="yes"/>
      <point x="460" y="372"/>
      <point x="409" y="137"/>
      <point x="409" y="93" type="curve" smooth="yes"/>
      <point x="409" y="58"/>
      <point x="425" y="47"/>
      <point x="452" y="47" type="curve" smooth="yes"/>
      <point x="466" y="47"/>
      <point x="508" y="61"/>
      <point x="518" y="63" type="curve"/>
    </contour>
    <contour>
      <point x="371" y="392" type="line" smooth="yes"/>
      <point x="372" y="399"/>
      <point x="346" y="446"/>
      <point x="334" y="446" type="curve" smooth="yes"/>
      <point x="181" y="446"/>
      <point x="131" y="283"/>
      <point x="131" y="173" type="curve" smooth="yes"/>
      <point x="131" y="117"/>
      <point x="146" y="54"/>
      <point x="208" y="54" type="curve" smooth="yes"/>
      <point x="255" y="54"/>
      <point x="305" y="102"/>
      <point x="319" y="116" type="curve"/>
    </contour>
    <contour>
      <point x="441" y="0" type="line"/>
      <point x="404" y="-29"/>
      <point x="361" y="-72"/>
      <point x="361" y="-123" type="curve" smooth="yes"/>
      <point x="361" y="-147"/>
      <point x="379" y="-157"/>
      <point x="401" y="-157" type="curve" smooth="yes"/>
      <point x="414" y="-157"/>
      <point x="426" y="-155"/>
      <point x="438" y="-152" type="curve"/>
      <point x="429" y="-209" type="line"/>
      <point x="412" y="-213"/>
      <point x="393" y="-216"/>
      <point x="375" y="-216" type="curve" smooth="yes"/>
      <point x="332" y="-216"/>
      <point x="293" y="-199"/>
      <point x="293" y="-150" type="curve" smooth="yes"/>
      <point x="293" y="-91"/>
      <point x="341" y="-33"/>
      <point x="387" y="0" type="curve"/>
    </contour>
  </outline>
</glyph>
<glyph name="ccircumflex" format="1">
  <advance width="435"/>
  <unicode hex="0109"/>
  <outline>
    <contour>
      <point x="403" y="424" type="curve" smooth="yes"/>
      <point x="403" y="398"/>
      <point x="390" y="367"/>
      <point x="326" y="359" type="curve"/>
      <point x="269" y="436" type="line"/>
      <point x="161" y="431"/>
      <point x="127" y="266"/>
      <point x="127" y="186" type="curve" smooth="yes"/>
      <point x="127" y="121"/>
      <point x="150" y="53"/>
      <point x="216" y="53" type="curve" smooth="yes"/>
      <point x="269" y="53"/>
      <point x="325" y="93"/>
      <point x="382" y="149" type="curve"/>
      <point x="382" y="86" type="line"/>
      <point x="341" y="46"/>
      <point x="275" y="-12"/>
      <point x="186" y="-12" type="curve" smooth="yes"/>
      <point x="91" y="-12"/>
      <point x="32" y="55"/>
      <point x="32" y="174" type="curve" smooth="yes"/>
      <point x="32" y="353"/>
      <point x="165" y="494"/>
      <point x="301" y="494" type="curve" smooth="yes"/>
      <point x="373" y="494"/>
      <point x="403" y="454"/>
    </contour>
    <contour>
      <point x="474" y="551" type="line"/>
      <point x="404" y="551" type="line"/>
      <point x="322" y="643" type="line"/>
      <point x="202" y="551" type="line"/>
      <point x="132" y="551" type="line"/>
      <point x="297" y="720" type="line"/>
      <point x="375" y="720" type="line"/>
    </contour>
  </outline>
</glyph>
<glyph name="Eogonek" format="1">
  <advance width="558"/>
  <unicode hex="0118"/>
  <outline>
    <contour>
      <point x="580" y="671" type="line"/>
      <point x="550" y="521" type="line"/>
      <point x="486" y="521" type="line"/>
      <point x="486" y="602" type="line" smooth="yes"/>
      <point x="486" y="616"/>
      <point x="482" y="621"/>
      <point x="467" y="621" type="curve" smooth="yes"/>
      <point x="275" y="621" type="line"/>
      <point x="229" y="375" type="line"/>
      <point x="363" y="375" type="line" smooth="yes"/>
      <point x="377" y="375"/>
      <point x="384" y="380"/>
      <point x="388" y="394" type="curve" smooth="yes"/>
      <point x="407" y="461" type="line"/>
      <point x="463" y="461" type="line"/>
      <point x="419" y="232" type="line"/>
      <point x="362" y="232" type="line"/>
      <point x="372" y="303" type="line" smooth="yes"/>
      <point x="374" y="316"/>
      <point x="367" y="323"/>
      <point x="353" y="323" type="curve" smooth="yes"/>
      <point x="218" y="323" type="line"/>
      <point x="166" y="50" type="line"/>
      <point x="401" y="50" type="line" smooth="yes"/>
      <point x="415" y="50"/>
      <point x="422" y="58"/>
      <point x="426" y="70" type="curve" smooth="yes"/>
      <point x="457" y="166" type="line"/>
      <point x="518" y="166" type="line"/>
      <point x="485" y="0" type="line"/>
      <point x="-15" y="0" type="line"/>
      <point x="-15" y="42" type="line"/>
      <point x="43" y="47" type="line" smooth="yes"/>
      <point x="56" y="48"/>
      <point x="65" y="54"/>
      <point x="67" y="66" type="curve" smooth="yes"/>
      <point x="171" y="604" type="line" smooth="yes"/>
      <point x="173" y="615"/>
      <point x="169" y="623"/>
      <point x="152" y="624" type="curve" smooth="yes"/>
      <point x="96" y="629" type="line"/>
      <point x="96" y="671" type="line"/>
    </contour>
    <contour>
      <point x="401" y="0" type="line"/>
      <point x="364" y="-29"/>
      <point x="321" y="-72"/>
      <point x="321" y="-123" type="curve" smooth="yes"/>
      <point x="321" y="-147"/>
      <point x="339" y="-157"/>
      <point x="361" y="-157" type="curve" smooth="yes"/>
      <point x="374" y="-157"/>
      <point x="386" y="-155"/>
      <point x="398" y="-152" type="curve"/>
      <point x="389" y="-209" type="line"/>
      <point x="372" y="-213"/>
      <point x="353" y="-216"/>
      <point x="335" y="-216" type="curve" smooth="yes"/>
      <point x="292" y="-216"/>
      <point x="253" y="-199"/>
      <point x="253" y="-150" type="curve" smooth="yes"/>
      <point x="253" y="-91"/>
      <point x="301" y="-33"/>
      <point x="347" y="0" type="curve"/>
    </contour>
  </outline>
</glyph>
<glyph name="eogonek" format="1">
  <advance width="434"/>
  <unicode hex="0119"/>
  <outline>
    <contour>
      <point x="278" y="-152" type="curve"/>
      <point x="269" y="-209" type="line"/>
      <point x="252" y="-213"/>
      <point x="233" y="-216"/>
      <point x="215" y="-216" type="curve" smooth="yes"/>
      <point x="172" y="-216"/>
      <point x="133" y="-199"/>
      <point x="133" y="-150" type="curve" smooth="yes"/>
      <point x="133" y="-91"/>
      <point x="181" y="-33"/>
      <point x="227" y="0" type="curve"/>
      <point x="323" y="27" type="line"/>
      <point x="255" y="-10"/>
      <point x="201" y="-72"/>
      <point x="201" y="-123" type="curve" smooth="yes"/>
      <point x="201" y="-147"/>
      <point x="219" y="-157"/>
      <point x="241" y="-157" type="curve" smooth="yes"/>
      <point x="254" y="-157"/>
      <point x="266" y="-155"/>
    </contour>
    <contour>
      <point x="417" y="393" type="curve" smooth="yes"/>
      <point x="417" y="284"/>
      <point x="252" y="227"/>
      <point x="133" y="220" type="curve"/>
      <point x="131" y="207"/>
      <point x="129" y="186"/>
      <point x="129" y="174" type="curve" smooth="yes"/>
      <point x="129" y="101"/>
      <point x="166" y="48"/>
      <point x="224" y="48" type="curve" smooth="yes"/>
      <point x="269" y="48"/>
      <point x="321" y="81"/>
      <point x="394" y="145" type="curve"/>
      <point x="394" y="82" type="line"/>
      <point x="357" y="46"/>
      <point x="282" y="-12"/>
      <point x="191" y="-12" type="curve" smooth="yes"/>
      <point x="130" y="-12"/>
      <point x="32" y="18"/>
      <point x="32" y="170" type="curve" smooth="yes"/>
      <point x="32" y="328"/>
      <point x="153" y="493"/>
      <point x="296" y="493" type="curve" smooth="yes"/>
      <point x="388" y="493"/>
      <point x="417" y="422"/>
    </contour>
    <contour>
      <point x="328" y="394" type="curve" smooth="yes"/>
      <point x="328" y="420"/>
      <point x="307" y="447"/>
      <point x="274" y="447" type="curve" smooth="yes"/>
      <point x="208" y="447"/>
      <point x="155" y="334"/>
      <point x="137" y="258" type="curve"/>
      <point x="222" y="266"/>
      <point x="328" y="323"/>
    </contour>
  </outline>
</glyph>
<glyph name="Gcircumflex" format="1">
  <advance width="687"/>
  <unicode hex="011C"/>
  <outline>
    <contour>
      <point x="675" y="282" type="line"/>
      <point x="618" y="277" type="line" smooth="yes"/>
      <point x="605" y="276"/>
      <point x="596" y="271"/>
      <point x="593" y="258" type="curve" smooth="yes"/>
      <point x="548" y="23" type="line"/>
      <point x="528" y="18"/>
      <point x="415" y="-16"/>
      <point x="332" y="-16" type="curve" smooth="yes"/>
      <point x="104" y="-16"/>
      <point x="48" y="156"/>
      <point x="48" y="268" type="curve" smooth="yes"/>
      <point x="48" y="524"/>
      <point x="264" y="687"/>
      <point x="479" y="687" type="curve" smooth="yes"/>
      <point x="544" y="687"/>
      <point x="588" y="677"/>
      <point x="665" y="653" type="curve"/>
      <point x="634" y="492" type="line"/>
      <point x="566" y="492" type="line"/>
      <point x="569" y="584" type="line" smooth="yes"/>
      <point x="570" y="599"/>
      <point x="562" y="609"/>
      <point x="550" y="612" type="curve" smooth="yes"/>
      <point x="545" y="614"/>
      <point x="515" y="633"/>
      <point x="467" y="633" type="curve" smooth="yes"/>
      <point x="317" y="633"/>
      <point x="158" y="483"/>
      <point x="158" y="252" type="curve" smooth="yes"/>
      <point x="158" y="91"/>
      <point x="280" y="37"/>
      <point x="352" y="37" type="curve" smooth="yes"/>
      <point x="392" y="37"/>
      <point x="437" y="50"/>
      <point x="453" y="54" type="curve"/>
      <point x="492" y="258" type="line" smooth="yes"/>
      <point x="494" y="269"/>
      <point x="490" y="276"/>
      <point x="472" y="277" type="curve" smooth="yes"/>
      <point x="417" y="282" type="line"/>
      <point x="417" y="324" type="line"/>
      <point x="675" y="324" type="line"/>
    </contour>
    <contour>
      <point x="628" y="746" type="line"/>
      <point x="559" y="746" type="line"/>
      <point x="477" y="838" type="line"/>
      <point x="356" y="746" type="line"/>
      <point x="287" y="746" type="line"/>
      <point x="452" y="916" type="line"/>
      <point x="530" y="916" type="line"/>
    </contour>
  </outline>
</glyph>
<glyph name="Ibreve" format="1">
  <advance width="313"/>
  <unicode hex="012C"/>
  <outline>
    <contour>
      <point x="356" y="629" type="line"/>
      <point x="292" y="624" type="line" smooth="yes"/>
      <point x="279" y="623"/>
      <point x="275" y="617"/>
      <point x="272" y="604" type="curve" smooth="yes"/>
      <point x="168" y="66" type="line" smooth="yes"/>
      <point x="166" y="56"/>
      <point x="170" y="48"/>
      <point x="188" y="47" type="curve" smooth="yes"/>
      <point x="246" y="42" type="line"/>
      <point x="246" y="0" type="line"/>
      <point x="-15" y="0" type="line"/>
      <point x="-15" y="42" type="line"/>
      <point x="48" y="47" type="line" smooth="yes"/>
      <point x="60" y="48"/>
      <point x="65" y="54"/>
      <point x="67" y="66" type="curve" smooth="yes"/>
      <point x="171" y="604" type="line" smooth="yes"/>
      <point x="173" y="615"/>
      <point x="169" y="623"/>
      <point x="152" y="624" type="curve" smooth="yes"/>
      <point x="96" y="629" type="line"/>
      <point x="96" y="671" type="line"/>
      <point x="356" y="671" type="line"/>
    </contour>
    <contour>
      <point x="425" y="890" type="line"/>
      <point x="409" y="822"/>
      <point x="349" y="746"/>
      <point x="244" y="746" type="curve" smooth="yes"/>
      <point x="149" y="746"/>
      <point x="113" y="806"/>
      <point x="113" y="863" type="curve" smooth="yes"/>
      <point x="113" y="871"/>
      <point x="114" y="880"/>
      <point x="115" y="890" type="curve"/>
      <point x="167" y="890" type="line"/>
      <point x="170" y="831"/>
      <point x="214" y="812"/>
      <point x="253" y="812" type="curve" smooth="yes"/>
      <point x="294" y="812"/>
      <point x="349" y="832"/>
      <point x="375" y="890" type="curve"/>
    </contour>
  </outline>
</glyph>
<glyph name="Iogonek" format="1">
  <advance width="313"/>
  <unicode hex="012E"/>
  <outline>
    <contour>
      <point x="356" y="629" type="line"/>
      <point x="292" y="624" type="line" smooth="yes"/>
      <point x="279" y="623"/>
      <point x="275" y="617"/>
      <point x="272" y="604" type="curve" smooth="yes"/>
      <point x="168" y="66" type="line" smooth="yes"/>
      <point x="166" y="56"/>
      <point x="170" y="48"/>
      <point x="188" y="47" type="curve" smooth="yes"/>
      <point x="246" y="42" type="line"/>
      <point x="246" y="0" type="line"/>
      <point x="-15" y="0" type="line"/>
      <point x="-15" y="42" type="line"/>
      <point x="48" y="47" type="line" smooth="yes"/>
      <point x="60" y="48"/>
      <point x="65" y="54"/>
      <point x="67" y="66" type="curve" smooth="yes"/>
      <point x="171" y="604" type="line" smooth="yes"/>
      <point x="173" y="615"/>
      <point x="169" y="623"/>
      <point x="152" y="624" type="curve" smooth="yes"/>
      <point x="96" y="629" type="line"/>
      <point x="96" y="671" type="line"/>
      <point x="356" y="671" type="line"/>
    </contour>
    <contour>
      <point x="174" y="0" type="line"/>
      <point x="137" y="-29"/>
      <point x="94" y="-72"/>
      <point x="94" y="-123" type="curve" smooth="yes"/>
      <point x="94" y="-147"/>
      <point x="112" y="-157"/>
      <point x="134" y="-157" type="curve" smooth="yes"/>
      <point x="147" y="-157"/>
      <point x="159" y="-155"/>
      <point x="171" y="-152" type="curve"/>
      <point x="163" y="-209" type="line"/>
      <point x="146" y="-213"/>
      <point x="126" y="-216"/>
      <point x="108" y="-216" type="curve" smooth="yes"/>
      <point x="65" y="-216"/>
      <point x="26" y="-199"/>
      <point x="26" y="-150" type="curve" smooth="yes"/>
      <point x="26" y="-91"/>
      <point x="75" y="-33"/>
      <point x="121" y="0" type="curve"/>
    </contour>
  </outline>
</glyph>
<glyph name="ij" format="1">
  <advance width="539"/>
  <unicode hex="0133"/>
  <outline>
    <contour>
      <point x="259" y="641" type="curve" smooth="yes"/>
      <point x="259" y="612"/>
      <point x="237" y="585"/>
      <point x="198" y="585" type="curve" smooth="yes"/>
      <point x="157" y="585"/>
      <point x="136" y="610"/>
      <point x="136" y="641" type="curve" smooth="yes"/>
      <point x="136" y="667"/>
      <point x="159" y="697"/>
      <point x="199" y="697" type="curve" smooth="yes"/>
      <point x="237" y="697"/>
      <point x="259" y="669"/>
    </contour>
    <contour>
      <point x="263" y="29" type="line"/>
      <point x="248" y="22"/>
      <point x="172" y="-12"/>
      <point x="117" y="-12" type="curve" smooth="yes"/>
      <point x="49" y="-12"/>
      <point x="39" y="40"/>
      <point x="48" y="86" type="curve" smooth="yes"/>
      <point x="112" y="425" type="line"/>
      <point x="26" y="434" type="line"/>
      <point x="26" y="463" type="line"/>
      <point x="177" y="494" type="line"/>
      <point x="218" y="494" type="line"/>
      <point x="142" y="94" type="line" smooth="yes"/>
      <point x="137" y="67"/>
      <point x="154" y="43"/>
      <point x="181" y="43" type="curve" smooth="yes"/>
      <point x="204" y="43"/>
      <point x="250" y="63"/>
      <point x="263" y="67" type="curve"/>
    </contour>
    <contour>
      <point x="532" y="641" type="curve" smooth="yes"/>
      <point x="532" y="617"/>
      <point x="507" y="585"/>
      <point x="470" y="585" type="curve" smooth="yes"/>
      <point x="434" y="585"/>
      <point x="408" y="609"/>
      <point x="408" y="641" type="curve" smooth="yes"/>
      <point x="408" y="671"/>
      <point x="428" y="698"/>
      <point x="470" y="698" type="curve" smooth="yes"/>
      <point x="510" y="698"/>
      <point x="532" y="671"/>
    </contour>
    <contour>
      <point x="497" y="494" type="line"/>
      <point x="426" y="80" type="line" smooth="yes"/>
      <point x="409" y="-20"/>
      <point x="338" y="-229"/>
      <point x="204" y="-229" type="curve" smooth="yes"/>
      <point x="162" y="-229"/>
      <point x="137" y="-206"/>
      <point x="137" y="-176" type="curve" smooth="yes"/>
      <point x="137" y="-151"/>
      <point x="155" y="-137"/>
      <point x="165" y="-131" type="curve"/>
      <point x="265" y="-158" type="line"/>
      <point x="284" y="-137"/>
      <point x="308" y="-67"/>
      <point x="318" y="-12" type="curve" smooth="yes"/>
      <point x="393" y="425" type="line"/>
      <point x="309" y="434" type="line"/>
      <point x="309" y="463" type="line"/>
      <point x="460" y="494" type="line"/>
    </contour>
  </outline>
</glyph>
<glyph name="lacute" format="1">
  <advance width="265"/>
  <unicode hex="013A"/>
  <outline>
    <contour>
      <point x="263" y="26" type="line"/>
      <point x="247" y="20"/>
      <point x="171" y="-12"/>
      <point x="124" y="-12" type="curve" smooth="yes"/>
      <point x="63" y="-12"/>
      <point x="39" y="18"/>
      <point x="39" y="61" type="curve" smooth="yes"/>
      <point x="39" y="71"/>
      <point x="40" y="83"/>
      <point x="42" y="96" type="curve" smooth="yes"/>
      <point x="152" y="668" type="line"/>
      <point x="63" y="677" type="line"/>
      <point x="63" y="707" type="line"/>
      <point x="219" y="737" type="line"/>
      <point x="258" y="737" type="line"/>
      <point x="136" y="99" type="line" smooth="yes"/>
      <point x="131" y="72"/>
      <point x="154" y="44"/>
      <point x="182" y="44" type="curve" smooth="yes"/>
      <point x="201" y="44"/>
      <point x="252" y="61"/>
      <point x="263" y="64" type="curve"/>
    </contour>
    <contour>
      <point x="402" y="923" type="curve" smooth="yes"/>
      <point x="402" y="904"/>
      <point x="393" y="892"/>
      <point x="378" y="882" type="curve" smooth="yes"/>
      <point x="229" y="785" type="line"/>
      <point x="158" y="785" type="line"/>
      <point x="294" y="941" type="line" smooth="yes"/>
      <point x="307" y="956"/>
      <point x="322" y="966"/>
      <point x="352" y="966" type="curve" smooth="yes"/>
      <point x="387" y="966"/>
      <point x="402" y="943"/>
    </contour>
  </outline>
</glyph>
<glyph name="Ncedilla" format="1">
  <advance width="710"/>
  <unicode hex="0145"/>
  <outline>
    <contour>
      <point x="755" y="629" type="line"/>
      <point x="698" y="624" type="line" smooth="yes"/>
      <point x="685" y="623"/>
      <point x="676" y="617"/>
      <point x="673" y="604" type="curve" smooth="yes"/>
      <point x="555" y="0" type="line"/>
      <point x="483" y="0" type="line"/>
      <point x="231" y="531" type="line"/>
      <point x="142" y="66" type="line" smooth="yes"/>
      <point x="140" y="56"/>
      <point x="144" y="48"/>
      <point x="162" y="47" type="curve" smooth="yes"/>
      <point x="218" y="42" type="line"/>
      <point x="218" y="0" type="line"/>
      <point x="-14" y="0" type="line"/>
      <point x="-14" y="42" type="line"/>
      <point x="43" y="47" type="line" smooth="yes"/>
      <point x="56" y="48"/>
      <point x="65" y="54"/>
      <point x="68" y="66" type="curve" smooth="yes"/>
      <point x="171" y="604" type="line" smooth="yes"/>
      <point x="173" y="615"/>
      <point x="169" y="623"/>
      <point x="152" y="624" type="curve" smooth="yes"/>
      <point x="96" y="629" type="line"/>
      <point x="96" y="671" type="line"/>
      <point x="289" y="671" type="line"/>
      <point x="289" y="645" type="line"/>
      <point x="514" y="168" type="line"/>
      <point x="599" y="604" type="line" smooth="yes"/>
      <point x="601" y="615"/>
      <point x="597" y="623"/>
      <point x="580" y="624" type="curve" smooth="yes"/>
      <point x="523" y="629" type="line"/>
      <point x="523" y="671" type="line"/>
      <point x="755" y="671" type="line"/>
    </contour>
    <contour>
      <point x="335" y="-121" type="curve" smooth="yes"/>
      <point x="335" y="-204"/>
      <point x="263" y="-252"/>
      <point x="188" y="-266" type="curve"/>
      <point x="194" y="-232" type="line"/>
      <point x="248" y="-216"/>
      <point x="268" y="-202"/>
      <point x="279" y="-145" type="curve"/>
      <point x="226" y="-145" type="line"/>
      <point x="220" y="-138"/>
      <point x="218" y="-127"/>
      <point x="218" y="-118" type="curve" smooth="yes"/>
      <point x="218" y="-84"/>
      <point x="247" y="-61"/>
      <point x="279" y="-61" type="curve" smooth="yes"/>
      <point x="316" y="-61"/>
      <point x="335" y="-85"/>
    </contour>
  </outline>
</glyph>
<glyph name="obreve" format="1">
  <advance width="505"/>
  <unicode hex="014F"/>
  <outline>
    <contour>
      <point x="475" y="300" type="curve" smooth="yes"/>
      <point x="475" y="138"/>
      <point x="363" y="-12"/>
      <point x="209" y="-12" type="curve" smooth="yes"/>
      <point x="99" y="-12"/>
      <point x="31" y="61"/>
      <point x="31" y="177" type="curve" smooth="yes"/>
      <point x="31" y="339"/>
      <point x="139" y="494"/>
      <point x="296" y="494" type="curve" smooth="yes"/>
      <point x="392" y="494"/>
      <point x="475" y="435"/>
    </contour>
    <contour>
      <point x="374" y="304" type="curve" smooth="yes"/>
      <point x="374" y="399"/>
      <point x="336" y="451"/>
      <point x="285" y="451" type="curve" smooth="yes"/>
      <point x="198" y="451"/>
      <point x="132" y="312"/>
      <point x="132" y="182" type="curve" smooth="yes"/>
      <point x="132" y="83"/>
      <point x="171" y="33"/>
      <point x="221" y="33" type="curve" smooth="yes"/>
      <point x="316" y="33"/>
      <point x="374" y="186"/>
    </contour>
    <contour>
      <point x="501" y="695" type="line"/>
      <point x="485" y="627"/>
      <point x="424" y="551"/>
      <point x="319" y="551" type="curve" smooth="yes"/>
      <point x="224" y="551"/>
      <point x="189" y="611"/>
      <point x="189" y="668" type="curve" smooth="yes"/>
      <point x="189" y="676"/>
      <point x="190" y="685"/>
      <point x="191" y="695" type="curve"/>
      <point x="243" y="695" type="line"/>
      <point x="246" y="636"/>
      <point x="290" y="617"/>
      <point x="329" y="617" type="curve" smooth="yes"/>
      <point x="370" y="617"/>
      <point x="424" y="637"/>
      <point x="450" y="695" type="curve"/>
    </contour>
  </outline>
</glyph>
<glyph name="Rcedilla" format="1">
  <advance width="641"/>
  <unicode hex="0156"/>
  <outline>
    <contour>
      <point x="615" y="0" type="line"/>
      <point x="588" y="-12"/>
      <point x="565" y="-16"/>
      <point x="542" y="-16" type="curve" smooth="yes"/>
      <point x="421" y="-16"/>
      <point x="404" y="71"/>
      <point x="389" y="145" type="curve" smooth="yes"/>
      <point x="373" y="219"/>
      <point x="359" y="296"/>
      <point x="265" y="296" type="curve" smooth="yes"/>
      <point x="248" y="296"/>
      <point x="213" y="295"/>
      <point x="213" y="295" type="curve"/>
      <point x="170" y="66" type="line" smooth="yes"/>
      <point x="168" y="56"/>
      <point x="172" y="48"/>
      <point x="189" y="47" type="curve" smooth="yes"/>
      <point x="247" y="42" type="line"/>
      <point x="247" y="0" type="line"/>
      <point x="-13" y="0" type="line"/>
      <point x="-13" y="42" type="line"/>
      <point x="44" y="47" type="line" smooth="yes"/>
      <point x="57" y="48"/>
      <point x="66" y="54"/>
      <point x="69" y="66" type="curve" smooth="yes"/>
      <point x="171" y="604" type="line" smooth="yes"/>
      <point x="173" y="615"/>
      <point x="169" y="623"/>
      <point x="152" y="624" type="curve" smooth="yes"/>
      <point x="96" y="629" type="line"/>
      <point x="96" y="671" type="line"/>
      <point x="364" y="671" type="line" smooth="yes"/>
      <point x="475" y="671"/>
      <point x="581" y="638"/>
      <point x="581" y="523" type="curve" smooth="yes"/>
      <point x="581" y="415"/>
      <point x="489" y="348"/>
      <point x="377" y="317" type="curve"/>
      <point x="459" y="282"/>
      <point x="468" y="230"/>
      <point x="487" y="154" type="curve" smooth="yes"/>
      <point x="506" y="79"/>
      <point x="530" y="41"/>
      <point x="615" y="41" type="curve"/>
    </contour>
    <contour>
      <point x="468" y="509" type="curve" smooth="yes"/>
      <point x="468" y="606"/>
      <point x="374" y="624"/>
      <point x="297" y="621" type="curve" smooth="yes"/>
      <point x="292" y="621"/>
      <point x="281" y="620"/>
      <point x="275" y="620" type="curve"/>
      <point x="224" y="347" type="line"/>
      <point x="246" y="347" type="line" smooth="yes"/>
      <point x="354" y="347"/>
      <point x="468" y="382"/>
    </contour>
    <contour>
      <point x="276" y="-121" type="curve" smooth="yes"/>
      <point x="276" y="-204"/>
      <point x="204" y="-252"/>
      <point x="129" y="-266" type="curve"/>
      <point x="135" y="-232" type="line"/>
      <point x="189" y="-216"/>
      <point x="209" y="-202"/>
      <point x="220" y="-145" type="curve"/>
      <point x="167" y="-145" type="line"/>
      <point x="161" y="-138"/>
      <point x="159" y="-127"/>
      <point x="159" y="-118" type="curve" smooth="yes"/>
      <point x="159" y="-84"/>
      <point x="188" y="-61"/>
      <point x="220" y="-61" type="curve" smooth="yes"/>
      <point x="257" y="-61"/>
      <point x="276" y="-85"/>
    </contour>
  </outline>
</glyph>
<glyph name="uni0163" format="1">
  <advance width="299"/>
  <unicode hex="0163"/>
  <outline>
    <contour>
      <point x="349" y="419" type="line"/>
      <point x="202" y="419" type="line"/>
      <point x="139" y="105" type="line" smooth="yes"/>
      <point x="132" y="70"/>
      <point x="163" y="49"/>
      <point x="197" y="49" type="curve" smooth="yes"/>
      <point x="235" y="49"/>
      <point x="280" y="66"/>
      <point x="301" y="73" type="curve"/>
      <point x="301" y="33" type="line"/>
      <point x="284" y="26"/>
      <point x="196" y="-12"/>
      <point x="138" y="-12" type="curve" smooth="yes"/>
      <point x="66" y="-12"/>
      <point x="44" y="25"/>
      <point x="44" y="74" type="curve" smooth="yes"/>
      <point x="44" y="87"/>
      <point x="45" y="101"/>
      <point x="48" y="115" type="curve" smooth="yes"/>
      <point x="109" y="419" type="line"/>
      <point x="46" y="413" type="line"/>
      <point x="46" y="446" type="line"/>
      <point x="121" y="479" type="line"/>
      <point x="170" y="579" type="line"/>
      <point x="231" y="579" type="line"/>
      <point x="211" y="465" type="line"/>
      <point x="349" y="465" type="line"/>
    </contour>
    <contour>
      <point x="224" y="-112" type="curve" smooth="yes"/>
      <point x="224" y="-181"/>
      <point x="159" y="-223"/>
      <point x="83" y="-223" type="curve" smooth="yes"/>
      <point x="53" y="-223"/>
      <point x="16" y="-215"/>
      <point x="2" y="-211" type="curve"/>
      <point x="12" y="-171" type="line"/>
      <point x="27" y="-175"/>
      <point x="55" y="-182"/>
      <point x="77" y="-182" type="curve" smooth="yes"/>
      <point x="95" y="-182"/>
      <point x="143" y="-174"/>
      <point x="143" y="-135" type="curve" smooth="yes"/>
      <point x="143" y="-115"/>
      <point x="124" y="-108"/>
      <point x="109" y="-108" type="curve" smooth="yes"/>
      <point x="103" y="-108"/>
      <point x="99" y="-111"/>
      <point x="78" y="-121" type="curve"/>
      <point x="105" y="24" type="line"/>
      <point x="157" y="24" type="line"/>
      <point x="142" y="-61" type="line"/>
      <point x="147" y="-60"/>
      <point x="152" y="-59"/>
      <point x="157" y="-59" type="curve" smooth="yes"/>
      <point x="201" y="-59"/>
      <point x="224" y="-76"/>
    </contour>
  </outline>
</glyph>
<glyph name="tcaron" format="1">
  <advance width="299"/>
  <unicode hex="0165"/>
  <outline>
    <contour>
      <point x="349" y="419" type="line"/>
      <point x="202" y="419" type="line"/>
      <point x="139" y="105" type="line" smooth="yes"/>
      <point x="132" y="70"/>
      <point x="163" y="49"/>
      <point x="197" y="49" type="curve" smooth="yes"/>
      <point x="235" y="49"/>
      <point x="280" y="66"/>
      <point x="301" y="73" type="curve"/>
      <point x="301" y="33" type="line"/>
      <point x="284" y="26"/>
      <point x="196" y="-12"/>
      <point x="138" y="-12" type="curve" smooth="yes"/>
      <point x="66" y="-12"/>
      <point x="44" y="25"/>
      <point x="44" y="74" type="curve" smooth="yes"/>
      <point x="44" y="87"/>
      <point x="45" y="101"/>
      <point x="48" y="115" type="curve" smooth="yes"/>
      <point x="109" y="419" type="line"/>
      <point x="46" y="413" type="line"/>
      <point x="46" y="446" type="line"/>
      <point x="121" y="479" type="line"/>
      <point x="170" y="579" type="line"/>
      <point x="231" y="579" type="line"/>
      <point x="211" y="465" type="line"/>
      <point x="349" y="465" type="line"/>
    </contour>
    <contour>
      <point x="430" y="691" type="curve" smooth="yes"/>
      <point x="430" y="607"/>
      <point x="359" y="560"/>
      <point x="284" y="546" type="curve"/>
      <point x="290" y="579" type="line"/>
      <point x="344" y="596"/>
      <point x="364" y="610"/>
      <point x="375" y="667" type="curve"/>
      <point x="322" y="667" type="line"/>
      <point x="316" y="674"/>
      <point x="313" y="685"/>
      <point x="313" y="694" type="curve" smooth="yes"/>
      <point x="313" y="727"/>
      <point x="343" y="751"/>
      <point x="375" y="751" type="curve" smooth="yes"/>
      <point x="412" y="751"/>
      <point x="430" y="727"/>
    </contour>
  </outline>
</glyph>
<glyph name="utilde" format="1">
  <advance width="526"/>
  <unicode hex="0169"/>
  <outline>
    <contour>
      <point x="524" y="24" type="line"/>
      <point x="499" y="10"/>
      <point x="431" y="-12"/>
      <point x="388" y="-12" type="curve" smooth="yes"/>
      <point x="313" y="-12"/>
      <point x="323" y="47"/>
      <point x="323" y="63" type="curve"/>
      <point x="271" y="13"/>
      <point x="214" y="-12"/>
      <point x="147" y="-12" type="curve" smooth="yes"/>
      <point x="54" y="-12"/>
      <point x="34" y="61"/>
      <point x="45" y="113" type="curve" smooth="yes"/>
      <point x="110" y="425" type="line"/>
      <point x="26" y="434" type="line"/>
      <point x="26" y="463" type="line"/>
      <point x="177" y="494" type="line"/>
      <point x="218" y="494" type="line"/>
      <point x="138" y="113" type="line" smooth="yes"/>
      <point x="131" y="79"/>
      <point x="164" y="50"/>
      <point x="190" y="50" type="curve" smooth="yes"/>
      <point x="238" y="50"/>
      <point x="290" y="79"/>
      <point x="328" y="114" type="curve"/>
      <point x="404" y="482" type="line"/>
      <point x="497" y="482" type="line"/>
      <point x="417" y="97" type="line" smooth="yes"/>
      <point x="408" y="56"/>
      <point x="439" y="41"/>
      <point x="461" y="41" type="curve" smooth="yes"/>
      <point x="474" y="41"/>
      <point x="496" y="43"/>
      <point x="524" y="59" type="curve"/>
    </contour>
    <contour>
      <point x="533" y="691" type="line"/>
      <point x="505" y="633"/>
      <point x="460" y="585"/>
      <point x="388" y="585" type="curve" smooth="yes"/>
      <point x="361" y="585"/>
      <point x="342" y="595"/>
      <point x="321" y="608" type="curve" smooth="yes"/>
      <point x="304" y="619"/>
      <point x="288" y="631"/>
      <point x="257" y="631" type="curve" smooth="yes"/>
      <point x="240" y="631"/>
      <point x="213" y="612"/>
      <point x="202" y="585" type="curve"/>
      <point x="148" y="585" type="line"/>
      <point x="176" y="643"/>
      <point x="220" y="691"/>
      <point x="292" y="691" type="curve" smooth="yes"/>
      <point x="319" y="691"/>
      <point x="338" y="681"/>
      <point x="359" y="667" type="curve" smooth="yes"/>
      <point x="376" y="657"/>
      <point x="392" y="645"/>
      <point x="423" y="645" type="curve" smooth="yes"/>
      <point x="441" y="645"/>
      <point x="468" y="664"/>
      <point x="479" y="691" type="curve"/>
    </contour>
  </outline>
</glyph>
<glyph name="uni0184" format="1">
  <advance width="586"/>
  <unicode hex="0184"/>
  <outline>
    <contour>
      <point x="62" y="468" type="line"/>
      <point x="288" y="684" type="line"/>
      <point x="227" y="368" type="line"/>
      <point x="227" y="368"/>
      <point x="272" y="373"/>
      <point x="301" y="373" type="curve" smooth="yes"/>
      <point x="432" y="373"/>
      <point x="554" y="335"/>
      <point x="554" y="224" type="curve" smooth="yes"/>
      <point x="554" y="27"/>
      <point x="392" y="0"/>
      <point x="211" y="0" type="curve" smooth="yes"/>
      <point x="-28" y="0" type="line"/>
      <point x="-28" y="43" type="line"/>
      <point x="42" y="47" type="line" smooth="yes"/>
      <point x="56" y="48"/>
      <point x="66" y="60"/>
      <point x="67" y="68" type="curve" smooth="yes"/>
      <point x="129" y="387" type="line"/>
    </contour>
    <contour>
      <point x="445" y="214" type="curve" smooth="yes"/>
      <point x="445" y="295"/>
      <point x="387" y="325"/>
      <point x="282" y="325" type="curve" smooth="yes"/>
      <point x="261" y="325"/>
      <point x="217" y="320"/>
      <point x="217" y="320" type="curve"/>
      <point x="164" y="48" type="line"/>
      <point x="164" y="48"/>
      <point x="189" y="46"/>
      <point x="214" y="46" type="curve" smooth="yes"/>
      <point x="357" y="46"/>
      <point x="445" y="95"/>
    </contour>
  </outline>
</glyph>
<glyph name="uni0185" format="1">
  <advance width="492"/>
  <unicode hex="0185"/>
  <outline>
    <contour>
      <point x="460" y="310" type="curve" smooth="yes"/>
      <point x="460" y="186"/>
      <point x="381" y="-12"/>
      <point x="178" y="-12" type="curve" smooth="yes"/>
      <point x="122" y="-12"/>
      <point x="65" y="4"/>
      <point x="18" y="34" type="curve"/>
      <point x="98" y="464" type="line"/>
      <point x="18" y="547" type="line"/>
      <point x="247" y="765" type="line"/>
      <point x="185" y="434" type="line"/>
      <point x="221" y="467"/>
      <point x="274" y="494"/>
      <point x="322" y="494" type="curve" smooth="yes"/>
      <point x="425" y="494"/>
      <point x="460" y="393"/>
    </contour>
    <contour>
      <point x="361" y="306" type="curve" smooth="yes"/>
      <point x="361" y="396"/>
      <point x="313" y="428"/>
      <point x="289" y="428" type="curve" smooth="yes"/>
      <point x="257" y="428"/>
      <point x="208" y="406"/>
      <point x="174" y="377" type="curve"/>
      <point x="118" y="74" type="line"/>
      <point x="131" y="55"/>
      <point x="164" y="35"/>
      <point x="200" y="35" type="curve" smooth="yes"/>
      <point x="292" y="35"/>
      <point x="361" y="186"/>
    </contour>
  </outline>
</glyph>
<glyph name="uni0188" format="1">
  <advance width="435"/>
  <unicode hex="0188"/>
  <outline>
    <contour>
      <point x="530" y="550" type="curve" smooth="yes"/>
      <point x="530" y="515"/>
      <point x="486" y="505"/>
      <point x="486" y="505" type="curve"/>
      <point x="435" y="559" type="line"/>
      <point x="409" y="551"/>
      <point x="400" y="532"/>
      <point x="386" y="463" type="curve"/>
      <point x="398" y="451"/>
      <point x="403" y="437"/>
      <point x="403" y="424" type="curve" smooth="yes"/>
      <point x="403" y="398"/>
      <point x="390" y="367"/>
      <point x="326" y="359" type="curve"/>
      <point x="269" y="436" type="line"/>
      <point x="245" y="435"/>
      <point x="210" y="420"/>
      <point x="181" y="381" type="curve" smooth="yes"/>
      <point x="150" y="341"/>
      <point x="127" y="274"/>
      <point x="127" y="186" type="curve" smooth="yes"/>
      <point x="127" y="121"/>
      <point x="150" y="53"/>
      <point x="216" y="53" type="curve" smooth="yes"/>
      <point x="269" y="53"/>
      <point x="325" y="93"/>
      <point x="382" y="149" type="curve"/>
      <point x="382" y="86" type="line"/>
      <point x="341" y="46"/>
      <point x="275" y="-12"/>
      <point x="186" y="-12" type="curve" smooth="yes"/>
      <point x="91" y="-12"/>
      <point x="32" y="55"/>
      <point x="32" y="174" type="curve" smooth="yes"/>
      <point x="32" y="353"/>
      <point x="165" y="494"/>
      <point x="301" y="494" type="curve" smooth="yes"/>
      <point x="311" y="494"/>
      <point x="320" y="493"/>
      <point x="329" y="492" type="curve"/>
      <point x="352" y="564"/>
      <point x="392" y="599"/>
      <point x="461" y="599" type="curve" smooth="yes"/>
      <point x="511" y="599"/>
      <point x="530" y="578"/>
    </contour>
  </outline>
</glyph>
<glyph name="uni018B" format="1">
  <advance width="616"/>
  <unicode hex="018B"/>
  <outline>
    <contour>
      <point x="347" y="325" type="curve" smooth="yes"/>
      <point x="223" y="325"/>
      <point x="143" y="289"/>
      <point x="143" y="164" type="curve" smooth="yes"/>
      <point x="143" y="93"/>
      <point x="200" y="47"/>
      <point x="288" y="47" type="curve" smooth="yes"/>
      <point x="322" y="47"/>
      <point x="354" y="49"/>
      <point x="367" y="50" type="curve"/>
      <point x="418" y="320" type="line"/>
      <point x="400" y="323"/>
      <point x="375" y="325"/>
    </contour>
    <contour>
      <point x="427" y="364" type="curve"/>
      <point x="474" y="603" type="line" smooth="yes"/>
      <point x="476" y="612"/>
      <point x="472" y="624"/>
      <point x="457" y="624" type="curve" smooth="yes"/>
      <point x="265" y="624" type="line" smooth="yes"/>
      <point x="258" y="624"/>
      <point x="251" y="616"/>
      <point x="247" y="606" type="curve" smooth="yes"/>
      <point x="211" y="515" type="line"/>
      <point x="157" y="515" type="line"/>
      <point x="188" y="671" type="line"/>
      <point x="659" y="671" type="line"/>
      <point x="659" y="629" type="line"/>
      <point x="595" y="624" type="line" smooth="yes"/>
      <point x="582" y="623"/>
      <point x="577" y="617"/>
      <point x="575" y="604" type="curve" smooth="yes"/>
      <point x="471" y="66" type="line" smooth="yes"/>
      <point x="469" y="56"/>
      <point x="473" y="48"/>
      <point x="491" y="47" type="curve" smooth="yes"/>
      <point x="549" y="42" type="line"/>
      <point x="549" y="0" type="line"/>
      <point x="297" y="0" type="line" smooth="yes"/>
      <point x="92" y="0"/>
      <point x="30" y="77"/>
      <point x="30" y="159" type="curve" smooth="yes"/>
      <point x="30" y="318"/>
      <point x="188" y="369"/>
      <point x="340" y="369" type="curve" smooth="yes"/>
      <point x="380" y="369"/>
      <point x="396" y="366"/>
    </contour>
  </outline>
</glyph>
<glyph name="uni018F" format="1">
  <advance width="601"/>
  <unicode hex="018F"/>
  <outline>
    <contour>
      <point x="583" y="430" type="curve" smooth="yes"/>
      <point x="583" y="204"/>
      <point x="464" y="-16"/>
      <point x="212" y="-16" type="curve" smooth="yes"/>
      <point x="59" y="-16"/>
      <point x="21" y="94"/>
      <point x="21" y="132" type="curve" smooth="yes"/>
      <point x="21" y="291"/>
      <point x="157" y="377"/>
      <point x="470" y="378" type="curve"/>
      <point x="472" y="394"/>
      <point x="473" y="408"/>
      <point x="473" y="425" type="curve" smooth="yes"/>
      <point x="473" y="528"/>
      <point x="412" y="630"/>
      <point x="317" y="630" type="curve" smooth="yes"/>
      <point x="224" y="630"/>
      <point x="150" y="555"/>
      <point x="83" y="500" type="curve"/>
      <point x="83" y="577" type="line"/>
      <point x="166" y="653"/>
      <point x="215" y="687"/>
      <point x="335" y="687" type="curve" smooth="yes"/>
      <point x="426" y="687"/>
      <point x="583" y="621"/>
    </contour>
    <contour>
      <point x="462" y="322" type="curve"/>
      <point x="220" y="320"/>
      <point x="142" y="233"/>
      <point x="142" y="131" type="curve" smooth="yes"/>
      <point x="142" y="90"/>
      <point x="190" y="37"/>
      <point x="232" y="37" type="curve" smooth="yes"/>
      <point x="340" y="37"/>
      <point x="427" y="171"/>
    </contour>
  </outline>
</glyph>
<glyph name="uni0199" format="1">
  <advance width="508"/>
  <unicode hex="0199"/>
  <outline>
    <contour>
      <point x="497" y="23" type="line"/>
      <point x="464" y="6"/>
      <point x="405" y="-12"/>
      <point x="373" y="-12" type="curve" smooth="yes"/>
      <point x="341" y="-12"/>
      <point x="309" y="11"/>
      <point x="293" y="35" type="curve" smooth="yes"/>
      <point x="266" y="76"/>
      <point x="213" y="200"/>
      <point x="192" y="244" type="curve"/>
      <point x="146" y="203" type="line"/>
      <point x="105" y="0" type="line"/>
      <point x="13" y="0" type="line"/>
      <point x="110" y="491" type="line" smooth="yes"/>
      <point x="122" y="548"/>
      <point x="135" y="587"/>
      <point x="164" y="629" type="curve" smooth="yes"/>
      <point x="220" y="709"/>
      <point x="299" y="737"/>
      <point x="377" y="737" type="curve" smooth="yes"/>
      <point x="439" y="737"/>
      <point x="458" y="705"/>
      <point x="452" y="676" type="curve" smooth="yes"/>
      <point x="444" y="631"/>
      <point x="385" y="618"/>
      <point x="385" y="618" type="curve"/>
      <point x="337" y="682" type="line"/>
      <point x="278" y="681"/>
      <point x="233" y="629"/>
      <point x="214" y="537" type="curve" smooth="yes"/>
      <point x="160" y="272" type="line"/>
      <point x="322" y="439" type="line" smooth="yes"/>
      <point x="360" y="478"/>
      <point x="382" y="494"/>
      <point x="417" y="494" type="curve" smooth="yes"/>
      <point x="462" y="494"/>
      <point x="483" y="465"/>
      <point x="482" y="440" type="curve" smooth="yes"/>
      <point x="482" y="417"/>
      <point x="462" y="390"/>
      <point x="415" y="374" type="curve"/>
      <point x="381" y="410" type="line"/>
      <point x="344" y="382"/>
      <point x="293" y="337"/>
      <point x="262" y="309" type="curve"/>
      <point x="280" y="275"/>
      <point x="302" y="203"/>
      <point x="332" y="149" type="curve" smooth="yes"/>
      <point x="362" y="93"/>
      <point x="400" y="42"/>
      <point x="435" y="42" type="curve" smooth="yes"/>
      <point x="449" y="42"/>
      <point x="480" y="49"/>
      <point x="497" y="57" type="curve"/>
    </contour>
  </outline>
</glyph>
<glyph name="uni019B" format="1">
  <advance width="566"/>
  <unicode hex="019B"/>
  <outline>
    <contour>
      <point x="363" y="665" type="line"/>
      <point x="276" y="588" type="line"/>
      <point x="369" y="143" type="line" smooth="yes"/>
      <point x="389" y="49"/>
      <point x="396" y="35"/>
      <point x="444" y="35" type="curve"/>
      <point x="511" y="140" type="line"/>
      <point x="550" y="140"/>
      <point x="574" y="107"/>
      <point x="574" y="80" type="curve" smooth="yes"/>
      <point x="574" y="14"/>
      <point x="498" y="-12"/>
      <point x="413" y="-12" type="curve" smooth="yes"/>
      <point x="345" y="-12"/>
      <point x="325" y="33"/>
      <point x="310" y="110" type="curve" smooth="yes"/>
      <point x="263" y="337" type="line"/>
      <point x="63" y="0" type="line"/>
      <point x="-34" y="0" type="line"/>
      <point x="238" y="456" type="line"/>
      <point x="219" y="539" type="line"/>
      <point x="99" y="433" type="line"/>
      <point x="99" y="504" type="line"/>
      <point x="206" y="599" type="line"/>
      <point x="189" y="677"/>
      <point x="180" y="690"/>
      <point x="136" y="690" type="curve"/>
      <point x="69" y="585" type="line"/>
      <point x="29" y="585"/>
      <point x="6" y="618"/>
      <point x="6" y="645" type="curve" smooth="yes"/>
      <point x="6" y="711"/>
      <point x="82" y="737"/>
      <point x="167" y="737" type="curve" smooth="yes"/>
      <point x="224" y="737"/>
      <point x="247" y="704"/>
      <point x="263" y="648" type="curve"/>
      <point x="363" y="736" type="line"/>
    </contour>
  </outline>
</glyph>
<glyph name="uni019D" format="1">
  <advance width="769"/>
  <unicode hex="019D"/>
  <outline>
    <contour>
      <point x="290" y="531" type="line"/>
      <point x="186" y="-14" type="line" smooth="yes"/>
      <point x="164" y="-132"/>
      <point x="90" y="-229"/>
      <point x="-14" y="-229" type="curve" smooth="yes"/>
      <point x="-88" y="-229"/>
      <point x="-102" y="-198"/>
      <point x="-102" y="-172" type="curve" smooth="yes"/>
      <point x="-102" y="-142"/>
      <point x="-74" y="-110"/>
      <point x="-43" y="-105" type="curve"/>
      <point x="25" y="-172" type="line"/>
      <point x="75" y="-153"/>
      <point x="95" y="-97"/>
      <point x="114" y="1" type="curve" smooth="yes"/>
      <point x="229" y="604" type="line" smooth="yes"/>
      <point x="231" y="615"/>
      <point x="227" y="623"/>
      <point x="210" y="624" type="curve" smooth="yes"/>
      <point x="155" y="629" type="line"/>
      <point x="155" y="671" type="line"/>
      <point x="348" y="671" type="line"/>
      <point x="348" y="645" type="line"/>
      <point x="573" y="168" type="line"/>
      <point x="658" y="604" type="line" smooth="yes"/>
      <point x="660" y="615"/>
      <point x="656" y="623"/>
      <point x="639" y="624" type="curve" smooth="yes"/>
      <point x="582" y="629" type="line"/>
      <point x="582" y="671" type="line"/>
      <point x="813" y="671" type="line"/>
      <point x="813" y="629" type="line"/>
      <point x="757" y="624" type="line" smooth="yes"/>
      <point x="744" y="623"/>
      <point x="734" y="617"/>
      <point x="731" y="604" type="curve" smooth="yes"/>
      <point x="614" y="0" type="line"/>
      <point x="542" y="0" type="line"/>
    </contour>
  </outline>
</glyph>
<glyph name="uni01A4" format="1">
  <advance width="607"/>
  <unicode hex="01A4"/>
  <outline>
    <contour>
      <point x="600" y="511" type="curve" smooth="yes"/>
      <point x="600" y="350"/>
      <point x="469" y="250"/>
      <point x="295" y="250" type="curve" smooth="yes"/>
      <point x="275" y="250"/>
      <point x="231" y="252"/>
      <point x="231" y="252" type="curve"/>
      <point x="195" y="66" type="line" smooth="yes"/>
      <point x="193" y="56"/>
      <point x="197" y="48"/>
      <point x="214" y="47" type="curve" smooth="yes"/>
      <point x="272" y="42" type="line"/>
      <point x="272" y="0" type="line"/>
      <point x="12" y="0" type="line"/>
      <point x="12" y="42" type="line"/>
      <point x="69" y="47" type="line" smooth="yes"/>
      <point x="82" y="48"/>
      <point x="91" y="54"/>
      <point x="94" y="66" type="curve" smooth="yes"/>
      <point x="195" y="585" type="line"/>
      <point x="198" y="603" type="line" smooth="yes"/>
      <point x="201" y="616"/>
      <point x="195" y="624"/>
      <point x="182" y="624" type="curve" smooth="yes"/>
      <point x="159" y="624" type="line" smooth="yes"/>
      <point x="124" y="624"/>
      <point x="109" y="616"/>
      <point x="95" y="600" type="curve"/>
      <point x="123" y="529" type="line"/>
      <point x="99" y="508"/>
      <point x="77" y="499"/>
      <point x="53" y="499" type="curve" smooth="yes"/>
      <point x="27" y="499"/>
      <point x="9" y="523"/>
      <point x="9" y="551" type="curve" smooth="yes"/>
      <point x="9" y="645"/>
      <point x="104" y="671"/>
      <point x="180" y="671" type="curve" smooth="yes"/>
      <point x="372" y="671" type="line" smooth="yes"/>
      <point x="535" y="671"/>
      <point x="600" y="604"/>
    </contour>
    <contour>
      <point x="496" y="494" type="curve" smooth="yes"/>
      <point x="496" y="571"/>
      <point x="455" y="624"/>
      <point x="340" y="624" type="curve" smooth="yes"/>
      <point x="329" y="624"/>
      <point x="312" y="623"/>
      <point x="303" y="622" type="curve"/>
      <point x="241" y="304" type="line"/>
      <point x="299" y="299"/>
      <point x="360" y="307"/>
      <point x="408" y="336" type="curve" smooth="yes"/>
      <point x="457" y="366"/>
      <point x="496" y="416"/>
    </contour>
  </outline>
</glyph>
<glyph name="uni01B7" format="1">
  <advance width="573"/>
  <unicode hex="01B7"/>
  <outline>
    <contour>
      <point x="573" y="602" type="line"/>
      <point x="267" y="293" type="line"/>
      <point x="381" y="293"/>
      <point x="508" y="210"/>
      <point x="508" y="94" type="curve" smooth="yes"/>
      <point x="508" y="-64"/>
      <point x="344" y="-229"/>
      <point x="146" y="-229" type="curve" smooth="yes"/>
      <point x="-10" y="-229"/>
      <point x="-65" y="-149"/>
      <point x="-65" y="-104" type="curve" smooth="yes"/>
      <point x="-65" y="-60"/>
      <point x="-33" y="-12"/>
      <point x="18" y="-12" type="curve" smooth="yes"/>
      <point x="25" y="-12"/>
      <point x="56" y="-12"/>
      <point x="65" y="-21" type="curve"/>
      <point x="78" y="-133" type="line"/>
      <point x="105" y="-153"/>
      <point x="132" y="-162"/>
      <point x="167" y="-162" type="curve" smooth="yes"/>
      <point x="285" y="-162"/>
      <point x="385" y="-31"/>
      <point x="385" y="92" type="curve" smooth="yes"/>
      <point x="385" y="194"/>
      <point x="274" y="238"/>
      <point x="220" y="238" type="curve" smooth="yes"/>
      <point x="198" y="238"/>
      <point x="185" y="231"/>
      <point x="173" y="222" type="curve"/>
      <point x="144" y="264" type="line"/>
      <point x="458" y="576" type="line"/>
      <point x="187" y="576" type="line" smooth="yes"/>
      <point x="180" y="576"/>
      <point x="166" y="570"/>
      <point x="163" y="559" type="curve" smooth="yes"/>
      <point x="129" y="458" type="line"/>
      <point x="68" y="458" type="line"/>
      <point x="109" y="671" type="line"/>
      <point x="573" y="671" type="line"/>
    </contour>
  </outline>
</glyph>
<glyph name="uni01BC" format="1">
  <advance width="544"/>
  <unicode hex="01BC"/>
  <outline>
    <contour>
      <point x="248" y="598" type="curve" smooth="yes"/>
      <point x="221" y="459" type="line"/>
      <point x="339" y="459"/>
      <point x="499" y="396"/>
      <point x="499" y="236" type="curve" smooth="yes"/>
      <point x="499" y="78"/>
      <point x="364" y="-16"/>
      <point x="183" y="-16" type="curve" smooth="yes"/>
      <point x="81" y="-16"/>
      <point x="14" y="38"/>
      <point x="14" y="102" type="curve" smooth="yes"/>
      <point x="14" y="135"/>
      <point x="46" y="159"/>
      <point x="82" y="159" type="curve" smooth="yes"/>
      <point x="93" y="159"/>
      <point x="109" y="155"/>
      <point x="112" y="154" type="curve" smooth="yes"/>
      <point x="128" y="62" type="line"/>
      <point x="141" y="47"/>
      <point x="180" y="34"/>
      <point x="217" y="34" type="curve" smooth="yes"/>
      <point x="306" y="34"/>
      <point x="395" y="121"/>
      <point x="395" y="212" type="curve" smooth="yes"/>
      <point x="395" y="322"/>
      <point x="277" y="378"/>
      <point x="116" y="378" type="curve"/>
      <point x="159" y="598" type="line" smooth="yes"/>
      <point x="160" y="606"/>
      <point x="156" y="617"/>
      <point x="142" y="619" type="curve" smooth="yes"/>
      <point x="91" y="623" type="line"/>
      <point x="100" y="671" type="line"/>
      <point x="583" y="671" type="line"/>
      <point x="553" y="515" type="line"/>
      <point x="499" y="515" type="line"/>
      <point x="503" y="600" type="line" smooth="yes"/>
      <point x="503" y="610"/>
      <point x="499" y="619"/>
      <point x="490" y="619" type="curve" smooth="yes"/>
      <point x="273" y="619" type="line" smooth="yes"/>
      <point x="259" y="619"/>
      <point x="249" y="606"/>
    </contour>
  </outline>
</glyph>
<glyph name="uni01C2" format="1">
  <advance width="436"/>
  <unicode hex="01C2"/>
  <outline>
    <contour>
      <point x="49" y="302" type="line"/>
      <point x="49" y="353" type="line"/>
      <point x="417" y="353" type="line"/>
      <point x="417" y="302" type="line"/>
    </contour>
    <contour>
      <point x="20" y="167" type="line"/>
      <point x="20" y="218" type="line"/>
      <point x="387" y="218" type="line"/>
      <point x="387" y="167" type="line"/>
    </contour>
    <contour>
      <point x="149" y="-215" type="line"/>
      <point x="93" y="-215" type="line"/>
      <point x="274" y="736" type="line"/>
      <point x="330" y="736" type="line"/>
    </contour>
  </outline>
</glyph>
<glyph name="uni01CA" format="1">
  <advance width="1178"/>
  <unicode hex="01CA"/>
  <outline>
    <contour>
      <point x="755" y="629" type="line"/>
      <point x="698" y="624" type="line" smooth="yes"/>
      <point x="685" y="623"/>
      <point x="676" y="617"/>
      <point x="673" y="604" type="curve" smooth="yes"/>
      <point x="555" y="0" type="line"/>
      <point x="483" y="0" type="line"/>
      <point x="231" y="531" type="line"/>
      <point x="142" y="66" type="line" smooth="yes"/>
      <point x="140" y="56"/>
      <point x="144" y="48"/>
      <point x="162" y="47" type="curve" smooth="yes"/>
      <point x="218" y="42" type="line"/>
      <point x="218" y="0" type="line"/>
      <point x="-14" y="0" type="line"/>
      <point x="-14" y="42" type="line"/>
      <point x="43" y="47" type="line" smooth="yes"/>
      <point x="56" y="48"/>
      <point x="65" y="54"/>
      <point x="68" y="66" type="curve" smooth="yes"/>
      <point x="171" y="604" type="line" smooth="yes"/>
      <point x="173" y="615"/>
      <point x="169" y="623"/>
      <point x="152" y="624" type="curve" smooth="yes"/>
      <point x="96" y="629" type="line"/>
      <point x="96" y="671" type="line"/>
      <point x="289" y="671" type="line"/>
      <point x="289" y="645" type="line"/>
      <point x="514" y="168" type="line"/>
      <point x="599" y="604" type="line" smooth="yes"/>
      <point x="601" y="615"/>
      <point x="597" y="623"/>
      <point x="580" y="624" type="curve" smooth="yes"/>
      <point x="523" y="629" type="line"/>
      <point x="523" y="671" type="line"/>
      <point x="755" y="671" type="line"/>
    </contour>
    <contour>
      <point x="1218" y="629" type="line"/>
      <point x="1161" y="624" type="line" smooth="yes"/>
      <point x="1148" y="623"/>
      <point x="1139" y="617"/>
      <point x="1136" y="604" type="curve" smooth="yes"/>
      <point x="1072" y="256" type="line" smooth="yes"/>
      <point x="1042" y="91"/>
      <point x="994" y="-16"/>
      <point x="823" y="-16" type="curve" smooth="yes"/>
      <point x="744" y="-16"/>
      <point x="701" y="9"/>
      <point x="691" y="14" type="curve"/>
      <point x="724" y="185" type="line"/>
      <point x="790" y="185" type="line"/>
      <point x="790" y="63" type="line" smooth="yes"/>
      <point x="790" y="46"/>
      <point x="809" y="36"/>
      <point x="830" y="36" type="curve" smooth="yes"/>
      <point x="915" y="36"/>
      <point x="945" y="113"/>
      <point x="969" y="247" type="curve" smooth="yes"/>
      <point x="1035" y="604" type="line" smooth="yes"/>
      <point x="1037" y="615"/>
      <point x="1033" y="623"/>
      <point x="1016" y="624" type="curve" smooth="yes"/>
      <point x="958" y="629" type="line"/>
      <point x="958" y="671" type="line"/>
      <point x="1218" y="671" type="line"/>
    </contour>
  </outline>
</glyph>
<glyph name="icaron" format="1">
  <advance width="266"/>
  <unicode hex="01D0"/>
  <outline>
    <contour>
      <point x="263" y="29" type="line"/>
      <point x="248" y="22"/>
      <point x="172" y="-12"/>
      <point x="117" y="-12" type="curve" smooth="yes"/>
      <point x="49" y="-12"/>
      <point x="39" y="40"/>
      <point x="48" y="86" type="curve" smooth="yes"/>
      <point x="112" y="425" type="line"/>
      <point x="26" y="434" type="line"/>
      <point x="26" y="463" type="line"/>
      <point x="177" y="494" type="line"/>
      <point x="218" y="494" type="line"/>
      <point x="142" y="94" type="line" smooth="yes"/>
      <point x="137" y="67"/>
      <point x="154" y="43"/>
      <point x="181" y="43" type="curve" smooth="yes"/>
      <point x="204" y="43"/>
      <point x="250" y="63"/>
      <point x="263" y="67" type="curve"/>
    </contour>
    <contour>
      <point x="395" y="720" type="line"/>
      <point x="229" y="551" type="line"/>
      <point x="149" y="551" type="line"/>
      <point x="51" y="720" type="line"/>
      <point x="122" y="720" type="line"/>
      <point x="205" y="628" type="line"/>
      <point x="323" y="720" type="line"/>
    </contour>
  </outline>
</glyph>
<glyph name="uni01E1" format="1">
  <advance width="520"/>
  <unicode hex="01E1"/>
  <outline>
    <contour>
      <point x="518" y="27" type="line"/>
      <point x="502" y="20"/>
      <point x="427" y="-12"/>
      <point x="388" y="-12" type="curve" smooth="yes"/>
      <point x="340" y="-12"/>
      <point x="323" y="12"/>
      <point x="319" y="56" type="curve"/>
      <point x="289" y="28"/>
      <point x="237" y="-12"/>
      <point x="177" y="-12" type="curve" smooth="yes"/>
      <point x="59" y="-12"/>
      <point x="32" y="95"/>
      <point x="32" y="167" type="curve" smooth="yes"/>
      <point x="32" y="322"/>
      <point x="133" y="494"/>
      <point x="320" y="494" type="curve" smooth="yes"/>
      <point x="357" y="494"/>
      <point x="392" y="476"/>
      <point x="410" y="458" type="curve"/>
      <point x="425" y="482" type="line"/>
      <point x="493" y="482" type="line"/>
      <point x="487" y="467"/>
      <point x="476" y="435"/>
      <point x="474" y="425" type="curve" smooth="yes"/>
      <point x="460" y="372"/>
      <point x="409" y="137"/>
      <point x="409" y="93" type="curve" smooth="yes"/>
      <point x="409" y="58"/>
      <point x="425" y="47"/>
      <point x="452" y="47" type="curve" smooth="yes"/>
      <point x="466" y="47"/>
      <point x="508" y="61"/>
      <point x="518" y="63" type="curve"/>
    </contour>
    <contour>
      <point x="371" y="392" type="line" smooth="yes"/>
      <point x="372" y="399"/>
      <point x="346" y="446"/>
      <point x="334" y="446" type="curve" smooth="yes"/>
      <point x="181" y="446"/>
      <point x="131" y="283"/>
      <point x="131" y="173" type="curve" smooth="yes"/>
      <point x="131" y="117"/>
      <point x="146" y="54"/>
      <point x="208" y="54" type="curve" smooth="yes"/>
      <point x="255" y="54"/>
      <point x="305" y="102"/>
      <point x="319" y="116" type="curve"/>
    </contour>
    <contour>
      <point x="559" y="847" type="line"/>
      <point x="546" y="781" type="line"/>
      <point x="244" y="781" type="line"/>
      <point x="258" y="847" type="line"/>
    </contour>
    <contour>
      <point x="421" y="641" type="curve" smooth="yes"/>
      <point x="421" y="610"/>
      <point x="396" y="585"/>
      <point x="365" y="585" type="curve" smooth="yes"/>
      <point x="334" y="585"/>
      <point x="310" y="610"/>
      <point x="310" y="641" type="curve" smooth="yes"/>
      <point x="310" y="672"/>
      <point x="333" y="698"/>
      <point x="365" y="698" type="curve" smooth="yes"/>
      <point x="396" y="698"/>
      <point x="421" y="673"/>
    </contour>
  </outline>
</glyph>
<glyph name="uni01EC" format="1">
  <advance width="709"/>
  <unicode hex="01EC"/>
  <outline>
    <contour>
      <point x="691" y="417" type="curve" smooth="yes"/>
      <point x="691" y="206"/>
      <point x="555" y="-16"/>
      <point x="320" y="-16" type="curve" smooth="yes"/>
      <point x="160" y="-16"/>
      <point x="48" y="94"/>
      <point x="48" y="262" type="curve" smooth="yes"/>
      <point x="48" y="477"/>
      <point x="200" y="687"/>
      <point x="420" y="687" type="curve" smooth="yes"/>
      <point x="586" y="687"/>
      <point x="691" y="566"/>
    </contour>
    <contour>
      <point x="577" y="417" type="curve" smooth="yes"/>
      <point x="577" y="550"/>
      <point x="507" y="637"/>
      <point x="411" y="637" type="curve" smooth="yes"/>
      <point x="265" y="637"/>
      <point x="161" y="431"/>
      <point x="161" y="254" type="curve" smooth="yes"/>
      <point x="161" y="119"/>
      <point x="234" y="36"/>
      <point x="327" y="36" type="curve" smooth="yes"/>
      <point x="473" y="36"/>
      <point x="577" y="247"/>
    </contour>
    <contour>
      <point x="610" y="847" type="line"/>
      <point x="597" y="781" type="line"/>
      <point x="294" y="781" type="line"/>
      <point x="309" y="847" type="line"/>
    </contour>
    <contour>
      <point x="413" y="0" type="line"/>
      <point x="376" y="-29"/>
      <point x="333" y="-72"/>
      <point x="333" y="-123" type="curve" smooth="yes"/>
      <point x="333" y="-147"/>
      <point x="351" y="-157"/>
      <point x="373" y="-157" type="curve" smooth="yes"/>
      <point x="386" y="-157"/>
      <point x="398" y="-155"/>
      <point x="410" y="-152" type="curve"/>
      <point x="401" y="-209" type="line"/>
      <point x="384" y="-213"/>
      <point x="365" y="-216"/>
      <point x="347" y="-216" type="curve" smooth="yes"/>
      <point x="304" y="-216"/>
      <point x="265" y="-199"/>
      <point x="265" y="-150" type="curve" smooth="yes"/>
      <point x="265" y="-91"/>
      <point x="313" y="-33"/>
      <point x="359" y="0" type="curve"/>
    </contour>
  </outline>
</glyph>
<glyph name="uni01F2" format="1">
  <advance width="1115"/>
  <unicode hex="01F2"/>
  <outline>
    <contour>
      <point x="653" y="415" type="curve" smooth="yes"/>
      <point x="653" y="169"/>
      <point x="476" y="0"/>
      <point x="220" y="0" type="curve" smooth="yes"/>
      <point x="-15" y="0" type="line"/>
      <point x="-15" y="42" type="line"/>
      <point x="47" y="47" type="line" smooth="yes"/>
      <point x="60" y="48"/>
      <point x="64" y="54"/>
      <point x="67" y="66" type="curve" smooth="yes"/>
      <point x="171" y="604" type="line" smooth="yes"/>
      <point x="173" y="615"/>
      <point x="169" y="623"/>
      <point x="151" y="624" type="curve" smooth="yes"/>
      <point x="95" y="629" type="line"/>
      <point x="95" y="671" type="line"/>
      <point x="334" y="671" type="line" smooth="yes"/>
      <point x="516" y="671"/>
      <point x="653" y="605"/>
    </contour>
    <contour>
      <point x="545" y="424" type="curve" smooth="yes"/>
      <point x="545" y="591"/>
      <point x="435" y="617"/>
      <point x="311" y="621" type="curve"/>
      <point x="275" y="621" type="line"/>
      <point x="165" y="52" type="line"/>
      <point x="238" y="52" type="line" smooth="yes"/>
      <point x="440" y="54"/>
      <point x="545" y="234"/>
    </contour>
    <contour>
      <point x="1121" y="468" type="line"/>
      <point x="782" y="71" type="line"/>
      <point x="866" y="93" type="line"/>
      <point x="893" y="83"/>
      <point x="940" y="59"/>
      <point x="967" y="59" type="curve" smooth="yes"/>
      <point x="995" y="59"/>
      <point x="1009" y="78"/>
      <point x="1020" y="92" type="curve"/>
      <point x="965" y="153" type="line"/>
      <point x="978" y="177"/>
      <point x="1003" y="191"/>
      <point x="1021" y="191" type="curve" smooth="yes"/>
      <point x="1057" y="191"/>
      <point x="1078" y="158"/>
      <point x="1078" y="129" type="curve" smooth="yes"/>
      <point x="1078" y="48"/>
      <point x="998" y="-12"/>
      <point x="933" y="-12" type="curve" smooth="yes"/>
      <point x="872" y="-12"/>
      <point x="824" y="31"/>
      <point x="775" y="31" type="curve" smooth="yes"/>
      <point x="770" y="31"/>
      <point x="758" y="30"/>
      <point x="749" y="21" type="curve" smooth="yes"/>
      <point x="724" y="-26" type="line"/>
      <point x="655" y="11" type="line"/>
      <point x="994" y="408" type="line"/>
      <point x="906" y="389" type="line"/>
      <point x="879" y="404"/>
      <point x="848" y="418"/>
      <point x="821" y="418" type="curve" smooth="yes"/>
      <point x="804" y="418"/>
      <point x="778" y="407"/>
      <point x="767" y="389" type="curve"/>
      <point x="820" y="325" type="line"/>
      <point x="815" y="317"/>
      <point x="793" y="292"/>
      <point x="765" y="292" type="curve" smooth="yes"/>
      <point x="727" y="292"/>
      <point x="710" y="326"/>
      <point x="710" y="351" type="curve" smooth="yes"/>
      <point x="710" y="412"/>
      <point x="763" y="494"/>
      <point x="851" y="494" type="curve" smooth="yes"/>
      <point x="911" y="494"/>
      <point x="961" y="444"/>
      <point x="1001" y="444" type="curve" smooth="yes"/>
      <point x="1005" y="444"/>
      <point x="1012" y="445"/>
      <point x="1024" y="451" type="curve"/>
      <point x="1046" y="507" type="line"/>
    </contour>
  </outline>
</glyph>
<glyph name="uni01F6" format="1">
  <advance width="1004"/>
  <unicode hex="01F6"/>
  <outline>
    <contour>
      <point x="495" y="146" type="curve" smooth="yes"/>
      <point x="530" y="326" type="line"/>
      <point x="218" y="326" type="line"/>
      <point x="168" y="66" type="line" smooth="yes"/>
      <point x="166" y="56"/>
      <point x="170" y="48"/>
      <point x="187" y="47" type="curve" smooth="yes"/>
      <point x="245" y="42" type="line"/>
      <point x="245" y="0" type="line"/>
      <point x="-15" y="0" type="line"/>
      <point x="-15" y="42" type="line"/>
      <point x="42" y="47" type="line" smooth="yes"/>
      <point x="55" y="48"/>
      <point x="64" y="54"/>
      <point x="67" y="66" type="curve" smooth="yes"/>
      <point x="171" y="604" type="line" smooth="yes"/>
      <point x="173" y="615"/>
      <point x="169" y="623"/>
      <point x="151" y="624" type="curve" smooth="yes"/>
      <point x="95" y="629" type="line"/>
      <point x="95" y="671" type="line"/>
      <point x="355" y="671" type="line"/>
      <point x="355" y="629" type="line"/>
      <point x="296" y="624" type="line" smooth="yes"/>
      <point x="284" y="623"/>
      <point x="274" y="617"/>
      <point x="272" y="604" type="curve" smooth="yes"/>
      <point x="228" y="376" type="line"/>
      <point x="540" y="376" type="line"/>
      <point x="584" y="604" type="line" smooth="yes"/>
      <point x="586" y="615"/>
      <point x="582" y="623"/>
      <point x="564" y="624" type="curve" smooth="yes"/>
      <point x="507" y="629" type="line"/>
      <point x="507" y="671" type="line"/>
      <point x="767" y="671" type="line"/>
      <point x="767" y="629" type="line"/>
      <point x="709" y="624" type="line" smooth="yes"/>
      <point x="697" y="623"/>
      <point x="687" y="617"/>
      <point x="685" y="604" type="curve" smooth="yes"/>
      <point x="597" y="150" type="line" smooth="yes"/>
      <point x="576" y="52"/>
      <point x="630" y="50"/>
      <point x="656" y="50" type="curve" smooth="yes"/>
      <point x="704" y="50"/>
      <point x="767" y="74"/>
      <point x="782" y="149" type="curve" smooth="yes"/>
      <point x="850" y="482" type="line"/>
      <point x="943" y="482" type="line"/>
      <point x="878" y="167" type="line" smooth="yes"/>
      <point x="855" y="58"/>
      <point x="732" y="-12"/>
      <point x="623" y="-12" type="curve" smooth="yes"/>
      <point x="530" y="-12"/>
      <point x="472" y="32"/>
    </contour>
  </outline>
</glyph>
<glyph name="uni01F7" format="1">
  <advance width="552"/>
  <unicode hex="01F7"/>
  <outline>
    <contour>
      <point x="562" y="497" type="curve" smooth="yes"/>
      <point x="562" y="301"/>
      <point x="308" y="97"/>
      <point x="145" y="24" type="curve"/>
      <point x="110" y="-152" type="line" smooth="yes"/>
      <point x="108" y="-162"/>
      <point x="112" y="-170"/>
      <point x="130" y="-171" type="curve" smooth="yes"/>
      <point x="187" y="-176" type="line"/>
      <point x="187" y="-218" type="line"/>
      <point x="-73" y="-218" type="line"/>
      <point x="-73" y="-176" type="line"/>
      <point x="-15" y="-171" type="line" smooth="yes"/>
      <point x="-3" y="-170"/>
      <point x="6" y="-164"/>
      <point x="9" y="-152" type="curve" smooth="yes"/>
      <point x="156" y="602" type="line"/>
      <point x="67" y="611" type="line"/>
      <point x="67" y="641" type="line"/>
      <point x="223" y="671" type="line"/>
      <point x="269" y="671" type="line"/>
      <point x="258" y="612" type="line"/>
      <point x="296" y="644"/>
      <point x="358" y="681"/>
      <point x="399" y="681" type="curve" smooth="yes"/>
      <point x="513" y="681"/>
      <point x="562" y="595"/>
    </contour>
    <contour>
      <point x="453" y="479" type="curve" smooth="yes"/>
      <point x="453" y="561"/>
      <point x="413" y="599"/>
      <point x="368" y="599" type="curve" smooth="yes"/>
      <point x="335" y="599"/>
      <point x="290" y="577"/>
      <point x="244" y="536" type="curve"/>
      <point x="158" y="95" type="line"/>
      <point x="289" y="172"/>
      <point x="453" y="333"/>
    </contour>
  </outline>
</glyph>
<glyph name="uni01F8" format="1">
  <advance width="710"/>
  <unicode hex="01F8"/>
  <outline>
    <contour>
      <point x="755" y="629" type="line"/>
      <point x="698" y="624" type="line" smooth="yes"/>
      <point x="685" y="623"/>
      <point x="676" y="617"/>
      <point x="673" y="604" type="curve" smooth="yes"/>
      <point x="555" y="0" type="line"/>
      <point x="483" y="0" type="line"/>
      <point x="231" y="531" type="line"/>
      <point x="142" y="66" type="line" smooth="yes"/>
      <point x="140" y="56"/>
      <point x="144" y="48"/>
      <point x="162" y="47" type="curve" smooth="yes"/>
      <point x="218" y="42" type="line"/>
      <point x="218" y="0" type="line"/>
      <point x="-14" y="0" type="line"/>
      <point x="-14" y="42" type="line"/>
      <point x="43" y="47" type="line" smooth="yes"/>
      <point x="56" y="48"/>
      <point x="65" y="54"/>
      <point x="68" y="66" type="curve" smooth="yes"/>
      <point x="171" y="604" type="line" smooth="yes"/>
      <point x="173" y="615"/>
      <point x="169" y="623"/>
      <point x="152" y="624" type="curve" smooth="yes"/>
      <point x="96" y="629" type="line"/>
      <point x="96" y="671" type="line"/>
      <point x="289" y="671" type="line"/>
      <point x="289" y="645" type="line"/>
      <point x="514" y="168" type="line"/>
      <point x="599" y="604" type="line" smooth="yes"/>
      <point x="601" y="615"/>
      <point x="597" y="623"/>
      <point x="580" y="624" type="curve" smooth="yes"/>
      <point x="523" y="629" type="line"/>
      <point x="523" y="671" type="line"/>
      <point x="755" y="671" type="line"/>
    </contour>
    <contour>
      <point x="534" y="746" type="line"/>
      <point x="472" y="746" type="line"/>
      <point x="327" y="841" type="line" smooth="yes"/>
      <point x="313" y="850"/>
      <point x="304" y="863"/>
      <point x="304" y="883" type="curve" smooth="yes"/>
      <point x="304" y="903"/>
      <point x="314" y="927"/>
      <point x="349" y="927" type="curve" smooth="yes"/>
      <point x="377" y="927"/>
      <point x="388" y="916"/>
      <point x="400" y="902" type="curve" smooth="yes"/>
    </contour>
  </outline>
</glyph>
<glyph name="oslashacute" format="1">
  <advance width="505"/>
  <unicode hex="01FF"/>
  <outline>
    <contour>
      <point x="475" y="300" type="curve" smooth="yes"/>
      <point x="475" y="138"/>
      <point x="363" y="-12"/>
      <point x="209" y="-12" type="curve" smooth="yes"/>
      <point x="182" y="-12"/>
      <point x="158" y="-7"/>
      <point x="136" y="1" type="curve"/>
      <point x="81" y="-86" type="line"/>
      <point x="44" y="-61" type="line"/>
      <point x="97" y="23" type="line"/>
      <point x="55" y="55"/>
      <point x="31" y="108"/>
      <point x="31" y="177" type="curve" smooth="yes"/>
      <point x="31" y="339"/>
      <point x="139" y="494"/>
      <point x="296" y="494" type="curve" smooth="yes"/>
      <point x="326" y="494"/>
      <point x="355" y="488"/>
      <point x="380" y="476" type="curve"/>
      <point x="428" y="552" type="line"/>
      <point x="468" y="527" type="line"/>
      <point x="419" y="450" type="line"/>
      <point x="453" y="418"/>
      <point x="475" y="369"/>
    </contour>
    <contour>
      <point x="345" y="419" type="line"/>
      <point x="329" y="440"/>
      <point x="308" y="451"/>
      <point x="285" y="451" type="curve" smooth="yes"/>
      <point x="198" y="451"/>
      <point x="132" y="312"/>
      <point x="132" y="182" type="curve" smooth="yes"/>
      <point x="132" y="148"/>
      <point x="137" y="121"/>
      <point x="145" y="99" type="curve"/>
    </contour>
    <contour>
      <point x="374" y="304" type="curve" smooth="yes"/>
      <point x="374" y="328"/>
      <point x="371" y="349"/>
      <point x="367" y="367" type="curve"/>
      <point x="170" y="55" type="line"/>
      <point x="185" y="40"/>
      <point x="202" y="33"/>
      <point x="221" y="33" type="curve" smooth="yes"/>
      <point x="316" y="33"/>
      <point x="374" y="186"/>
    </contour>
    <contour>
      <point x="479" y="689" type="curve" smooth="yes"/>
      <point x="479" y="670"/>
      <point x="470" y="658"/>
      <point x="455" y="648" type="curve" smooth="yes"/>
      <point x="305" y="551" type="line"/>
      <point x="235" y="551" type="line"/>
      <point x="371" y="707" type="line" smooth="yes"/>
      <point x="384" y="722"/>
      <point x="398" y="732"/>
      <point x="428" y="732" type="curve" smooth="yes"/>
      <point x="463" y="732"/>
      <point x="479" y="709"/>
    </contour>
  </outline>
</glyph>
<glyph name="uni0200" format="1">
  <advance width="672"/>
  <unicode hex="0200"/>
  <outline>
    <contour>
      <point x="626" y="0" type="line"/>
      <point x="391" y="0" type="line"/>
      <point x="391" y="42" type="line"/>
      <point x="437" y="47" type="line" smooth="yes"/>
      <point x="452" y="49"/>
      <point x="458" y="55"/>
      <point x="456" y="66" type="curve" smooth="yes"/>
      <point x="426" y="257" type="line"/>
      <point x="199" y="257" type="line"/>
      <point x="97" y="66" type="line" smooth="yes"/>
      <point x="90" y="53"/>
      <point x="97" y="49"/>
      <point x="116" y="47" type="curve" smooth="yes"/>
      <point x="162" y="42" type="line"/>
      <point x="162" y="0" type="line"/>
      <point x="-53" y="0" type="line"/>
      <point x="-53" y="42" type="line"/>
      <point x="3" y="48" type="line"/>
      <point x="372" y="687" type="line"/>
      <point x="452" y="687" type="line"/>
      <point x="560" y="66" type="line" smooth="yes"/>
      <point x="562" y="53"/>
      <point x="566" y="48"/>
      <point x="580" y="47" type="curve" smooth="yes"/>
      <point x="626" y="42" type="line"/>
    </contour>
    <contour>
      <point x="417" y="304" type="line"/>
      <point x="374" y="564" type="line"/>
      <point x="226" y="304" type="line"/>
    </contour>
    <contour>
      <point x="584" y="746" type="line"/>
      <point x="526" y="746" type="line"/>
      <point x="393" y="843" type="line" smooth="yes"/>
      <point x="383" y="850"/>
      <point x="377" y="862"/>
      <point x="377" y="875" type="curve" smooth="yes"/>
      <point x="377" y="906"/>
      <point x="402" y="928"/>
      <point x="433" y="928" type="curve" smooth="yes"/>
      <point x="460" y="928"/>
      <point x="469" y="918"/>
      <point x="480" y="901" type="curve" smooth="yes"/>
    </contour>
    <contour>
      <point x="398" y="746" type="line"/>
      <point x="341" y="746" type="line"/>
      <point x="208" y="843" type="line" smooth="yes"/>
      <point x="198" y="850"/>
      <point x="192" y="861"/>
      <point x="192" y="875" type="curve" smooth="yes"/>
      <point x="192" y="906"/>
      <point x="216" y="928"/>
      <point x="248" y="928" type="curve" smooth="yes"/>
      <point x="275" y="928"/>
      <point x="283" y="918"/>
      <point x="294" y="901" type="curve" smooth="yes"/>
    </contour>
  </outline>
</glyph>
<glyph name="uni0208" format="1">
  <advance width="313"/>
  <unicode hex="0208"/>
  <outline>
    <contour>
      <point x="356" y="629" type="line"/>
      <point x="292" y="624" type="line" smooth="yes"/>
      <point x="279" y="623"/>
      <point x="275" y="617"/>
      <point x="272" y="604" type="curve" smooth="yes"/>
      <point x="168" y="66" type="line" smooth="yes"/>
      <point x="166" y="56"/>
      <point x="170" y="48"/>
      <point x="188" y="47" type="curve" smooth="yes"/>
      <point x="246" y="42" type="line"/>
      <point x="246" y="0" type="line"/>
      <point x="-15" y="0" type="line"/>
      <point x="-15" y="42" type="line"/>
      <point x="48" y="47" type="line" smooth="yes"/>
      <point x="60" y="48"/>
      <point x="65" y="54"/>
      <point x="67" y="66" type="curve" smooth="yes"/>
      <point x="171" y="604" type="line" smooth="yes"/>
      <point x="173" y="615"/>
      <point x="169" y="623"/>
      <point x="152" y="624" type="curve" smooth="yes"/>
      <point x="96" y="629" type="line"/>
      <point x="96" y="671" type="line"/>
      <point x="356" y="671" type="line"/>
    </contour>
    <contour>
      <point x="413" y="746" type="line"/>
      <point x="354" y="746" type="line"/>
      <point x="222" y="843" type="line" smooth="yes"/>
      <point x="212" y="850"/>
      <point x="206" y="862"/>
      <point x="206" y="875" type="curve" smooth="yes"/>
      <point x="206" y="906"/>
      <point x="231" y="928"/>
      <point x="262" y="928" type="curve" smooth="yes"/>
      <point x="289" y="928"/>
      <point x="298" y="918"/>
      <point x="309" y="901" type="curve" smooth="yes"/>
    </contour>
    <contour>
      <point x="227" y="746" type="line"/>
      <point x="169" y="746" type="line"/>
      <point x="37" y="843" type="line" smooth="yes"/>
      <point x="27" y="850"/>
      <point x="21" y="861"/>
      <point x="21" y="875" type="curve" smooth="yes"/>
      <point x="21" y="906"/>
      <point x="45" y="928"/>
      <point x="77" y="928" type="curve" smooth="yes"/>
      <point x="104" y="928"/>
      <point x="112" y="918"/>
      <point x="123" y="901" type="curve" smooth="yes"/>
    </contour>
  </outline>
</glyph>
<glyph name="uni020B" format="1">
  <advance width="266"/>
  <unicode hex="020B"/>
  <outline>
    <contour>
      <point x="263" y="29" type="line"/>
      <point x="248" y="22"/>
      <point x="172" y="-12"/>
      <point x="117" y="-12" type="curve" smooth="yes"/>
      <point x="49" y="-12"/>
      <point x="39" y="40"/>
      <point x="48" y="86" type="curve" smooth="yes"/>
      <point x="112" y="425" type="line"/>
      <point x="26" y="434" type="line"/>
      <point x="26" y="463" type="line"/>
      <point x="177" y="494" type="line"/>
      <point x="218" y="494" type="line"/>
      <point x="142" y="94" type="line" smooth="yes"/>
      <point x="137" y="67"/>
      <point x="154" y="43"/>
      <point x="181" y="43" type="curve" smooth="yes"/>
      <point x="204" y="43"/>
      <point x="250" y="63"/>
      <point x="263" y="67" type="curve"/>
    </contour>
    <contour>
      <point x="337" y="579" type="curve" smooth="yes"/>
      <point x="337" y="570"/>
      <point x="337" y="560"/>
      <point x="335" y="551" type="curve"/>
      <point x="292" y="551" type="line"/>
      <point x="291" y="605"/>
      <point x="252" y="626"/>
      <point x="205" y="626" type="curve" smooth="yes"/>
      <point x="158" y="626"/>
      <point x="106" y="605"/>
      <point x="83" y="551" type="curve"/>
      <point x="41" y="551" type="line"/>
      <point x="55" y="619"/>
      <point x="117" y="695"/>
      <point x="215" y="695" type="curve" smooth="yes"/>
      <point x="300" y="695"/>
      <point x="337" y="638"/>
    </contour>
  </outline>
</glyph>
<glyph name="uni020E" format="1">
  <advance width="709"/>
  <unicode hex="020E"/>
  <outline>
    <contour>
      <point x="691" y="417" type="curve" smooth="yes"/>
      <point x="691" y="206"/>
      <point x="555" y="-16"/>
      <point x="320" y="-16" type="curve" smooth="yes"/>
      <point x="160" y="-16"/>
      <point x="48" y="94"/>
      <point x="48" y="262" type="curve" smooth="yes"/>
      <point x="48" y="477"/>
      <point x="200" y="687"/>
      <point x="420" y="687" type="curve" smooth="yes"/>
      <point x="586" y="687"/>
      <point x="691" y="566"/>
    </contour>
    <contour>
      <point x="577" y="417" type="curve" smooth="yes"/>
      <point x="577" y="550"/>
      <point x="507" y="637"/>
      <point x="411" y="637" type="curve" smooth="yes"/>
      <point x="265" y="637"/>
      <point x="161" y="431"/>
      <point x="161" y="254" type="curve" smooth="yes"/>
      <point x="161" y="119"/>
      <point x="234" y="36"/>
      <point x="327" y="36" type="curve" smooth="yes"/>
      <point x="473" y="36"/>
      <point x="577" y="247"/>
    </contour>
    <contour>
      <point x="588" y="774" type="curve" smooth="yes"/>
      <point x="588" y="765"/>
      <point x="588" y="755"/>
      <point x="586" y="746" type="curve"/>
      <point x="543" y="746" type="line"/>
      <point x="542" y="800"/>
      <point x="502" y="821"/>
      <point x="455" y="821" type="curve" smooth="yes"/>
      <point x="408" y="821"/>
      <point x="357" y="800"/>
      <point x="334" y="746" type="curve"/>
      <point x="291" y="746" type="line"/>
      <point x="305" y="814"/>
      <point x="368" y="890"/>
      <point x="466" y="890" type="curve" smooth="yes"/>
      <point x="551" y="890"/>
      <point x="588" y="833"/>
    </contour>
  </outline>
</glyph>
<glyph name="uni020F" format="1">
  <advance width="505"/>
  <unicode hex="020F"/>
  <outline>
    <contour>
      <point x="475" y="300" type="curve" smooth="yes"/>
      <point x="475" y="138"/>
      <point x="363" y="-12"/>
      <point x="209" y="-12" type="curve" smooth="yes"/>
      <point x="99" y="-12"/>
      <point x="31" y="61"/>
      <point x="31" y="177" type="curve" smooth="yes"/>
      <point x="31" y="339"/>
      <point x="139" y="494"/>
      <point x="296" y="494" type="curve" smooth="yes"/>
      <point x="392" y="494"/>
      <point x="475" y="435"/>
    </contour>
    <contour>
      <point x="374" y="304" type="curve" smooth="yes"/>
      <point x="374" y="399"/>
      <point x="336" y="451"/>
      <point x="285" y="451" type="curve" smooth="yes"/>
      <point x="198" y="451"/>
      <point x="132" y="312"/>
      <point x="132" y="182" type="curve" smooth="yes"/>
      <point x="132" y="83"/>
      <point x="171" y="33"/>
      <point x="221" y="33" type="curve" smooth="yes"/>
      <point x="316" y="33"/>
      <point x="374" y="186"/>
    </contour>
    <contour>
      <point x="466" y="579" type="curve" smooth="yes"/>
      <point x="466" y="570"/>
      <point x="466" y="560"/>
      <point x="464" y="551" type="curve"/>
      <point x="421" y="551" type="line"/>
      <point x="420" y="605"/>
      <point x="380" y="626"/>
      <point x="333" y="626" type="curve" smooth="yes"/>
      <point x="286" y="626"/>
      <point x="235" y="605"/>
      <point x="212" y="551" type="curve"/>
      <point x="169" y="551" type="line"/>
      <point x="183" y="619"/>
      <point x="246" y="695"/>
      <point x="344" y="695" type="curve" smooth="yes"/>
      <point x="429" y="695"/>
      <point x="466" y="638"/>
    </contour>
  </outline>
</glyph>
<glyph name="uni021A" format="1">
  <advance width="585"/>
  <unicode hex="021A"/>
  <outline>
    <contour>
      <point x="649" y="671" type="line"/>
      <point x="618" y="518" type="line"/>
      <point x="555" y="518" type="line"/>
      <point x="559" y="606" type="line" smooth="yes"/>
      <point x="560" y="620"/>
      <point x="554" y="626"/>
      <point x="540" y="626" type="curve" smooth="yes"/>
      <point x="411" y="626" type="line"/>
      <point x="307" y="66" type="line" smooth="yes"/>
      <point x="305" y="56"/>
      <point x="309" y="48"/>
      <point x="327" y="47" type="curve" smooth="yes"/>
      <point x="384" y="42" type="line"/>
      <point x="384" y="0" type="line"/>
      <point x="124" y="0" type="line"/>
      <point x="124" y="42" type="line"/>
      <point x="182" y="47" type="line" smooth="yes"/>
      <point x="194" y="48"/>
      <point x="204" y="54"/>
      <point x="206" y="66" type="curve" smooth="yes"/>
      <point x="310" y="626" type="line"/>
      <point x="185" y="626" type="line" smooth="yes"/>
      <point x="173" y="626"/>
      <point x="164" y="619"/>
      <point x="160" y="606" type="curve" smooth="yes"/>
      <point x="129" y="518" type="line"/>
      <point x="66" y="518" type="line"/>
      <point x="95" y="671" type="line"/>
    </contour>
    <contour>
      <point x="277" y="-121" type="curve" smooth="yes"/>
      <point x="277" y="-204"/>
      <point x="205" y="-252"/>
      <point x="130" y="-266" type="curve"/>
      <point x="136" y="-232" type="line"/>
      <point x="190" y="-216"/>
      <point x="210" y="-202"/>
      <point x="221" y="-145" type="curve"/>
      <point x="168" y="-145" type="line"/>
      <point x="162" y="-138"/>
      <point x="160" y="-127"/>
      <point x="160" y="-118" type="curve" smooth="yes"/>
      <point x="160" y="-84"/>
      <point x="189" y="-61"/>
      <point x="221" y="-61" type="curve" smooth="yes"/>
      <point x="258" y="-61"/>
      <point x="277" y="-85"/>
    </contour>
  </outline>
</glyph>
<glyph name="uni021B" format="1">
  <advance width="299"/>
  <unicode hex="021B"/>
  <outline>
    <contour>
      <point x="349" y="419" type="line"/>
      <point x="202" y="419" type="line"/>
      <point x="139" y="105" type="line" smooth="yes"/>
      <point x="132" y="70"/>
      <point x="163" y="49"/>
      <point x="197" y="49" type="curve" smooth="yes"/>
      <point x="235" y="49"/>
      <point x="280" y="66"/>
      <point x="301" y="73" type="curve"/>
      <point x="301" y="33" type="line"/>
      <point x="284" y="26"/>
      <point x="196" y="-12"/>
      <point x="138" y="-12" type="curve" smooth="yes"/>
      <point x="66" y="-12"/>
      <point x="44" y="25"/>
      <point x="44" y="74" type="curve" smooth="yes"/>
      <point x="44" y="87"/>
      <point x="45" y="101"/>
      <point x="48" y="115" type="curve" smooth="yes"/>
      <point x="109" y="419" type="line"/>
      <point x="46" y="413" type="line"/>
      <point x="46" y="446" type="line"/>
      <point x="121" y="479" type="line"/>
      <point x="170" y="579" type="line"/>
      <point x="231" y="579" type="line"/>
      <point x="211" y="465" type="line"/>
      <point x="349" y="465" type="line"/>
    </contour>
    <contour>
      <point x="158" y="-121" type="curve" smooth="yes"/>
      <point x="158" y="-204"/>
      <point x="86" y="-252"/>
      <point x="11" y="-266" type="curve"/>
      <point x="17" y="-232" type="line"/>
      <point x="71" y="-216"/>
      <point x="91" y="-202"/>
      <point x="102" y="-145" type="curve"/>
      <point x="49" y="-145" type="line"/>
      <point x="43" y="-138"/>
      <point x="41" y="-127"/>
      <point x="41" y="-118" type="curve" smooth="yes"/>
      <point x="41" y="-84"/>
      <point x="70" y="-61"/>
      <point x="102" y="-61" type="curve" smooth="yes"/>
      <point x="139" y="-61"/>
      <point x="158" y="-85"/>
    </contour>
  </outline>
</glyph>
<glyph name="uni0222" format="1">
  <advance width="599"/>
  <unicode hex="0222"/>
  <outline>
    <contour>
      <point x="580" y="543" type="curve" smooth="yes"/>
      <point x="580" y="437"/>
      <point x="482" y="369"/>
      <point x="402" y="357" type="curve"/>
      <point x="480" y="345"/>
      <point x="542" y="295"/>
      <point x="542" y="210" type="curve" smooth="yes"/>
      <point x="542" y="79"/>
      <point x="397" y="-16"/>
      <point x="258" y="-16" type="curve" smooth="yes"/>
      <point x="134" y="-16"/>
      <point x="48" y="46"/>
      <point x="48" y="146" type="curve" smooth="yes"/>
      <point x="48" y="263"/>
      <point x="150" y="343"/>
      <point x="255" y="357" type="curve"/>
      <point x="197" y="366"/>
      <point x="138" y="401"/>
      <point x="138" y="483" type="curve" smooth="yes"/>
      <point x="138" y="613"/>
      <point x="272" y="687"/>
      <point x="392" y="687" type="curve" smooth="yes"/>
      <point x="496" y="687"/>
      <point x="580" y="635"/>
    </contour>
    <contour>
      <point x="382" y="636" type="curve" smooth="yes"/>
      <point x="302" y="636"/>
      <point x="242" y="577"/>
      <point x="242" y="483" type="curve" smooth="yes"/>
      <point x="242" y="430"/>
      <point x="272" y="383"/>
      <point x="333" y="383" type="curve" smooth="yes"/>
      <point x="417" y="383"/>
      <point x="474" y="465"/>
      <point x="474" y="545" type="curve" smooth="yes"/>
      <point x="474" y="603"/>
      <point x="435" y="636"/>
    </contour>
    <contour>
      <point x="268" y="38" type="curve" smooth="yes"/>
      <point x="363" y="38"/>
      <point x="429" y="123"/>
      <point x="429" y="218" type="curve" smooth="yes"/>
      <point x="429" y="284"/>
      <point x="386" y="332"/>
      <point x="324" y="332" type="curve" smooth="yes"/>
      <point x="226" y="332"/>
      <point x="162" y="245"/>
      <point x="162" y="149" type="curve" smooth="yes"/>
      <point x="162" y="88"/>
      <point x="195" y="38"/>
    </contour>
  </outline>
</glyph>
<glyph name="uni0226" format="1">
  <advance width="672"/>
  <unicode hex="0226"/>
  <outline>
    <contour>
      <point x="626" y="0" type="line"/>
      <point x="391" y="0" type="line"/>
      <point x="391" y="42" type="line"/>
      <point x="437" y="47" type="line" smooth="yes"/>
      <point x="452" y="49"/>
      <point x="458" y="55"/>
      <point x="456" y="66" type="curve" smooth="yes"/>
      <point x="426" y="257" type="line"/>
      <point x="199" y="257" type="line"/>
      <point x="97" y="66" type="line" smooth="yes"/>
      <point x="90" y="53"/>
      <point x="97" y="49"/>
      <point x="116" y="47" type="curve" smooth="yes"/>
      <point x="162" y="42" type="line"/>
      <point x="162" y="0" type="line"/>
      <point x="-53" y="0" type="line"/>
      <point x="-53" y="42" type="line"/>
      <point x="3" y="48" type="line"/>
      <point x="372" y="687" type="line"/>
      <point x="452" y="687" type="line"/>
      <point x="560" y="66" type="line" smooth="yes"/>
      <point x="562" y="53"/>
      <point x="566" y="48"/>
      <point x="580" y="47" type="curve" smooth="yes"/>
      <point x="626" y="42" type="line"/>
    </contour>
    <contour>
      <point x="417" y="304" type="line"/>
      <point x="374" y="564" type="line"/>
      <point x="226" y="304" type="line"/>
    </contour>
    <contour>
      <point x="487" y="836" type="curve" smooth="yes"/>
      <point x="487" y="805"/>
      <point x="462" y="780"/>
      <point x="431" y="780" type="curve" smooth="yes"/>
      <point x="400" y="780"/>
      <point x="375" y="805"/>
      <point x="375" y="836" type="curve" smooth="yes"/>
      <point x="375" y="867"/>
      <point x="399" y="893"/>
      <point x="431" y="893" type="curve" smooth="yes"/>
      <point x="462" y="893"/>
      <point x="487" y="868"/>
    </contour>
  </outline>
</glyph>
<glyph name="uni022B" format="1">
  <advance width="505"/>
  <unicode hex="022B"/>
  <outline>
    <contour>
      <point x="475" y="300" type="curve" smooth="yes"/>
      <point x="475" y="138"/>
      <point x="363" y="-12"/>
      <point x="209" y="-12" type="curve" smooth="yes"/>
      <point x="99" y="-12"/>
      <point x="31" y="61"/>
      <point x="31" y="177" type="curve" smooth="yes"/>
      <point x="31" y="339"/>
      <point x="139" y="494"/>
      <point x="296" y="494" type="curve" smooth="yes"/>
      <point x="392" y="494"/>
      <point x="475" y="435"/>
    </contour>
    <contour>
      <point x="374" y="304" type="curve" smooth="yes"/>
      <point x="374" y="399"/>
      <point x="336" y="451"/>
      <point x="285" y="451" type="curve" smooth="yes"/>
      <point x="198" y="451"/>
      <point x="132" y="312"/>
      <point x="132" y="182" type="curve" smooth="yes"/>
      <point x="132" y="83"/>
      <point x="171" y="33"/>
      <point x="221" y="33" type="curve" smooth="yes"/>
      <point x="316" y="33"/>
      <point x="374" y="186"/>
    </contour>
    <contour>
      <point x="493" y="641" type="curve" smooth="yes"/>
      <point x="493" y="611"/>
      <point x="468" y="585"/>
      <point x="438" y="585" type="curve" smooth="yes"/>
      <point x="408" y="585"/>
      <point x="384" y="611"/>
      <point x="384" y="641" type="curve" smooth="yes"/>
      <point x="384" y="669"/>
      <point x="410" y="696"/>
      <point x="438" y="696" type="curve" smooth="yes"/>
      <point x="468" y="696"/>
      <point x="493" y="671"/>
    </contour>
    <contour>
      <point x="286" y="641" type="curve" smooth="yes"/>
      <point x="286" y="611"/>
      <point x="260" y="585"/>
      <point x="230" y="585" type="curve" smooth="yes"/>
      <point x="201" y="585"/>
      <point x="177" y="611"/>
      <point x="177" y="640" type="curve" smooth="yes"/>
      <point x="177" y="669"/>
      <point x="201" y="696"/>
      <point x="230" y="696" type="curve" smooth="yes"/>
      <point x="260" y="696"/>
      <point x="286" y="671"/>
    </contour>
    <contour>
      <point x="509" y="847" type="line"/>
      <point x="497" y="781" type="line"/>
      <point x="194" y="781" type="line"/>
      <point x="208" y="847" type="line"/>
    </contour>
  </outline>
</glyph>
<glyph name="uni0234" format="1">
  <advance width="326"/>
  <unicode hex="0234"/>
  <outline>
    <contour>
      <point x="331" y="123" type="curve" smooth="yes"/>
      <point x="331" y="45"/>
      <point x="249" y="-12"/>
      <point x="164" y="-12" type="curve" smooth="yes"/>
      <point x="136" y="-12"/>
      <point x="60" y="-16"/>
      <point x="52" y="52" type="curve"/>
      <point x="7" y="5"/>
      <point x="-7" y="-9"/>
      <point x="-34" y="-51" type="curve"/>
      <point x="-68" y="-27" type="line"/>
      <point x="-22" y="36"/>
      <point x="-12" y="47"/>
      <point x="56" y="111" type="curve"/>
      <point x="163" y="668" type="line"/>
      <point x="74" y="677" type="line"/>
      <point x="74" y="707" type="line"/>
      <point x="230" y="737" type="line"/>
      <point x="269" y="737" type="line"/>
      <point x="162" y="173" type="line"/>
      <point x="196" y="190"/>
      <point x="227" y="200"/>
      <point x="262" y="200" type="curve" smooth="yes"/>
      <point x="308" y="200"/>
      <point x="331" y="172"/>
    </contour>
    <contour>
      <point x="271" y="113" type="curve" smooth="yes"/>
      <point x="271" y="144"/>
      <point x="264" y="156"/>
      <point x="235" y="156" type="curve" smooth="yes"/>
      <point x="203" y="156"/>
      <point x="185" y="144"/>
      <point x="152" y="125" type="curve"/>
      <point x="150" y="108"/>
      <point x="148" y="96"/>
      <point x="148" y="91" type="curve" smooth="yes"/>
      <point x="148" y="64"/>
      <point x="161" y="48"/>
      <point x="195" y="48" type="curve" smooth="yes"/>
      <point x="234" y="48"/>
      <point x="271" y="73"/>
    </contour>
  </outline>
</glyph>
<glyph name="uni0241" format="1">
  <advance width="471"/>
  <unicode hex="0241"/>
  <outline>
    <contour>
      <point x="483" y="535" type="curve" smooth="yes"/>
      <point x="483" y="407"/>
      <point x="384" y="354"/>
      <point x="282" y="311" type="curve"/>
      <point x="233" y="67" type="line" smooth="yes"/>
      <point x="232" y="58"/>
      <point x="243" y="48"/>
      <point x="251" y="47" type="curve" smooth="yes"/>
      <point x="314" y="43" type="line"/>
      <point x="314" y="0" type="line"/>
      <point x="46" y="0" type="line"/>
      <point x="46" y="43" type="line"/>
      <point x="106" y="47" type="line" smooth="yes"/>
      <point x="115" y="48"/>
      <point x="131" y="58"/>
      <point x="132" y="67" type="curve" smooth="yes"/>
      <point x="184" y="327" type="line"/>
      <point x="282" y="358"/>
      <point x="377" y="424"/>
      <point x="378" y="536" type="curve" smooth="yes"/>
      <point x="379" y="601"/>
      <point x="342" y="638"/>
      <point x="295" y="637" type="curve" smooth="yes"/>
      <point x="275" y="637"/>
      <point x="254" y="632"/>
      <point x="233" y="619" type="curve"/>
      <point x="199" y="527" type="line"/>
      <point x="199" y="527"/>
      <point x="167" y="512"/>
      <point x="143" y="512" type="curve" smooth="yes"/>
      <point x="110" y="512"/>
      <point x="99" y="540"/>
      <point x="99" y="566" type="curve" smooth="yes"/>
      <point x="99" y="653"/>
      <point x="238" y="687"/>
      <point x="303" y="687" type="curve" smooth="yes"/>
      <point x="408" y="687"/>
      <point x="483" y="625"/>
    </contour>
  </outline>
</glyph>
<glyph name="uni0243" format="1">
  <advance width="606"/>
  <unicode hex="0243"/>
  <outline>
    <contour>
      <point x="574" y="543" type="curve" smooth="yes"/>
      <point x="574" y="440"/>
      <point x="499" y="387"/>
      <point x="407" y="357" type="curve"/>
      <point x="494" y="345"/>
      <point x="554" y="311"/>
      <point x="554" y="224" type="curve" smooth="yes"/>
      <point x="554" y="60"/>
      <point x="427" y="0"/>
      <point x="259" y="0" type="curve" smooth="yes"/>
      <point x="-15" y="0" type="line"/>
      <point x="-15" y="42" type="line"/>
      <point x="48" y="47" type="line" smooth="yes"/>
      <point x="60" y="48"/>
      <point x="65" y="54"/>
      <point x="67" y="66" type="curve" smooth="yes"/>
      <point x="88" y="175" type="line"/>
      <point x="1" y="175" type="line"/>
      <point x="12" y="230" type="line"/>
      <point x="99" y="230" type="line"/>
      <point x="170" y="604" type="line" smooth="yes"/>
      <point x="172" y="615"/>
      <point x="168" y="622"/>
      <point x="150" y="624" type="curve" smooth="yes"/>
      <point x="95" y="629" type="line"/>
      <point x="95" y="671" type="line"/>
      <point x="376" y="671" type="line" smooth="yes"/>
      <point x="521" y="671"/>
      <point x="574" y="620"/>
    </contour>
    <contour>
      <point x="463" y="536" type="curve" smooth="yes"/>
      <point x="463" y="599"/>
      <point x="412" y="628"/>
      <point x="327" y="628" type="curve" smooth="yes"/>
      <point x="306" y="628"/>
      <point x="286" y="626"/>
      <point x="275" y="625" type="curve"/>
      <point x="227" y="371" type="line"/>
      <point x="241" y="370"/>
      <point x="265" y="369"/>
      <point x="274" y="369" type="curve" smooth="yes"/>
      <point x="399" y="369"/>
      <point x="463" y="446"/>
    </contour>
    <contour>
      <point x="445" y="214" type="curve" smooth="yes"/>
      <point x="445" y="296"/>
      <point x="386" y="325"/>
      <point x="292" y="325" type="curve" smooth="yes"/>
      <point x="267" y="325"/>
      <point x="239" y="323"/>
      <point x="217" y="320" type="curve"/>
      <point x="200" y="230" type="line"/>
      <point x="353" y="230" type="line"/>
      <point x="342" y="175" type="line"/>
      <point x="189" y="175" type="line"/>
      <point x="165" y="48" type="line"/>
      <point x="181" y="47"/>
      <point x="209" y="45"/>
      <point x="226" y="45" type="curve" smooth="yes"/>
      <point x="369" y="45"/>
      <point x="445" y="108"/>
    </contour>
  </outline>
</glyph>
<glyph name="uni025A" format="1">
  <advance width="541"/>
  <unicode hex="025A"/>
  <outline>
    <contour>
      <point x="600" y="362" type="line"/>
      <point x="585" y="325"/>
      <point x="561" y="268"/>
      <point x="494" y="268" type="curve" smooth="yes"/>
      <point x="449" y="268"/>
      <point x="437" y="299"/>
      <point x="437" y="333" type="curve" smooth="yes"/>
      <point x="437" y="366"/>
      <point x="449" y="401"/>
      <point x="451" y="407" type="curve"/>
      <point x="430" y="395"/>
      <point x="406" y="382"/>
      <point x="378" y="366" type="curve"/>
      <point x="382" y="345"/>
      <point x="385" y="325"/>
      <point x="385" y="302" type="curve" smooth="yes"/>
      <point x="385" y="145"/>
      <point x="285" y="-12"/>
      <point x="131" y="-12" type="curve" smooth="yes"/>
      <point x="43" y="-12"/>
      <point x="18" y="43"/>
      <point x="18" y="92" type="curve" smooth="yes"/>
      <point x="18" y="172"/>
      <point x="139" y="284"/>
      <point x="281" y="356" type="curve"/>
      <point x="266" y="403"/>
      <point x="236" y="434"/>
      <point x="199" y="434" type="curve" smooth="yes"/>
      <point x="156" y="434"/>
      <point x="113" y="400"/>
      <point x="41" y="335" type="curve"/>
      <point x="41" y="398" type="line"/>
      <point x="80" y="437"/>
      <point x="144" y="494"/>
      <point x="230" y="494" type="curve" smooth="yes"/>
      <point x="258" y="494"/>
      <point x="329" y="476"/>
      <point x="366" y="401" type="curve"/>
      <point x="414" y="429"/>
      <point x="450" y="448"/>
      <point x="473" y="461" type="curve"/>
      <point x="500" y="443" type="line"/>
      <point x="485" y="365" type="line" smooth="yes"/>
      <point x="479" y="335"/>
      <point x="475" y="303"/>
      <point x="505" y="303" type="curve" smooth="yes"/>
      <point x="534" y="303"/>
      <point x="545" y="330"/>
      <point x="556" y="354" type="curve" smooth="yes"/>
      <point x="569" y="384" type="line"/>
    </contour>
    <contour>
      <point x="288" y="316" type="curve"/>
      <point x="187" y="262"/>
      <point x="104" y="177"/>
      <point x="104" y="96" type="curve" smooth="yes"/>
      <point x="104" y="69"/>
      <point x="120" y="35"/>
      <point x="152" y="35" type="curve" smooth="yes"/>
      <point x="259" y="35"/>
      <point x="291" y="238"/>
    </contour>
  </outline>
</glyph>
<glyph name="uni025D" format="1">
  <advance width="529"/>
  <unicode hex="025D"/>
  <outline>
    <contour>
      <point x="603" y="386" type="line"/>
      <point x="588" y="348"/>
      <point x="562" y="290"/>
      <point x="499" y="290" type="curve" smooth="yes"/>
      <point x="459" y="290"/>
      <point x="439" y="330"/>
      <point x="446" y="367" type="curve" smooth="yes"/>
      <point x="459" y="434" type="line"/>
      <point x="396" y="396" type="line"/>
      <point x="405" y="320"/>
      <point x="332" y="266"/>
      <point x="270" y="244" type="curve"/>
      <point x="339" y="234"/>
      <point x="374" y="204"/>
      <point x="374" y="152" type="curve" smooth="yes"/>
      <point x="374" y="28"/>
      <point x="252" y="-12"/>
      <point x="142" y="-12" type="curve" smooth="yes"/>
      <point x="82" y="-12"/>
      <point x="40" y="12"/>
      <point x="0" y="56" type="curve"/>
      <point x="0" y="120" type="line"/>
      <point x="52" y="61"/>
      <point x="98" y="34"/>
      <point x="152" y="34" type="curve" smooth="yes"/>
      <point x="216" y="34"/>
      <point x="275" y="76"/>
      <point x="275" y="156" type="curve" smooth="yes"/>
      <point x="275" y="211"/>
      <point x="230" y="217"/>
      <point x="193" y="217" type="curve" smooth="yes"/>
      <point x="168" y="217" type="line"/>
      <point x="168" y="256" type="line"/>
      <point x="231" y="258"/>
      <point x="300" y="296"/>
      <point x="300" y="383" type="curve" smooth="yes"/>
      <point x="300" y="429"/>
      <point x="266" y="456"/>
      <point x="226" y="456" type="curve" smooth="yes"/>
      <point x="188" y="456"/>
      <point x="169" y="431"/>
      <point x="167" y="429" type="curve" smooth="yes"/>
      <point x="159" y="357" type="line" smooth="yes"/>
      <point x="156" y="353"/>
      <point x="136" y="336"/>
      <point x="104" y="336" type="curve" smooth="yes"/>
      <point x="83" y="336"/>
      <point x="59" y="357"/>
      <point x="59" y="382" type="curve" smooth="yes"/>
      <point x="59" y="469"/>
      <point x="175" y="494"/>
      <point x="248" y="494" type="curve" smooth="yes"/>
      <point x="314" y="494"/>
      <point x="364" y="468"/>
      <point x="385" y="429" type="curve"/>
      <point x="476" y="484" type="line"/>
      <point x="501" y="468" type="line"/>
      <point x="486" y="389" type="line" smooth="yes"/>
      <point x="480" y="357"/>
      <point x="484" y="329"/>
      <point x="511" y="329" type="curve" smooth="yes"/>
      <point x="547" y="329"/>
      <point x="563" y="372"/>
      <point x="578" y="405" type="curve"/>
    </contour>
  </outline>
</glyph>
<glyph name="uni026E" format="1">
  <advance width="569"/>
  <unicode hex="026E"/>
  <outline>
    <contour>
      <point x="600" y="452" type="line"/>
      <point x="318" y="191" type="line"/>
      <point x="422" y="186"/>
      <point x="508" y="125"/>
      <point x="508" y="11" type="curve" smooth="yes"/>
      <point x="508" y="-138"/>
      <point x="342" y="-229"/>
      <point x="207" y="-229" type="curve" smooth="yes"/>
      <point x="113" y="-229"/>
      <point x="19" y="-191"/>
      <point x="19" y="-113" type="curve" smooth="yes"/>
      <point x="19" y="-74"/>
      <point x="55" y="-41"/>
      <point x="93" y="-41" type="curve" smooth="yes"/>
      <point x="105" y="-41"/>
      <point x="123" y="-48"/>
      <point x="135" y="-52" type="curve"/>
      <point x="144" y="-141" type="line"/>
      <point x="163" y="-173"/>
      <point x="191" y="-177"/>
      <point x="218" y="-177" type="curve" smooth="yes"/>
      <point x="314" y="-177"/>
      <point x="406" y="-81"/>
      <point x="406" y="11" type="curve" smooth="yes"/>
      <point x="406" y="82"/>
      <point x="339" y="145"/>
      <point x="272" y="149" type="curve"/>
      <point x="235" y="100" type="line"/>
      <point x="180" y="146" type="line"/>
      <point x="464" y="400" type="line"/>
      <point x="464" y="400"/>
      <point x="384" y="390"/>
      <point x="350" y="390" type="curve" smooth="yes"/>
      <point x="313" y="390"/>
      <point x="278" y="413"/>
      <point x="239" y="413" type="curve" smooth="yes"/>
      <point x="223" y="413"/>
      <point x="204" y="404"/>
      <point x="192" y="392" type="curve"/>
      <point x="136" y="99" type="line" smooth="yes"/>
      <point x="131" y="70"/>
      <point x="153" y="44"/>
      <point x="183" y="44" type="curve" smooth="yes"/>
      <point x="202" y="44"/>
      <point x="252" y="61"/>
      <point x="263" y="64" type="curve"/>
      <point x="263" y="26" type="line"/>
      <point x="247" y="20"/>
      <point x="171" y="-12"/>
      <point x="124" y="-12" type="curve" smooth="yes"/>
      <point x="63" y="-12"/>
      <point x="39" y="18"/>
      <point x="39" y="61" type="curve" smooth="yes"/>
      <point x="39" y="71"/>
      <point x="40" y="83"/>
      <point x="42" y="96" type="curve" smooth="yes"/>
      <point x="152" y="668" type="line"/>
      <point x="63" y="677" type="line"/>
      <point x="63" y="707" type="line"/>
      <point x="219" y="737" type="line"/>
      <point x="258" y="737" type="line"/>
      <point x="208" y="473" type="line"/>
      <point x="226" y="483"/>
      <point x="247" y="488"/>
      <point x="268" y="488" type="curve" smooth="yes"/>
      <point x="336" y="488"/>
      <point x="396" y="449"/>
      <point x="462" y="449" type="curve" smooth="yes"/>
      <point x="475" y="449"/>
      <point x="490" y="453"/>
      <point x="503" y="455" type="curve"/>
      <point x="536" y="500" type="line"/>
    </contour>
  </outline>
</glyph>
<glyph name="uni0275" format="1">
  <advance width="505"/>
  <unicode hex="0275"/>
  <outline>
    <contour>
      <point x="475" y="300" type="curve" smooth="yes"/>
      <point x="475" y="138"/>
      <point x="363" y="-12"/>
      <point x="209" y="-12" type="curve" smooth="yes"/>
      <point x="99" y="-12"/>
      <point x="31" y="61"/>
      <point x="31" y="177" type="curve" smooth="yes"/>
      <point x="31" y="339"/>
      <point x="139" y="494"/>
      <point x="296" y="494" type="curve" smooth="yes"/>
      <point x="392" y="494"/>
      <point x="475" y="435"/>
    </contour>
    <contour>
      <point x="374" y="304" type="curve" smooth="yes"/>
      <point x="374" y="399"/>
      <point x="336" y="451"/>
      <point x="285" y="451" type="curve" smooth="yes"/>
      <point x="218" y="451"/>
      <point x="164" y="369"/>
      <point x="142" y="271" type="curve"/>
      <point x="372" y="271" type="line"/>
      <point x="373" y="282"/>
      <point x="374" y="293"/>
    </contour>
    <contour>
      <point x="365" y="221" type="curve"/>
      <point x="134" y="221" type="line"/>
      <point x="133" y="208"/>
      <point x="132" y="195"/>
      <point x="132" y="182" type="curve" smooth="yes"/>
      <point x="132" y="83"/>
      <point x="171" y="33"/>
      <point x="221" y="33" type="curve" smooth="yes"/>
      <point x="295" y="33"/>
      <point x="345" y="124"/>
    </contour>
  </outline>
</glyph>
<glyph name="uni0278" format="1">
  <advance width="565"/>
  <unicode hex="0278"/>
  <outline>
    <contour>
      <point x="534" y="300" type="curve" smooth="yes"/>
      <point x="534" y="151"/>
      <point x="415" y="13"/>
      <point x="276" y="-9" type="curve"/>
      <point x="246" y="-155" type="line" smooth="yes"/>
      <point x="243" y="-166"/>
      <point x="248" y="-173"/>
      <point x="265" y="-175" type="curve" smooth="yes"/>
      <point x="317" y="-180" type="line"/>
      <point x="317" y="-218" type="line"/>
      <point x="77" y="-218" type="line"/>
      <point x="77" y="-180" type="line"/>
      <point x="128" y="-175" type="line" smooth="yes"/>
      <point x="141" y="-174"/>
      <point x="150" y="-168"/>
      <point x="153" y="-155" type="curve" smooth="yes"/>
      <point x="184" y="-5" type="line"/>
      <point x="98" y="15"/>
      <point x="32" y="81"/>
      <point x="32" y="177" type="curve" smooth="yes"/>
      <point x="32" y="326"/>
      <point x="147" y="468"/>
      <point x="287" y="491" type="curve"/>
      <point x="312" y="608" type="line" smooth="yes"/>
      <point x="314" y="619"/>
      <point x="309" y="626"/>
      <point x="292" y="628" type="curve" smooth="yes"/>
      <point x="240" y="633" type="line"/>
      <point x="240" y="671" type="line"/>
      <point x="480" y="671" type="line"/>
      <point x="480" y="633" type="line"/>
      <point x="429" y="628" type="line" smooth="yes"/>
      <point x="416" y="627"/>
      <point x="407" y="621"/>
      <point x="404" y="608" type="curve" smooth="yes"/>
      <point x="379" y="488" type="line"/>
      <point x="459" y="470"/>
      <point x="534" y="410"/>
    </contour>
    <contour>
      <point x="433" y="304" type="curve" smooth="yes"/>
      <point x="433" y="367"/>
      <point x="403" y="411"/>
      <point x="368" y="434" type="curve"/>
      <point x="286" y="40" type="line"/>
      <point x="367" y="71"/>
      <point x="433" y="201"/>
    </contour>
    <contour>
      <point x="277" y="442" type="line"/>
      <point x="202" y="411"/>
      <point x="133" y="294"/>
      <point x="133" y="182" type="curve" smooth="yes"/>
      <point x="133" y="117"/>
      <point x="162" y="74"/>
      <point x="196" y="51" type="curve"/>
    </contour>
  </outline>
</glyph>
<glyph name="uni027E" format="1">
  <advance width="330"/>
  <unicode hex="027E"/>
  <outline>
    <contour>
      <point x="366" y="434" type="curve" smooth="yes"/>
      <point x="366" y="387"/>
      <point x="311" y="380"/>
      <point x="311" y="380" type="curve"/>
      <point x="243" y="438" type="line"/>
      <point x="193" y="422"/>
      <point x="180" y="389"/>
      <point x="162" y="298" type="curve" smooth="yes"/>
      <point x="103" y="0" type="line"/>
      <point x="10" y="0" type="line"/>
      <point x="69" y="300" type="line" smooth="yes"/>
      <point x="92" y="415"/>
      <point x="176" y="494"/>
      <point x="296" y="494" type="curve" smooth="yes"/>
      <point x="359" y="494"/>
      <point x="366" y="461"/>
    </contour>
  </outline>
</glyph>
<glyph name="uni0285" format="1">
  <advance width="293"/>
  <unicode hex="0285"/>
  <outline>
    <contour>
      <point x="312" y="-158" type="curve" smooth="yes"/>
      <point x="312" y="-209"/>
      <point x="255" y="-229"/>
      <point x="213" y="-229" type="curve" smooth="yes"/>
      <point x="107" y="-229"/>
      <point x="71" y="-154"/>
      <point x="71" y="-60" type="curve" smooth="yes"/>
      <point x="71" y="-25"/>
      <point x="76" y="10"/>
      <point x="83" y="43" type="curve" smooth="yes"/>
      <point x="133" y="294" type="line" smooth="yes"/>
      <point x="139" y="324"/>
      <point x="145" y="355"/>
      <point x="145" y="385" type="curve" smooth="yes"/>
      <point x="145" y="406"/>
      <point x="141" y="429"/>
      <point x="122" y="440" type="curve"/>
      <point x="18" y="375" type="line"/>
      <point x="-2" y="381"/>
      <point x="-18" y="401"/>
      <point x="-18" y="422" type="curve" smooth="yes"/>
      <point x="-18" y="473"/>
      <point x="38" y="494"/>
      <point x="81" y="494" type="curve" smooth="yes"/>
      <point x="187" y="494"/>
      <point x="222" y="419"/>
      <point x="222" y="324" type="curve" smooth="yes"/>
      <point x="222" y="289"/>
      <point x="218" y="255"/>
      <point x="211" y="221" type="curve" smooth="yes"/>
      <point x="161" y="-30" type="line" smooth="yes"/>
      <point x="155" y="-60"/>
      <point x="149" y="-91"/>
      <point x="149" y="-121" type="curve" smooth="yes"/>
      <point x="149" y="-141"/>
      <point x="152" y="-165"/>
      <point x="171" y="-176" type="curve"/>
      <point x="276" y="-110" type="line"/>
      <point x="296" y="-117"/>
      <point x="312" y="-137"/>
    </contour>
  </outline>
</glyph>
<glyph name="uni028C" format="1">
  <advance width="461"/>
  <unicode hex="028C"/>
  <outline>
    <contour>
      <point x="467" y="21" type="line"/>
      <point x="360" y="-12" type="line"/>
      <point x="306" y="-11"/>
      <point x="283" y="12"/>
      <point x="278" y="59" type="curve" smooth="yes"/>
      <point x="247" y="367" type="line"/>
      <point x="179" y="278"/>
      <point x="134" y="210"/>
      <point x="103" y="131" type="curve"/>
      <point x="122" y="10" type="line"/>
      <point x="108" y="-3"/>
      <point x="88" y="-12"/>
      <point x="63" y="-12" type="curve" smooth="yes"/>
      <point x="21" y="-12"/>
      <point x="2" y="12"/>
      <point x="2" y="48" type="curve" smooth="yes"/>
      <point x="2" y="81"/>
      <point x="17" y="110"/>
      <point x="23" y="123" type="curve" smooth="yes"/>
      <point x="113" y="287"/>
      <point x="233" y="426"/>
      <point x="294" y="494" type="curve"/>
      <point x="352" y="494" type="line"/>
      <point x="338" y="465"/>
      <point x="331" y="440"/>
      <point x="332" y="417" type="curve" smooth="yes"/>
      <point x="332" y="410"/>
      <point x="353" y="128"/>
      <point x="374" y="74" type="curve" smooth="yes"/>
      <point x="379" y="60"/>
      <point x="385" y="54"/>
      <point x="396" y="54" type="curve" smooth="yes"/>
      <point x="467" y="50" type="line"/>
    </contour>
  </outline>
</glyph>
<glyph name="uni0291" format="1">
  <advance width="444"/>
  <unicode hex="0291"/>
  <outline>
    <contour>
      <point x="450" y="468" type="line"/>
      <point x="111" y="71" type="line"/>
      <point x="180" y="90" type="line"/>
      <point x="218" y="148"/>
      <point x="270" y="191"/>
      <point x="341" y="191" type="curve" smooth="yes"/>
      <point x="363" y="191"/>
      <point x="400" y="171"/>
      <point x="400" y="118" type="curve" smooth="yes"/>
      <point x="400" y="39"/>
      <point x="327" y="-12"/>
      <point x="271" y="-12" type="curve" smooth="yes"/>
      <point x="245" y="-12"/>
      <point x="210" y="-3"/>
      <point x="184" y="7" type="curve"/>
      <point x="164" y="-41"/>
      <point x="151" y="-90"/>
      <point x="141" y="-141" type="curve"/>
      <point x="98" y="-141" type="line"/>
      <point x="106" y="-93"/>
      <point x="120" y="-34"/>
      <point x="144" y="21" type="curve"/>
      <point x="133" y="24"/>
      <point x="119" y="28"/>
      <point x="106" y="28" type="curve" smooth="yes"/>
      <point x="95" y="28"/>
      <point x="86" y="28"/>
      <point x="78" y="21" type="curve" smooth="yes"/>
      <point x="53" y="-26" type="line"/>
      <point x="-16" y="11" type="line"/>
      <point x="323" y="408" type="line"/>
      <point x="235" y="389" type="line"/>
      <point x="208" y="404"/>
      <point x="177" y="418"/>
      <point x="150" y="418" type="curve" smooth="yes"/>
      <point x="133" y="418"/>
      <point x="107" y="407"/>
      <point x="96" y="389" type="curve"/>
      <point x="149" y="325" type="line"/>
      <point x="144" y="317"/>
      <point x="122" y="292"/>
      <point x="94" y="292" type="curve" smooth="yes"/>
      <point x="56" y="292"/>
      <point x="39" y="326"/>
      <point x="39" y="351" type="curve" smooth="yes"/>
      <point x="39" y="412"/>
      <point x="92" y="494"/>
      <point x="180" y="494" type="curve" smooth="yes"/>
      <point x="240" y="494"/>
      <point x="290" y="444"/>
      <point x="330" y="444" type="curve" smooth="yes"/>
      <point x="334" y="444"/>
      <point x="341" y="445"/>
      <point x="353" y="451" type="curve"/>
      <point x="375" y="507" type="line"/>
    </contour>
    <contour>
      <point x="351" y="117" type="curve" smooth="yes"/>
      <point x="351" y="134"/>
      <point x="340" y="146"/>
      <point x="323" y="146" type="curve" smooth="yes"/>
      <point x="278" y="146"/>
      <point x="243" y="115"/>
      <point x="216" y="72" type="curve"/>
      <point x="239" y="63"/>
      <point x="265" y="56"/>
      <point x="288" y="57" type="curve" smooth="yes"/>
      <point x="323" y="57"/>
      <point x="351" y="73"/>
    </contour>
  </outline>
</glyph>
<glyph name="uni02A6" format="1">
  <advance width="589"/>
  <unicode hex="02A6"/>
  <outline>
    <contour>
      <point x="569" y="431" type="curve" smooth="yes"/>
      <point x="569" y="385"/>
      <point x="522" y="378"/>
      <point x="498" y="376" type="curve"/>
      <point x="452" y="437" type="line" smooth="yes"/>
      <point x="448" y="440"/>
      <point x="439" y="445"/>
      <point x="427" y="445" type="curve" smooth="yes"/>
      <point x="383" y="445"/>
      <point x="369" y="402"/>
      <point x="369" y="376" type="curve" smooth="yes"/>
      <point x="369" y="340"/>
      <point x="415" y="301"/>
      <point x="457" y="267" type="curve" smooth="yes"/>
      <point x="501" y="232"/>
      <point x="543" y="194"/>
      <point x="543" y="145" type="curve" smooth="yes"/>
      <point x="543" y="63"/>
      <point x="476" y="-12"/>
      <point x="353" y="-12" type="curve" smooth="yes"/>
      <point x="307" y="-12"/>
      <point x="274" y="-2"/>
      <point x="251" y="13" type="curve"/>
      <point x="217" y="1"/>
      <point x="172" y="-12"/>
      <point x="138" y="-12" type="curve" smooth="yes"/>
      <point x="66" y="-12"/>
      <point x="44" y="25"/>
      <point x="44" y="74" type="curve" smooth="yes"/>
      <point x="44" y="87"/>
      <point x="45" y="101"/>
      <point x="48" y="115" type="curve" smooth="yes"/>
      <point x="109" y="419" type="line"/>
      <point x="46" y="413" type="line"/>
      <point x="46" y="446" type="line"/>
      <point x="121" y="479" type="line"/>
      <point x="170" y="579" type="line"/>
      <point x="231" y="579" type="line"/>
      <point x="211" y="465" type="line"/>
      <point x="288" y="465" type="line"/>
      <point x="288" y="419" type="line"/>
      <point x="202" y="419" type="line"/>
      <point x="139" y="105" type="line" smooth="yes"/>
      <point x="132" y="70"/>
      <point x="163" y="49"/>
      <point x="197" y="49" type="curve" smooth="yes"/>
      <point x="204" y="49"/>
      <point x="212" y="50"/>
      <point x="219" y="51" type="curve"/>
      <point x="215" y="60"/>
      <point x="212" y="70"/>
      <point x="212" y="80" type="curve" smooth="yes"/>
      <point x="212" y="112"/>
      <point x="231" y="134"/>
      <point x="272" y="134" type="curve" smooth="yes"/>
      <point x="296" y="134"/>
      <point x="318" y="119"/>
      <point x="324" y="113" type="curve"/>
      <point x="306" y="64" type="line"/>
      <point x="319" y="44"/>
      <point x="339" y="28"/>
      <point x="373" y="28" type="curve" smooth="yes"/>
      <point x="414" y="28"/>
      <point x="452" y="60"/>
      <point x="452" y="111" type="curve" smooth="yes"/>
      <point x="452" y="152"/>
      <point x="418" y="180"/>
      <point x="369" y="217" type="curve" smooth="yes"/>
      <point x="328" y="249"/>
      <point x="289" y="293"/>
      <point x="289" y="343" type="curve" smooth="yes"/>
      <point x="289" y="441"/>
      <point x="386" y="494"/>
      <point x="468" y="494" type="curve" smooth="yes"/>
      <point x="543" y="494"/>
      <point x="569" y="455"/>
    </contour>
  </outline>
</glyph>
<glyph name="uni02AF" format="1">
  <advance width="549"/>
  <unicode hex="02AF"/>
  <outline>
    <contour>
      <point x="588" y="-167" type="curve" smooth="yes"/>
      <point x="588" y="-202"/>
      <point x="544" y="-229"/>
      <point x="483" y="-229" type="curve" smooth="yes"/>
      <point x="362" y="-229"/>
      <point x="300" y="-126"/>
      <point x="326" y="-9" type="curve" smooth="yes"/>
      <point x="343" y="68" type="line"/>
      <point x="302" y="23"/>
      <point x="230" y="-12"/>
      <point x="163" y="-12" type="curve" smooth="yes"/>
      <point x="90" y="-12"/>
      <point x="56" y="33"/>
      <point x="75" y="123" type="curve" smooth="yes"/>
      <point x="111" y="294" type="line" smooth="yes"/>
      <point x="130" y="388"/>
      <point x="131" y="430"/>
      <point x="105" y="445" type="curve"/>
      <point x="10" y="379" type="line"/>
      <point x="4" y="381"/>
      <point x="-24" y="393"/>
      <point x="-24" y="434" type="curve" smooth="yes"/>
      <point x="-24" y="466"/>
      <point x="16" y="494"/>
      <point x="73" y="494" type="curve" smooth="yes"/>
      <point x="193" y="494"/>
      <point x="230" y="421"/>
      <point x="208" y="316" type="curve" smooth="yes"/>
      <point x="170" y="134" type="line" smooth="yes"/>
      <point x="159" y="81"/>
      <point x="196" y="54"/>
      <point x="218" y="54" type="curve" smooth="yes"/>
      <point x="250" y="54"/>
      <point x="312" y="86"/>
      <point x="356" y="132" type="curve"/>
      <point x="429" y="482" type="line"/>
      <point x="521" y="482" type="line"/>
      <point x="420" y="-9" type="line" smooth="yes"/>
      <point x="397" y="-119"/>
      <point x="409" y="-163"/>
      <point x="453" y="-181" type="curve"/>
      <point x="556" y="-112" type="line"/>
      <point x="556" y="-112"/>
      <point x="588" y="-124"/>
    </contour>
  </outline>
</glyph>
<glyph name="uni02B2" format="1">
  <advance width="178"/>
  <unicode hex="02B2"/>
  <outline>
    <contour>
      <point x="222" y="768" type="curve" smooth="yes"/>
      <point x="222" y="753"/>
      <point x="205" y="734"/>
      <point x="182" y="734" type="curve" smooth="yes"/>
      <point x="158" y="734"/>
      <point x="141" y="748"/>
      <point x="141" y="767" type="curve" smooth="yes"/>
      <point x="141" y="786"/>
      <point x="154" y="801"/>
      <point x="182" y="801" type="curve" smooth="yes"/>
      <point x="208" y="801"/>
      <point x="222" y="785"/>
    </contour>
    <contour>
      <point x="201" y="679" type="line"/>
      <point x="157" y="431" type="line" smooth="yes"/>
      <point x="146" y="371"/>
      <point x="94" y="252"/>
      <point x="7" y="252" type="curve" smooth="yes"/>
      <point x="-21" y="252"/>
      <point x="-33" y="266"/>
      <point x="-33" y="284" type="curve" smooth="yes"/>
      <point x="-33" y="299"/>
      <point x="-22" y="308"/>
      <point x="-15" y="312" type="curve"/>
      <point x="49" y="295" type="line"/>
      <point x="62" y="307"/>
      <point x="76" y="343"/>
      <point x="83" y="376" type="curve" smooth="yes"/>
      <point x="131" y="638" type="line"/>
      <point x="77" y="643" type="line"/>
      <point x="77" y="661" type="line"/>
      <point x="175" y="679" type="line"/>
    </contour>
  </outline>
</glyph>
<glyph name="uni02B3" format="1">
  <advance width="243"/>
  <unicode hex="02B3"/>
  <outline>
    <contour>
      <point x="333" y="639" type="curve" smooth="yes"/>
      <point x="333" y="611"/>
      <point x="310" y="607"/>
      <point x="275" y="607" type="curve"/>
      <point x="260" y="636" type="line"/>
      <point x="227" y="624"/>
      <point x="181" y="569"/>
      <point x="173" y="534" type="curve" smooth="yes"/>
      <point x="140" y="383" type="line"/>
      <point x="79" y="383" type="line"/>
      <point x="135" y="638" type="line"/>
      <point x="81" y="643" type="line"/>
      <point x="81" y="661" type="line"/>
      <point x="179" y="679" type="line"/>
      <point x="205" y="679" type="line"/>
      <point x="191" y="618" type="line"/>
      <point x="218" y="656"/>
      <point x="252" y="679"/>
      <point x="292" y="679" type="curve" smooth="yes"/>
      <point x="322" y="679"/>
      <point x="333" y="655"/>
    </contour>
  </outline>
</glyph>
<glyph name="uni02B5" format="1">
  <advance width="318"/>
  <unicode hex="02B5"/>
  <outline>
    <contour>
      <point x="310" y="280" type="curve" smooth="yes"/>
      <point x="310" y="257"/>
      <point x="283" y="246"/>
      <point x="257" y="246" type="curve" smooth="yes"/>
      <point x="182" y="246"/>
      <point x="147" y="286"/>
      <point x="147" y="339" type="curve" smooth="yes"/>
      <point x="147" y="351"/>
      <point x="149" y="363"/>
      <point x="151" y="377" type="curve" smooth="yes"/>
      <point x="165" y="437" type="line"/>
      <point x="139" y="399"/>
      <point x="104" y="376"/>
      <point x="65" y="376" type="curve" smooth="yes"/>
      <point x="33" y="376"/>
      <point x="23" y="400"/>
      <point x="23" y="417" type="curve" smooth="yes"/>
      <point x="23" y="445"/>
      <point x="45" y="448"/>
      <point x="81" y="448" type="curve"/>
      <point x="97" y="419" type="line"/>
      <point x="129" y="432"/>
      <point x="174" y="486"/>
      <point x="182" y="521" type="curve" smooth="yes"/>
      <point x="216" y="672" type="line"/>
      <point x="276" y="672" type="line"/>
      <point x="210" y="371" type="line" smooth="yes"/>
      <point x="206" y="352"/>
      <point x="204" y="334"/>
      <point x="204" y="318" type="curve" smooth="yes"/>
      <point x="204" y="297"/>
      <point x="208" y="280"/>
      <point x="221" y="273" type="curve"/>
      <point x="286" y="313" type="line"/>
      <point x="298" y="309"/>
      <point x="310" y="300"/>
    </contour>
  </outline>
</glyph>
<glyph name="uni02B7" format="1">
  <advance width="456"/>
  <unicode hex="02B7"/>
  <outline>
    <contour>
      <point x="515" y="645" type="curve" smooth="yes"/>
      <point x="515" y="578"/>
      <point x="354" y="391"/>
      <point x="341" y="376" type="curve"/>
      <point x="300" y="376" type="line"/>
      <point x="286" y="581" type="line"/>
      <point x="248" y="506"/>
      <point x="203" y="428"/>
      <point x="166" y="376" type="curve"/>
      <point x="118" y="376" type="line"/>
      <point x="125" y="390" type="line"/>
      <point x="106" y="638" type="line"/>
      <point x="58" y="643" type="line"/>
      <point x="58" y="659" type="line"/>
      <point x="136" y="680" type="line"/>
      <point x="166" y="678" type="line"/>
      <point x="180" y="454" type="line"/>
      <point x="214" y="512"/>
      <point x="256" y="593"/>
      <point x="290" y="665" type="curve"/>
      <point x="338" y="670" type="line"/>
      <point x="354" y="441" type="line"/>
      <point x="395" y="489"/>
      <point x="424" y="539"/>
      <point x="450" y="595" type="curve"/>
      <point x="437" y="665" type="line" smooth="yes"/>
      <point x="440" y="668"/>
      <point x="454" y="680"/>
      <point x="476" y="680" type="curve" smooth="yes"/>
      <point x="507" y="680"/>
      <point x="515" y="654"/>
    </contour>
  </outline>
</glyph>
<glyph name="uni02CE" format="1">
  <advance width="258"/>
  <unicode hex="02CE"/>
  <outline>
    <contour>
      <point x="155" y="-242" type="line"/>
      <point x="93" y="-242" type="line"/>
      <point x="-52" y="-147" type="line" smooth="yes"/>
      <point x="-66" y="-138"/>
      <point x="-75" y="-125"/>
      <point x="-75" y="-105" type="curve" smooth="yes"/>
      <point x="-75" y="-85"/>
      <point x="-65" y="-61"/>
      <point x="-30" y="-61" type="curve" smooth="yes"/>
      <point x="-2" y="-61"/>
      <point x="9" y="-72"/>
      <point x="21" y="-86" type="curve" smooth="yes"/>
    </contour>
  </outline>
</glyph>
<glyph name="uni02D1" format="1">
  <advance width="193"/>
  <unicode hex="02D1"/>
  <outline>
    <contour>
      <point x="223" y="481" type="line"/>
      <point x="144" y="316" type="line"/>
      <point x="71" y="316" type="line"/>
      <point x="56" y="481" type="line"/>
    </contour>
  </outline>
</glyph>
<glyph name="uni02D2" format="1">
  <advance width="274"/>
  <unicode hex="02D2"/>
  <outline>
    <contour>
      <point x="212" y="216" type="curve" smooth="yes"/>
      <point x="212" y="94"/>
      <point x="120" y="0"/>
      <point x="-2" y="0" type="curve"/>
      <point x="7" y="50" type="line"/>
      <point x="98" y="50"/>
      <point x="161" y="116"/>
      <point x="161" y="206" type="curve" smooth="yes"/>
      <point x="161" y="269"/>
      <point x="116" y="299"/>
      <point x="57" y="299" type="curve"/>
      <point x="67" y="350" type="line"/>
      <point x="152" y="350"/>
      <point x="212" y="304"/>
    </contour>
  </outline>
</glyph>
<glyph name="uni02D6" format="1">
  <advance width="231"/>
  <unicode hex="02D6"/>
  <outline>
    <contour>
      <point x="233" y="267" type="line"/>
      <point x="225" y="220" type="line"/>
      <point x="131" y="220" type="line"/>
      <point x="113" y="127" type="line"/>
      <point x="67" y="127" type="line"/>
      <point x="86" y="220" type="line"/>
      <point x="-8" y="220" type="line"/>
      <point x="1" y="267" type="line"/>
      <point x="94" y="267" type="line"/>
      <point x="112" y="359" type="line"/>
      <point x="158" y="359" type="line"/>
      <point x="141" y="267" type="line"/>
    </contour>
  </outline>
</glyph>
<glyph name="tilde" format="1">
  <advance width="360"/>
  <unicode hex="02DC"/>
  <outline>
    <contour>
      <point x="448" y="691" type="line"/>
      <point x="420" y="633"/>
      <point x="375" y="585"/>
      <point x="303" y="585" type="curve" smooth="yes"/>
      <point x="276" y="585"/>
      <point x="258" y="595"/>
      <point x="237" y="608" type="curve" smooth="yes"/>
      <point x="220" y="619"/>
      <point x="204" y="631"/>
      <point x="173" y="631" type="curve" smooth="yes"/>
      <point x="156" y="631"/>
      <point x="128" y="612"/>
      <point x="117" y="585" type="curve"/>
      <point x="64" y="585" type="line"/>
      <point x="92" y="643"/>
      <point x="136" y="691"/>
      <point x="208" y="691" type="curve" smooth="yes"/>
      <point x="235" y="691"/>
      <point x="254" y="681"/>
      <point x="275" y="667" type="curve" smooth="yes"/>
      <point x="292" y="657"/>
      <point x="308" y="645"/>
      <point x="339" y="645" type="curve" smooth="yes"/>
      <point x="357" y="645"/>
      <point x="384" y="664"/>
      <point x="395" y="691" type="curve"/>
    </contour>
  </outline>
</glyph>
<glyph name="hungarumlaut" format="1">
  <advance width="417"/>
  <unicode hex="02DD"/>
  <outline>
    <contour>
      <point x="504" y="689" type="curve" smooth="yes"/>
      <point x="504" y="670"/>
      <point x="494" y="658"/>
      <point x="480" y="648" type="curve" smooth="yes"/>
      <point x="330" y="551" type="line"/>
      <point x="260" y="551" type="line"/>
      <point x="396" y="707" type="line" smooth="yes"/>
      <point x="409" y="722"/>
      <point x="423" y="732"/>
      <point x="453" y="732" type="curve" smooth="yes"/>
      <point x="488" y="732"/>
      <point x="504" y="709"/>
    </contour>
    <contour>
      <point x="301" y="689" type="curve" smooth="yes"/>
      <point x="301" y="670"/>
      <point x="291" y="658"/>
      <point x="277" y="648" type="curve" smooth="yes"/>
      <point x="126" y="551" type="line"/>
      <point x="57" y="551" type="line"/>
      <point x="192" y="707" type="line" smooth="yes"/>
      <point x="205" y="722"/>
      <point x="220" y="732"/>
      <point x="250" y="732" type="curve" smooth="yes"/>
      <point x="285" y="732"/>
      <point x="301" y="709"/>
    </contour>
  </outline>
</glyph>
<glyph name="uni02E2" format="1">
  <advance width="240"/>
  <unicode hex="02E2"/>
  <outline>
    <contour>
      <point x="278" y="642" type="curve" smooth="yes"/>
      <point x="278" y="614"/>
      <point x="247" y="609"/>
      <point x="231" y="608" type="curve"/>
      <point x="202" y="646" type="line" smooth="yes"/>
      <point x="199" y="647"/>
      <point x="193" y="650"/>
      <point x="186" y="650" type="curve" smooth="yes"/>
      <point x="157" y="650"/>
      <point x="147" y="624"/>
      <point x="147" y="608" type="curve" smooth="yes"/>
      <point x="147" y="587"/>
      <point x="177" y="563"/>
      <point x="205" y="543" type="curve" smooth="yes"/>
      <point x="233" y="522"/>
      <point x="261" y="499"/>
      <point x="261" y="470" type="curve" smooth="yes"/>
      <point x="261" y="421"/>
      <point x="217" y="376"/>
      <point x="137" y="376" type="curve" smooth="yes"/>
      <point x="73" y="376"/>
      <point x="46" y="403"/>
      <point x="46" y="431" type="curve" smooth="yes"/>
      <point x="46" y="450"/>
      <point x="58" y="463"/>
      <point x="85" y="463" type="curve" smooth="yes"/>
      <point x="100" y="463"/>
      <point x="114" y="454"/>
      <point x="118" y="451" type="curve"/>
      <point x="106" y="421" type="line"/>
      <point x="115" y="410"/>
      <point x="128" y="400"/>
      <point x="150" y="400" type="curve" smooth="yes"/>
      <point x="177" y="400"/>
      <point x="201" y="419"/>
      <point x="201" y="449" type="curve" smooth="yes"/>
      <point x="201" y="474"/>
      <point x="179" y="491"/>
      <point x="147" y="513" type="curve" smooth="yes"/>
      <point x="121" y="532"/>
      <point x="95" y="559"/>
      <point x="95" y="589" type="curve" smooth="yes"/>
      <point x="95" y="647"/>
      <point x="159" y="679"/>
      <point x="212" y="679" type="curve" smooth="yes"/>
      <point x="261" y="679"/>
      <point x="278" y="656"/>
    </contour>
  </outline>
</glyph>
<glyph name="uni02E3" format="1">
  <advance width="342"/>
  <unicode hex="02E3"/>
  <outline>
    <contour>
      <point x="405" y="644" type="curve" smooth="yes"/>
      <point x="405" y="628"/>
      <point x="395" y="613"/>
      <point x="370" y="605" type="curve"/>
      <point x="341" y="628" type="line"/>
      <point x="318" y="620"/>
      <point x="284" y="583"/>
      <point x="259" y="527" type="curve"/>
      <point x="264" y="512"/>
      <point x="273" y="480"/>
      <point x="285" y="455" type="curve" smooth="yes"/>
      <point x="297" y="429"/>
      <point x="314" y="408"/>
      <point x="330" y="408" type="curve" smooth="yes"/>
      <point x="339" y="408"/>
      <point x="349" y="409"/>
      <point x="367" y="417" type="curve"/>
      <point x="367" y="395" type="line"/>
      <point x="342" y="383"/>
      <point x="318" y="376"/>
      <point x="291" y="376" type="curve" smooth="yes"/>
      <point x="247" y="376"/>
      <point x="222" y="445"/>
      <point x="211" y="487" type="curve"/>
      <point x="186" y="442"/>
      <point x="149" y="376"/>
      <point x="89" y="376" type="curve" smooth="yes"/>
      <point x="63" y="376"/>
      <point x="43" y="388"/>
      <point x="43" y="409" type="curve" smooth="yes"/>
      <point x="43" y="428"/>
      <point x="58" y="440"/>
      <point x="84" y="444" type="curve"/>
      <point x="111" y="420" type="line"/>
      <point x="137" y="435"/>
      <point x="172" y="472"/>
      <point x="195" y="529" type="curve"/>
      <point x="190" y="553"/>
      <point x="155" y="634"/>
      <point x="146" y="635" type="curve" smooth="yes"/>
      <point x="89" y="641" type="line"/>
      <point x="89" y="657" type="line"/>
      <point x="101" y="661"/>
      <point x="159" y="679"/>
      <point x="167" y="679" type="curve" smooth="yes"/>
      <point x="198" y="679"/>
      <point x="220" y="638"/>
      <point x="240" y="565" type="curve"/>
      <point x="266" y="611"/>
      <point x="311" y="679"/>
      <point x="366" y="679" type="curve" smooth="yes"/>
      <point x="389" y="679"/>
      <point x="405" y="665"/>
    </contour>
  </outline>
</glyph>
<glyph name="uni02E8" format="1">
  <advance width="394"/>
  <unicode hex="02E8"/>
  <outline>
    <contour>
      <point x="70" y="167" type="line" smooth="yes"/>
      <point x="55" y="167"/>
      <point x="42" y="180"/>
      <point x="42" y="195" type="curve" smooth="yes"/>
      <point x="42" y="210"/>
      <point x="55" y="223"/>
      <point x="70" y="223" type="curve" smooth="yes"/>
      <point x="289" y="223" type="line" smooth="yes"/>
      <point x="304" y="223"/>
      <point x="316" y="210"/>
      <point x="316" y="195" type="curve" smooth="yes"/>
      <point x="316" y="180"/>
      <point x="304" y="167"/>
      <point x="289" y="167" type="curve" smooth="yes"/>
    </contour>
    <contour>
      <point x="285" y="22" type="line" smooth="yes"/>
      <point x="282" y="7"/>
      <point x="267" y="-3"/>
      <point x="252" y="0" type="curve" smooth="yes"/>
      <point x="237" y="3"/>
      <point x="227" y="18"/>
      <point x="230" y="33" type="curve" smooth="yes"/>
      <point x="357" y="700" type="line" smooth="yes"/>
      <point x="360" y="715"/>
      <point x="375" y="725"/>
      <point x="390" y="722" type="curve" smooth="yes"/>
      <point x="405" y="719"/>
      <point x="415" y="704"/>
      <point x="412" y="689" type="curve" smooth="yes"/>
    </contour>
  </outline>
</glyph>
<glyph name="uni02F5" format="1">
  <advance width="416"/>
  <unicode hex="02F5"/>
  <outline>
    <contour>
      <point x="424" y="312" type="line"/>
      <point x="366" y="312" type="line"/>
      <point x="233" y="409" type="line" smooth="yes"/>
      <point x="223" y="416"/>
      <point x="217" y="427"/>
      <point x="217" y="440" type="curve" smooth="yes"/>
      <point x="217" y="471"/>
      <point x="242" y="494"/>
      <point x="273" y="494" type="curve" smooth="yes"/>
      <point x="300" y="494"/>
      <point x="309" y="484"/>
      <point x="320" y="467" type="curve" smooth="yes"/>
    </contour>
    <contour>
      <point x="238" y="312" type="line"/>
      <point x="181" y="312" type="line"/>
      <point x="48" y="409" type="line" smooth="yes"/>
      <point x="38" y="416"/>
      <point x="32" y="426"/>
      <point x="32" y="440" type="curve" smooth="yes"/>
      <point x="32" y="471"/>
      <point x="56" y="494"/>
      <point x="88" y="494" type="curve" smooth="yes"/>
      <point x="115" y="494"/>
      <point x="123" y="484"/>
      <point x="134" y="467" type="curve" smooth="yes"/>
    </contour>
  </outline>
</glyph>
<glyph name="uni02F8" format="1">
  <advance width="279"/>
  <unicode hex="02F8"/>
  <outline>
    <contour>
      <point x="274" y="674" type="curve" smooth="yes"/>
      <point x="274" y="637"/>
      <point x="243" y="607"/>
      <point x="206" y="607" type="curve" smooth="yes"/>
      <point x="169" y="607"/>
      <point x="139" y="637"/>
      <point x="139" y="674" type="curve" smooth="yes"/>
      <point x="139" y="711"/>
      <point x="169" y="741"/>
      <point x="206" y="741" type="curve" smooth="yes"/>
      <point x="243" y="741"/>
      <point x="274" y="711"/>
    </contour>
    <contour>
      <point x="201" y="302" type="curve" smooth="yes"/>
      <point x="201" y="265"/>
      <point x="170" y="235"/>
      <point x="133" y="235" type="curve" smooth="yes"/>
      <point x="96" y="235"/>
      <point x="66" y="265"/>
      <point x="66" y="302" type="curve" smooth="yes"/>
      <point x="66" y="339"/>
      <point x="96" y="369"/>
      <point x="133" y="369" type="curve" smooth="yes"/>
      <point x="170" y="369"/>
      <point x="201" y="339"/>
    </contour>
  </outline>
</glyph>
<glyph name="uni02FD" format="1">
  <advance width="522"/>
  <unicode hex="02FD"/>
  <outline>
    <contour>
      <point x="2" y="-116" type="line"/>
      <point x="375" y="-116" type="line"/>
      <point x="393" y="-24" type="line"/>
      <point x="446" y="-24" type="line"/>
      <point x="416" y="-174" type="line"/>
      <point x="-62" y="-174" type="line"/>
      <point x="-32" y="-24" type="line"/>
      <point x="21" y="-24" type="line"/>
    </contour>
  </outline>
</glyph>
<glyph name="acutecomb" format="1">
  <advance width="0"/>
  <unicode hex="0301"/>
  <outline>
    <contour>
      <point x="-22" y="689" type="curve" smooth="yes"/>
      <point x="-22" y="670"/>
      <point x="-31" y="658"/>
      <point x="-46" y="648" type="curve" smooth="yes"/>
      <point x="-196" y="551" type="line"/>
      <point x="-266" y="551" type="line"/>
      <point x="-130" y="707" type="line" smooth="yes"/>
      <point x="-117" y="722"/>
      <point x="-103" y="732"/>
      <point x="-73" y="732" type="curve" smooth="yes"/>
      <point x="-38" y="732"/>
      <point x="-22" y="709"/>
    </contour>
  </outline>
</glyph>
<glyph name="uni0302" format="1">
  <advance width="0"/>
  <unicode hex="0302"/>
  <outline>
    <contour>
      <point x="-14" y="551" type="line"/>
      <point x="-83" y="551" type="line"/>
      <point x="-166" y="643" type="line"/>
      <point x="-286" y="551" type="line"/>
      <point x="-355" y="551" type="line"/>
      <point x="-190" y="720" type="line"/>
      <point x="-112" y="720" type="line"/>
    </contour>
  </outline>
</glyph>
<glyph name="tildecomb" format="1">
  <advance width="0"/>
  <unicode hex="0303"/>
  <outline>
    <contour>
      <point x="25" y="691" type="line"/>
      <point x="-3" y="633"/>
      <point x="-48" y="585"/>
      <point x="-120" y="585" type="curve" smooth="yes"/>
      <point x="-147" y="585"/>
      <point x="-165" y="595"/>
      <point x="-186" y="608" type="curve" smooth="yes"/>
      <point x="-203" y="619"/>
      <point x="-219" y="631"/>
      <point x="-250" y="631" type="curve" smooth="yes"/>
      <point x="-267" y="631"/>
      <point x="-295" y="612"/>
      <point x="-306" y="585" type="curve"/>
      <point x="-359" y="585" type="line"/>
      <point x="-331" y="643"/>
      <point x="-287" y="691"/>
      <point x="-215" y="691" type="curve" smooth="yes"/>
      <point x="-188" y="691"/>
      <point x="-169" y="681"/>
      <point x="-148" y="667" type="curve" smooth="yes"/>
      <point x="-131" y="657"/>
      <point x="-115" y="645"/>
      <point x="-84" y="645" type="curve" smooth="yes"/>
      <point x="-66" y="645"/>
      <point x="-39" y="664"/>
      <point x="-28" y="691" type="curve"/>
    </contour>
  </outline>
</glyph>
<glyph name="uni0304" format="1">
  <advance width="0"/>
  <unicode hex="0304"/>
  <outline>
    <contour>
      <point x="-13" y="652" type="line"/>
      <point x="-26" y="586" type="line"/>
      <point x="-329" y="586" type="line"/>
      <point x="-314" y="652" type="line"/>
    </contour>
  </outline>
</glyph>
<glyph name="hookabovecomb" format="1">
  <advance width="0"/>
  <unicode hex="0309"/>
  <outline>
    <contour>
      <point x="-80" y="696" type="curve" smooth="yes"/>
      <point x="-80" y="649"/>
      <point x="-122" y="621"/>
      <point x="-161" y="607" type="curve"/>
      <point x="-172" y="551" type="line"/>
      <point x="-207" y="551" type="line"/>
      <point x="-191" y="625" type="line"/>
      <point x="-156" y="634"/>
      <point x="-126" y="652"/>
      <point x="-126" y="692" type="curve" smooth="yes"/>
      <point x="-126" y="706"/>
      <point x="-131" y="725"/>
      <point x="-149" y="725" type="curve" smooth="yes"/>
      <point x="-171" y="725"/>
      <point x="-179" y="700"/>
      <point x="-188" y="684" type="curve" smooth="yes"/>
      <point x="-194" y="680"/>
      <point x="-201" y="677"/>
      <point x="-209" y="677" type="curve" smooth="yes"/>
      <point x="-223" y="677"/>
      <point x="-230" y="687"/>
      <point x="-230" y="700" type="curve" smooth="yes"/>
      <point x="-230" y="735"/>
      <point x="-173" y="756"/>
      <point x="-146" y="756" type="curve" smooth="yes"/>
      <point x="-109" y="756"/>
      <point x="-80" y="734"/>
    </contour>
  </outline>
</glyph>
<glyph name="uni030C" format="1">
  <advance width="0"/>
  <unicode hex="030C"/>
  <outline>
    <contour>
      <point x="22" y="720" type="line"/>
      <point x="-144" y="551" type="line"/>
      <point x="-223" y="551" type="line"/>
      <point x="-321" y="720" type="line"/>
      <point x="-251" y="720" type="line"/>
      <point x="-168" y="628" type="line"/>
      <point x="-49" y="720" type="line"/>
    </contour>
  </outline>
</glyph>
<glyph name="uni030F" format="1">
  <advance width="0"/>
  <unicode hex="030F"/>
  <outline>
    <contour>
      <point x="-13" y="551" type="line"/>
      <point x="-71" y="551" type="line"/>
      <point x="-204" y="648" type="line" smooth="yes"/>
      <point x="-214" y="655"/>
      <point x="-220" y="666"/>
      <point x="-220" y="679" type="curve" smooth="yes"/>
      <point x="-220" y="710"/>
      <point x="-195" y="733"/>
      <point x="-164" y="733" type="curve" smooth="yes"/>
      <point x="-137" y="733"/>
      <point x="-128" y="723"/>
      <point x="-117" y="706" type="curve" smooth="yes"/>
    </contour>
    <contour>
      <point x="-199" y="551" type="line"/>
      <point x="-256" y="551" type="line"/>
      <point x="-389" y="648" type="line" smooth="yes"/>
      <point x="-399" y="655"/>
      <point x="-405" y="665"/>
      <point x="-405" y="679" type="curve" smooth="yes"/>
      <point x="-405" y="710"/>
      <point x="-381" y="733"/>
      <point x="-349" y="733" type="curve" smooth="yes"/>
      <point x="-322" y="733"/>
      <point x="-314" y="723"/>
      <point x="-303" y="706" type="curve" smooth="yes"/>
    </contour>
  </outline>
</glyph>
<glyph name="uni0310" format="1">
  <advance width="0"/>
  <unicode hex="0310"/>
  <outline>
    <contour>
      <point x="0" y="695" type="line"/>
      <point x="-16" y="627"/>
      <point x="-77" y="551"/>
      <point x="-182" y="551" type="curve" smooth="yes"/>
      <point x="-277" y="551"/>
      <point x="-312" y="611"/>
      <point x="-312" y="668" type="curve" smooth="yes"/>
      <point x="-312" y="676"/>
      <point x="-311" y="685"/>
      <point x="-310" y="695" type="curve"/>
      <point x="-258" y="695" type="line"/>
      <point x="-255" y="636"/>
      <point x="-211" y="617"/>
      <point x="-172" y="617" type="curve" smooth="yes"/>
      <point x="-131" y="617"/>
      <point x="-77" y="637"/>
      <point x="-51" y="695" type="curve"/>
    </contour>
    <contour>
      <point x="-101" y="714" type="curve" smooth="yes"/>
      <point x="-101" y="683"/>
      <point x="-126" y="658"/>
      <point x="-157" y="658" type="curve" smooth="yes"/>
      <point x="-188" y="658"/>
      <point x="-213" y="683"/>
      <point x="-213" y="714" type="curve" smooth="yes"/>
      <point x="-213" y="745"/>
      <point x="-189" y="771"/>
      <point x="-157" y="771" type="curve" smooth="yes"/>
      <point x="-126" y="771"/>
      <point x="-101" y="746"/>
    </contour>
  </outline>
</glyph>
<glyph name="uni0318" format="1">
  <advance width="0"/>
  <unicode hex="0318"/>
  <outline>
    <contour>
      <point x="-252" y="-61" type="line"/>
      <point x="-287" y="-241" type="line"/>
      <point x="-327" y="-241" type="line"/>
      <point x="-313" y="-171" type="line"/>
      <point x="-398" y="-171" type="line"/>
      <point x="-391" y="-131" type="line"/>
      <point x="-306" y="-131" type="line"/>
      <point x="-292" y="-61" type="line"/>
    </contour>
  </outline>
</glyph>
<glyph name="uni031B" format="1">
  <advance width="120"/>
  <unicode hex="031B"/>
  <outline>
    <contour>
      <point x="-54" y="400" type="line"/>
      <point x="0" y="429"/>
      <point x="45" y="468"/>
      <point x="56" y="520" type="curve"/>
      <point x="-9" y="520" type="line"/>
      <point x="-9" y="520"/>
      <point x="-24" y="546"/>
      <point x="-19" y="574" type="curve" smooth="yes"/>
      <point x="-12" y="609"/>
      <point x="25" y="631"/>
      <point x="57" y="631" type="curve" smooth="yes"/>
      <point x="102" y="631"/>
      <point x="125" y="589"/>
      <point x="111" y="524" type="curve" smooth="yes"/>
      <point x="98" y="460"/>
      <point x="18" y="396"/>
      <point x="-61" y="363" type="curve"/>
    </contour>
  </outline>
</glyph>
<glyph name="uni031C" format="1">
  <advance width="0"/>
  <unicode hex="031C"/>
  <outline>
    <contour>
      <point x="-265" y="-61" type="curve"/>
      <point x="-272" y="-96" type="line"/>
      <point x="-312" y="-96"/>
      <point x="-349" y="-131"/>
      <point x="-349" y="-171" type="curve" smooth="yes"/>
      <point x="-349" y="-201"/>
      <point x="-325" y="-220"/>
      <point x="-297" y="-220" type="curve"/>
      <point x="-304" y="-256" type="line"/>
      <point x="-349" y="-256"/>
      <point x="-384" y="-222"/>
      <point x="-384" y="-177" type="curve" smooth="yes"/>
      <point x="-384" y="-115"/>
      <point x="-327" y="-61"/>
    </contour>
  </outline>
</glyph>
<glyph name="uni031D" format="1">
  <advance width="0"/>
  <unicode hex="031D"/>
  <outline>
    <contour>
      <point x="-248" y="-155" type="line"/>
      <point x="-256" y="-195" type="line"/>
      <point x="-426" y="-195" type="line"/>
      <point x="-418" y="-155" type="line"/>
      <point x="-353" y="-155" type="line"/>
      <point x="-339" y="-85" type="line"/>
      <point x="-299" y="-85" type="line"/>
      <point x="-313" y="-155" type="line"/>
    </contour>
  </outline>
</glyph>
<glyph name="uni032A" format="1">
  <advance width="0"/>
  <unicode hex="032A"/>
  <outline>
    <contour>
      <point x="-211" y="-61" type="line"/>
      <point x="-237" y="-187" type="line"/>
      <point x="-282" y="-187" type="line"/>
      <point x="-266" y="-106" type="line"/>
      <point x="-379" y="-106" type="line"/>
      <point x="-396" y="-187" type="line"/>
      <point x="-441" y="-187" type="line"/>
      <point x="-417" y="-61" type="line"/>
    </contour>
  </outline>
</glyph>
<glyph name="uni032B" format="1">
  <advance width="0"/>
  <unicode hex="032B"/>
  <outline>
    <contour>
      <point x="-157" y="-61" type="line"/>
      <point x="-167" y="-110"/>
      <point x="-206" y="-164"/>
      <point x="-265" y="-164" type="curve" smooth="yes"/>
      <point x="-300" y="-164"/>
      <point x="-318" y="-146"/>
      <point x="-325" y="-121" type="curve"/>
      <point x="-342" y="-146"/>
      <point x="-367" y="-164"/>
      <point x="-401" y="-164" type="curve" smooth="yes"/>
      <point x="-450" y="-164"/>
      <point x="-472" y="-127"/>
      <point x="-472" y="-87" type="curve" smooth="yes"/>
      <point x="-472" y="-79"/>
      <point x="-472" y="-70"/>
      <point x="-470" y="-61" type="curve"/>
      <point x="-446" y="-61" type="line"/>
      <point x="-447" y="-100"/>
      <point x="-421" y="-117"/>
      <point x="-392" y="-117" type="curve" smooth="yes"/>
      <point x="-369" y="-117"/>
      <point x="-343" y="-106"/>
      <point x="-328" y="-81" type="curve"/>
      <point x="-305" y="-81" type="line"/>
      <point x="-301" y="-106"/>
      <point x="-280" y="-117"/>
      <point x="-257" y="-117" type="curve" smooth="yes"/>
      <point x="-228" y="-117"/>
      <point x="-195" y="-100"/>
      <point x="-180" y="-61" type="curve"/>
    </contour>
  </outline>
</glyph>
<glyph name="uni032D" format="1">
  <advance width="0"/>
  <unicode hex="032D"/>
  <outline>
    <contour>
      <point x="-180" y="-243" type="line"/>
      <point x="-250" y="-243" type="line"/>
      <point x="-332" y="-150" type="line"/>
      <point x="-452" y="-243" type="line"/>
      <point x="-522" y="-243" type="line"/>
      <point x="-357" y="-73" type="line"/>
      <point x="-278" y="-73" type="line"/>
    </contour>
  </outline>
</glyph>
<glyph name="uni0333" format="1">
  <advance width="0"/>
  <unicode hex="0333"/>
  <outline>
    <contour>
      <point x="-17" y="-88" type="line"/>
      <point x="-29" y="-154" type="line"/>
      <point x="-635" y="-154" type="line"/>
      <point x="-621" y="-88" type="line"/>
    </contour>
    <contour>
      <point x="-42" y="-203" type="line"/>
      <point x="-54" y="-269" type="line"/>
      <point x="-660" y="-269" type="line"/>
      <point x="-646" y="-203" type="line"/>
    </contour>
  </outline>
</glyph>
<glyph name="uni0334" format="1">
  <advance width="0"/>
  <unicode hex="0334"/>
  <outline>
    <contour>
      <point x="-61" y="300" type="line"/>
      <point x="-89" y="242"/>
      <point x="-134" y="194"/>
      <point x="-206" y="194" type="curve" smooth="yes"/>
      <point x="-232" y="194"/>
      <point x="-251" y="203"/>
      <point x="-272" y="217" type="curve" smooth="yes"/>
      <point x="-289" y="228"/>
      <point x="-304" y="240"/>
      <point x="-335" y="240" type="curve" smooth="yes"/>
      <point x="-353" y="240"/>
      <point x="-381" y="221"/>
      <point x="-392" y="194" type="curve"/>
      <point x="-445" y="194" type="line"/>
      <point x="-417" y="251"/>
      <point x="-372" y="300"/>
      <point x="-300" y="300" type="curve" smooth="yes"/>
      <point x="-273" y="300"/>
      <point x="-255" y="290"/>
      <point x="-233" y="276" type="curve" smooth="yes"/>
      <point x="-217" y="265"/>
      <point x="-200" y="254"/>
      <point x="-169" y="254" type="curve" smooth="yes"/>
      <point x="-152" y="254"/>
      <point x="-125" y="272"/>
      <point x="-114" y="300" type="curve"/>
    </contour>
  </outline>
</glyph>
<glyph name="uni0335" format="1">
  <advance width="0"/>
  <unicode hex="0335"/>
  <outline>
    <contour>
      <point x="-93" y="221" type="line"/>
      <point x="-414" y="221" type="line"/>
      <point x="-414" y="271" type="line"/>
      <point x="-93" y="271" type="line"/>
    </contour>
  </outline>
</glyph>
<glyph name="uni033B" format="1">
  <advance width="0"/>
  <unicode hex="033B"/>
  <outline>
    <contour>
      <point x="-223" y="-61" type="line"/>
      <point x="-259" y="-244" type="line"/>
      <point x="-442" y="-244" type="line"/>
      <point x="-406" y="-61" type="line"/>
    </contour>
    <contour>
      <point x="-264" y="-95" type="line"/>
      <point x="-379" y="-95" type="line"/>
      <point x="-401" y="-209" type="line"/>
      <point x="-287" y="-209" type="line"/>
    </contour>
  </outline>
</glyph>
<glyph name="uni033F" format="1">
  <advance width="0"/>
  <unicode hex="033F"/>
  <outline>
    <contour>
      <point x="139" y="652" type="line"/>
      <point x="126" y="586" type="line"/>
      <point x="-479" y="586" type="line"/>
      <point x="-465" y="652" type="line"/>
    </contour>
    <contour>
      <point x="161" y="764" type="line"/>
      <point x="148" y="698" type="line"/>
      <point x="-458" y="698" type="line"/>
      <point x="-443" y="764" type="line"/>
    </contour>
  </outline>
</glyph>
<glyph name="uni0346" format="1">
  <advance width="0"/>
  <unicode hex="0346"/>
  <outline>
    <contour>
      <point x="-61" y="652" type="line"/>
      <point x="-86" y="526" type="line"/>
      <point x="-131" y="526" type="line"/>
      <point x="-115" y="607" type="line"/>
      <point x="-229" y="607" type="line"/>
      <point x="-245" y="526" type="line"/>
      <point x="-291" y="526" type="line"/>
      <point x="-266" y="652" type="line"/>
    </contour>
  </outline>
</glyph>
<glyph name="uni034C" format="1">
  <advance width="0"/>
  <unicode hex="034C"/>
  <outline>
    <contour>
      <point x="66" y="707" type="line"/>
      <point x="45" y="688"/>
      <point x="4" y="660"/>
      <point x="-42" y="657" type="curve" smooth="yes"/>
      <point x="-51" y="657"/>
      <point x="-60" y="656"/>
      <point x="-67" y="656" type="curve" smooth="yes"/>
      <point x="-109" y="656"/>
      <point x="-128" y="666"/>
      <point x="-171" y="681" type="curve" smooth="yes"/>
      <point x="-216" y="697"/>
      <point x="-251" y="705"/>
      <point x="-279" y="705" type="curve" smooth="yes"/>
      <point x="-329" y="705"/>
      <point x="-358" y="682"/>
      <point x="-395" y="646" type="curve"/>
      <point x="-395" y="699" type="line"/>
      <point x="-376" y="719"/>
      <point x="-351" y="745"/>
      <point x="-277" y="750" type="curve" smooth="yes"/>
      <point x="-273" y="750"/>
      <point x="-268" y="751"/>
      <point x="-264" y="751" type="curve" smooth="yes"/>
      <point x="-212" y="751"/>
      <point x="-163" y="726"/>
      <point x="-124" y="714" type="curve" smooth="yes"/>
      <point x="-98" y="706"/>
      <point x="-75" y="703"/>
      <point x="-55" y="703" type="curve" smooth="yes"/>
      <point x="-5" y="703"/>
      <point x="28" y="726"/>
      <point x="66" y="760" type="curve"/>
    </contour>
    <contour>
      <point x="66" y="600" type="line"/>
      <point x="45" y="580"/>
      <point x="2" y="552"/>
      <point x="-44" y="549" type="curve" smooth="yes"/>
      <point x="-52" y="549"/>
      <point x="-59" y="548"/>
      <point x="-66" y="548" type="curve" smooth="yes"/>
      <point x="-110" y="548"/>
      <point x="-127" y="560"/>
      <point x="-171" y="575" type="curve" smooth="yes"/>
      <point x="-216" y="591"/>
      <point x="-251" y="598"/>
      <point x="-279" y="598" type="curve" smooth="yes"/>
      <point x="-329" y="598"/>
      <point x="-358" y="576"/>
      <point x="-395" y="540" type="curve"/>
      <point x="-395" y="592" type="line"/>
      <point x="-376" y="612"/>
      <point x="-351" y="639"/>
      <point x="-277" y="644" type="curve" smooth="yes"/>
      <point x="-273" y="644"/>
      <point x="-268" y="645"/>
      <point x="-264" y="645" type="curve" smooth="yes"/>
      <point x="-212" y="645"/>
      <point x="-163" y="620"/>
      <point x="-124" y="608" type="curve" smooth="yes"/>
      <point x="-98" y="600"/>
      <point x="-75" y="596"/>
      <point x="-55" y="596" type="curve" smooth="yes"/>
      <point x="-5" y="596"/>
      <point x="28" y="619"/>
      <point x="66" y="653" type="curve"/>
    </contour>
  </outline>
</glyph>
<glyph name="uni0351" format="1">
  <advance width="0"/>
  <unicode hex="0351"/>
  <outline>
    <contour>
      <point x="-93" y="761" type="curve"/>
      <point x="-100" y="726" type="line"/>
      <point x="-140" y="726"/>
      <point x="-177" y="691"/>
      <point x="-177" y="651" type="curve" smooth="yes"/>
      <point x="-177" y="621"/>
      <point x="-153" y="602"/>
      <point x="-125" y="602" type="curve"/>
      <point x="-132" y="566" type="line"/>
      <point x="-177" y="566"/>
      <point x="-212" y="600"/>
      <point x="-212" y="645" type="curve" smooth="yes"/>
      <point x="-212" y="707"/>
      <point x="-155" y="761"/>
    </contour>
  </outline>
</glyph>
<glyph name="uni0352" format="1">
  <advance width="0"/>
  <unicode hex="0352"/>
  <outline>
    <contour>
      <point x="-27" y="619" type="curve" smooth="yes"/>
      <point x="-27" y="610"/>
      <point x="-27" y="600"/>
      <point x="-29" y="591" type="curve"/>
      <point x="-72" y="591" type="line"/>
      <point x="-73" y="645"/>
      <point x="-113" y="667"/>
      <point x="-160" y="667" type="curve" smooth="yes"/>
      <point x="-207" y="667"/>
      <point x="-258" y="645"/>
      <point x="-281" y="591" type="curve"/>
      <point x="-324" y="591" type="line"/>
      <point x="-310" y="659"/>
      <point x="-247" y="735"/>
      <point x="-149" y="735" type="curve" smooth="yes"/>
      <point x="-64" y="735"/>
      <point x="-27" y="678"/>
    </contour>
    <contour>
      <point x="-116" y="561" type="curve" smooth="yes"/>
      <point x="-116" y="530"/>
      <point x="-141" y="505"/>
      <point x="-172" y="505" type="curve" smooth="yes"/>
      <point x="-203" y="505"/>
      <point x="-228" y="530"/>
      <point x="-228" y="561" type="curve" smooth="yes"/>
      <point x="-228" y="592"/>
      <point x="-204" y="618"/>
      <point x="-172" y="618" type="curve" smooth="yes"/>
      <point x="-141" y="618"/>
      <point x="-116" y="593"/>
    </contour>
  </outline>
</glyph>
<glyph name="uni0357" format="1">
  <advance width="0"/>
  <unicode hex="0357"/>
  <outline>
    <contour>
      <point x="-109" y="688" type="curve" smooth="yes"/>
      <point x="-109" y="627"/>
      <point x="-169" y="571"/>
      <point x="-229" y="571" type="curve"/>
      <point x="-222" y="606" type="line"/>
      <point x="-182" y="606"/>
      <point x="-146" y="641"/>
      <point x="-146" y="682" type="curve" smooth="yes"/>
      <point x="-146" y="712"/>
      <point x="-169" y="730"/>
      <point x="-198" y="730" type="curve"/>
      <point x="-190" y="766" type="line"/>
      <point x="-145" y="766"/>
      <point x="-109" y="734"/>
    </contour>
  </outline>
</glyph>
<glyph name="uni035B" format="1">
  <advance width="0"/>
  <unicode hex="035B"/>
  <outline>
    <contour>
      <point x="-177" y="744" type="line"/>
      <point x="-132" y="744" type="line"/>
      <point x="-176" y="661" type="line"/>
      <point x="-88" y="661" type="line"/>
      <point x="-158" y="529" type="line"/>
      <point x="-203" y="529" type="line"/>
      <point x="-159" y="612" type="line"/>
      <point x="-247" y="612" type="line"/>
    </contour>
  </outline>
</glyph>
<glyph name="uni035D" format="1">
  <advance width="0"/>
  <unicode hex="035D"/>
  <outline>
    <contour>
      <point x="520" y="898" type="line"/>
      <point x="449" y="813"/>
      <point x="312" y="770"/>
      <point x="124" y="770" type="curve" smooth="yes"/>
      <point x="-64" y="770"/>
      <point x="-189" y="813"/>
      <point x="-227" y="898" type="curve"/>
      <point x="-197" y="920" type="line"/>
      <point x="-161" y="855"/>
      <point x="-9" y="837"/>
      <point x="132" y="837" type="curve" smooth="yes"/>
      <point x="274" y="837"/>
      <point x="438" y="855"/>
      <point x="499" y="920" type="curve"/>
    </contour>
  </outline>
</glyph>
